{
	"patcher" : 	{
		"fileversion" : 1,
		"appversion" : 		{
			"major" : 7,
			"minor" : 0,
			"revision" : 5,
			"architecture" : "x86",
			"modernui" : 1
		}
,
		"rect" : [ 34.0, 79.0, 1612.0, 933.0 ],
		"bglocked" : 1,
		"openinpresentation" : 1,
		"default_fontsize" : 12.0,
		"default_fontface" : 0,
		"default_fontname" : "Arial",
		"gridonopen" : 1,
		"gridsize" : [ 15.0, 15.0 ],
		"gridsnaponopen" : 1,
		"objectsnaponopen" : 1,
		"statusbarvisible" : 2,
		"toolbarvisible" : 1,
		"lefttoolbarpinned" : 0,
		"toptoolbarpinned" : 0,
		"righttoolbarpinned" : 0,
		"bottomtoolbarpinned" : 0,
		"toolbars_unpinned_last_save" : 0,
		"tallnewobj" : 0,
		"boxanimatetime" : 200,
		"enablehscroll" : 1,
		"enablevscroll" : 1,
		"devicewidth" : 0.0,
		"description" : "",
		"digest" : "",
		"tags" : "",
		"style" : "",
		"subpatcher_template" : "",
		"boxes" : [ 			{
				"box" : 				{
					"fontface" : 1,
					"fontsize" : 10.0,
					"id" : "obj-5",
					"maxclass" : "comment",
					"numinlets" : 1,
					"numoutlets" : 0,
					"patching_rect" : [ 1366.5, 412.5, 336.0, 18.0 ],
					"presentation" : 1,
					"presentation_rect" : [ 11.5, 26.0, 46.0, 18.0 ],
					"style" : "",
					"text" : "text",
					"textcolor" : [ 1.0, 1.0, 1.0, 1.0 ]
				}

			}
, 			{
				"box" : 				{
					"id" : "obj-17",
					"maxclass" : "newobj",
					"numinlets" : 0,
					"numoutlets" : 1,
					"outlettype" : [ "" ],
					"patching_rect" : [ 946.5, 341.0, 103.0, 22.0 ],
					"style" : "",
					"text" : "r  #0-messagesin"
				}

			}
, 			{
				"box" : 				{
					"id" : "obj-31",
					"maxclass" : "newobj",
					"numinlets" : 1,
					"numoutlets" : 1,
					"outlettype" : [ "" ],
					"patching_rect" : [ 1238.0, 1191.0, 109.0, 22.0 ],
					"style" : "",
					"text" : "prepend leadscale"
				}

			}
, 			{
				"box" : 				{
					"activedialcolor" : [ 0.862745, 0.870588, 0.878431, 1.0 ],
					"activeneedlecolor" : [ 0.956863, 0.666667, 0.92549, 1.0 ],
					"annotation" : "",
					"focusbordercolor" : [ 0.956863, 0.666667, 0.92549, 1.0 ],
					"id" : "obj-143",
					"maxclass" : "live.dial",
					"needlecolor" : [ 0.862745, 0.870588, 0.878431, 1.0 ],
					"numinlets" : 1,
					"numoutlets" : 2,
					"outlettype" : [ "", "float" ],
					"parameter_enable" : 1,
					"patching_rect" : [ 1800.833008, 1091.5, 44.0, 47.0 ],
					"presentation" : 1,
					"presentation_rect" : [ 337.5, 76.125, 44.0, 47.0 ],
					"saved_attribute_attributes" : 					{
						"valueof" : 						{
							"parameter_linknames" : 1,
							"parameter_longname" : "posz",
							"parameter_shortname" : "posz",
							"parameter_type" : 0,
							"parameter_mmin" : -3.0,
							"parameter_mmax" : 3.0,
							"parameter_initial_enable" : 1,
							"parameter_initial" : [ 0.0 ],
							"parameter_unitstyle" : 1,
							"parameter_speedlim" : 16.0,
							"parameter_defer" : 1
						}

					}
,
					"textcolor" : [ 0.987952, 1.0, 0.975904, 1.0 ],
					"varname" : "posz"
				}

			}
, 			{
				"box" : 				{
					"activedialcolor" : [ 0.862745, 0.870588, 0.878431, 1.0 ],
					"activeneedlecolor" : [ 0.956863, 0.666667, 0.92549, 1.0 ],
					"annotation" : "",
					"focusbordercolor" : [ 0.956863, 0.666667, 0.92549, 1.0 ],
					"id" : "obj-144",
					"maxclass" : "live.dial",
					"needlecolor" : [ 0.862745, 0.870588, 0.878431, 1.0 ],
					"numinlets" : 1,
					"numoutlets" : 2,
					"outlettype" : [ "", "float" ],
					"parameter_enable" : 1,
					"patching_rect" : [ 1682.5, 1091.5, 44.0, 47.0 ],
					"presentation" : 1,
					"presentation_rect" : [ 245.5, 76.125, 44.0, 47.0 ],
					"saved_attribute_attributes" : 					{
						"valueof" : 						{
							"parameter_linknames" : 1,
							"parameter_longname" : "posx",
							"parameter_shortname" : "posx",
							"parameter_type" : 0,
							"parameter_mmin" : -3.0,
							"parameter_mmax" : 3.0,
							"parameter_initial_enable" : 1,
							"parameter_initial" : [ 0.0 ],
							"parameter_unitstyle" : 1,
							"parameter_speedlim" : 16.0,
							"parameter_defer" : 1
						}

					}
,
					"textcolor" : [ 0.987952, 1.0, 0.975904, 1.0 ],
					"varname" : "posx"
				}

			}
, 			{
				"box" : 				{
					"activedialcolor" : [ 0.862745, 0.870588, 0.878431, 1.0 ],
					"activeneedlecolor" : [ 0.956863, 0.666667, 0.92549, 1.0 ],
					"annotation" : "",
					"focusbordercolor" : [ 0.956863, 0.666667, 0.92549, 1.0 ],
					"id" : "obj-145",
					"maxclass" : "live.dial",
					"needlecolor" : [ 0.862745, 0.870588, 0.878431, 1.0 ],
					"numinlets" : 1,
					"numoutlets" : 2,
					"outlettype" : [ "", "float" ],
					"parameter_enable" : 1,
					"patching_rect" : [ 1741.666504, 1091.5, 44.0, 47.0 ],
					"presentation" : 1,
					"presentation_rect" : [ 291.5, 76.125, 44.0, 47.0 ],
					"saved_attribute_attributes" : 					{
						"valueof" : 						{
							"parameter_linknames" : 1,
							"parameter_longname" : "posy",
							"parameter_shortname" : "posy",
							"parameter_type" : 0,
							"parameter_mmin" : -3.0,
							"parameter_mmax" : 3.0,
							"parameter_initial_enable" : 1,
							"parameter_initial" : [ 0.0 ],
							"parameter_unitstyle" : 1,
							"parameter_speedlim" : 16.0,
							"parameter_defer" : 1
						}

					}
,
					"textcolor" : [ 0.987952, 1.0, 0.975904, 1.0 ],
					"varname" : "posy"
				}

			}
, 			{
				"box" : 				{
					"id" : "obj-141",
					"maxclass" : "newobj",
					"numinlets" : 1,
					"numoutlets" : 1,
					"outlettype" : [ "" ],
					"patching_rect" : [ 1223.0, 1176.0, 100.0, 22.0 ],
					"style" : "",
					"text" : "prepend tracking"
				}

			}
, 			{
				"box" : 				{
					"activedialcolor" : [ 0.862745, 0.870588, 0.878431, 1.0 ],
					"activeneedlecolor" : [ 0.956863, 0.666667, 0.92549, 1.0 ],
					"annotation" : "",
					"focusbordercolor" : [ 0.956863, 0.666667, 0.92549, 1.0 ],
					"id" : "obj-140",
					"maxclass" : "live.dial",
					"needlecolor" : [ 0.862745, 0.870588, 0.878431, 1.0 ],
					"numinlets" : 1,
					"numoutlets" : 2,
					"outlettype" : [ "", "float" ],
					"parameter_enable" : 1,
					"patching_rect" : [ 1223.0, 1094.5, 44.0, 47.0 ],
					"presentation" : 1,
					"presentation_rect" : [ 475.5, 28.25, 44.0, 47.0 ],
					"saved_attribute_attributes" : 					{
						"valueof" : 						{
							"parameter_linknames" : 1,
							"parameter_longname" : "spacing",
							"parameter_shortname" : "spacing",
							"parameter_type" : 0,
							"parameter_mmax" : 2.0,
							"parameter_modmode" : 3,
							"parameter_initial_enable" : 1,
							"parameter_initial" : [ 1.0 ],
							"parameter_unitstyle" : 1,
							"parameter_units" : "x",
							"parameter_speedlim" : 16.0,
							"parameter_defer" : 1
						}

					}
,
					"textcolor" : [ 0.987952, 1.0, 0.975904, 1.0 ],
					"varname" : "spacing"
				}

			}
, 			{
				"box" : 				{
					"id" : "obj-139",
					"maxclass" : "newobj",
					"numinlets" : 1,
					"numoutlets" : 0,
					"patching_rect" : [ 1682.5, 1247.5, 89.499512, 22.0 ],
					"style" : "",
					"text" : "s  #0-tomesh"
				}

			}
, 			{
				"box" : 				{
					"id" : "obj-138",
					"maxclass" : "newobj",
					"numinlets" : 4,
					"numoutlets" : 1,
					"outlettype" : [ "" ],
					"patching_rect" : [ 1682.5, 1195.0, 115.0, 22.0 ],
					"style" : "",
					"text" : "pak position 0. 0. 0."
				}

			}
, 			{
				"box" : 				{
					"fontface" : 0,
					"fontname" : "Arial Bold",
					"fontsize" : 10.0,
					"id" : "obj-133",
					"maxclass" : "newobj",
					"numinlets" : 0,
					"numoutlets" : 1,
					"outlettype" : [ "" ],
					"patching_rect" : [ 1682.5, 1046.0, 79.0, 20.0 ],
					"style" : "",
					"text" : "r  #0-loadbang"
				}

			}
, 			{
				"box" : 				{
					"fontface" : 1,
					"fontsize" : 10.0,
					"id" : "obj-124",
					"maxclass" : "comment",
					"numinlets" : 1,
					"numoutlets" : 0,
					"patching_rect" : [ 1355.5, 390.5, 336.0, 18.0 ],
					"presentation" : 1,
					"presentation_rect" : [ 119.5, 28.5, 70.0, 18.0 ],
					"style" : "",
					"text" : "font",
					"textcolor" : [ 1.0, 1.0, 1.0, 1.0 ]
				}

			}
, 			{
				"box" : 				{
					"fontface" : 1,
					"fontsize" : 10.0,
					"id" : "obj-123",
					"maxclass" : "comment",
					"numinlets" : 1,
					"numoutlets" : 0,
					"patching_rect" : [ 1340.5, 375.5, 336.0, 18.0 ],
					"presentation" : 1,
					"presentation_rect" : [ 119.5, 78.125, 41.49472, 18.0 ],
					"style" : "",
					"text" : "face",
					"textcolor" : [ 1.0, 1.0, 1.0, 1.0 ]
				}

			}
, 			{
				"box" : 				{
					"fontface" : 1,
					"fontsize" : 10.0,
					"id" : "obj-121",
					"maxclass" : "comment",
					"numinlets" : 1,
					"numoutlets" : 0,
					"patching_rect" : [ 1325.5, 360.5, 336.0, 18.0 ],
					"presentation" : 1,
					"presentation_rect" : [ 184.747345, 78.125, 46.0, 18.0 ],
					"style" : "",
					"text" : "align",
					"textcolor" : [ 1.0, 1.0, 1.0, 1.0 ]
				}

			}
, 			{
				"box" : 				{
					"id" : "obj-119",
					"maxclass" : "newobj",
					"numinlets" : 2,
					"numoutlets" : 1,
					"outlettype" : [ "int" ],
					"patching_rect" : [ 108.0, 1168.5, 29.5, 22.0 ],
					"style" : "",
					"text" : "- 2"
				}

			}
, 			{
				"box" : 				{
					"id" : "obj-118",
					"maxclass" : "newobj",
					"numinlets" : 1,
					"numoutlets" : 1,
					"outlettype" : [ "int" ],
					"patching_rect" : [ 108.0, 1200.5, 30.0, 22.0 ],
					"style" : "",
					"text" : "abs"
				}

			}
, 			{
				"box" : 				{
					"id" : "obj-115",
					"maxclass" : "newobj",
					"numinlets" : 0,
					"numoutlets" : 1,
					"outlettype" : [ "" ],
					"patching_rect" : [ 400.0, 321.5, 80.0, 22.0 ],
					"style" : "",
					"text" : "r #0-textalign"
				}

			}
, 			{
				"box" : 				{
					"id" : "obj-114",
					"maxclass" : "newobj",
					"numinlets" : 1,
					"numoutlets" : 1,
					"outlettype" : [ "" ],
					"patching_rect" : [ 400.0, 365.0, 137.0, 22.0 ],
					"style" : "",
					"text" : "prepend textjustification"
				}

			}
, 			{
				"box" : 				{
					"id" : "obj-106",
					"maxclass" : "newobj",
					"numinlets" : 1,
					"numoutlets" : 0,
					"patching_rect" : [ 20.0, 1200.5, 82.0, 22.0 ],
					"style" : "",
					"text" : "s #0-textalign"
				}

			}
, 			{
				"box" : 				{
					"fontface" : 0,
					"fontname" : "Arial",
					"fontsize" : 13.0,
					"id" : "obj-105",
					"maxclass" : "newobj",
					"numinlets" : 1,
					"numoutlets" : 1,
					"outlettype" : [ "" ],
					"patching_rect" : [ 108.0, 1230.5, 89.0, 23.0 ],
					"style" : "",
					"text" : "prepend align"
				}

			}
, 			{
				"box" : 				{
					"activebgcolor" : [ 0.862745, 0.870588, 0.878431, 1.0 ],
					"annotation" : "",
					"bordercolor" : [ 0.196078, 0.196078, 0.196078, 0.0 ],
					"focusbordercolor" : [ 0.956863, 0.666667, 0.92549, 1.0 ],
					"hltcolor" : [ 0.956863, 0.666667, 0.92549, 1.0 ],
					"id" : "obj-103",
					"maxclass" : "live.menu",
					"numinlets" : 1,
					"numoutlets" : 3,
					"outlettype" : [ "", "", "float" ],
					"parameter_enable" : 1,
					"patching_rect" : [ 108.0, 1132.5, 50.0, 15.0 ],
					"presentation" : 1,
					"presentation_rect" : [ 184.747345, 95.125, 58.247375, 15.0 ],
					"saved_attribute_attributes" : 					{
						"valueof" : 						{
							"parameter_linknames" : 1,
							"parameter_longname" : "align",
							"parameter_shortname" : "align",
							"parameter_type" : 2,
							"parameter_enum" : [ "left", "center", "right" ],
							"parameter_initial_enable" : 1,
							"parameter_initial" : [ 1 ]
						}

					}
,
					"textcolor" : [ 0.596078, 0.596078, 0.596078, 1.0 ],
					"tricolor" : [ 0.596078, 0.596078, 0.596078, 1.0 ],
					"varname" : "align"
				}

			}
, 			{
				"box" : 				{
					"id" : "obj-102",
					"maxclass" : "message",
					"numinlets" : 2,
					"numoutlets" : 1,
					"outlettype" : [ "" ],
					"patching_rect" : [ 1439.0, 1072.5, 73.0, 22.0 ],
					"style" : "",
					"text" : "outputvalue"
				}

			}
, 			{
				"box" : 				{
					"id" : "obj-89",
					"maxclass" : "newobj",
					"numinlets" : 1,
					"numoutlets" : 1,
					"outlettype" : [ "" ],
					"patching_rect" : [ 1439.0, 1181.0, 139.0, 22.0 ],
					"style" : "",
					"text" : "prepend lighting_enable"
				}

			}
, 			{
				"box" : 				{
					"id" : "obj-90",
					"maxclass" : "newobj",
					"numinlets" : 1,
					"numoutlets" : 0,
					"patching_rect" : [ 1439.0, 1230.5, 80.0, 22.0 ],
					"style" : "",
					"text" : "s  #0-tomesh"
				}

			}
, 			{
				"box" : 				{
					"fontface" : 0,
					"fontname" : "Arial Bold",
					"fontsize" : 10.0,
					"id" : "obj-91",
					"maxclass" : "newobj",
					"numinlets" : 0,
					"numoutlets" : 1,
					"outlettype" : [ "" ],
					"patching_rect" : [ 1439.0, 1039.0, 79.0, 20.0 ],
					"style" : "",
					"text" : "r  #0-loadbang"
				}

			}
, 			{
				"box" : 				{
					"activebgcolor" : [ 0.862745, 0.870588, 0.878431, 1.0 ],
					"activebgoncolor" : [ 0.956863, 0.666667, 0.92549, 1.0 ],
					"activetextcolor" : [ 0.596078, 0.596078, 0.596078, 1.0 ],
					"activetextoncolor" : [ 1.0, 1.0, 1.0, 1.0 ],
					"annotation" : "",
					"automation" : "0",
					"automationon" : "1",
					"bgoncolor" : [ 0.862745, 0.870588, 0.878431, 1.0 ],
					"bordercolor" : [ 0.196078, 0.196078, 0.196078, 0.0 ],
					"focusbordercolor" : [ 0.0, 0.019608, 0.078431, 0.0 ],
					"hint" : "",
					"id" : "obj-88",
					"maxclass" : "live.text",
					"numinlets" : 1,
					"numoutlets" : 2,
					"outlettype" : [ "", "" ],
					"parameter_enable" : 1,
					"patching_rect" : [ 1439.0, 1117.0, 70.0, 37.0 ],
					"presentation" : 1,
					"presentation_rect" : [ 389.5, 89.765358, 58.010521, 31.71929 ],
					"saved_attribute_attributes" : 					{
						"valueof" : 						{
							"parameter_linknames" : 1,
							"parameter_longname" : "lighting",
							"parameter_shortname" : "lighting",
							"parameter_type" : 2,
							"parameter_mmax" : 1.0,
							"parameter_enum" : [ "0", "1" ],
							"parameter_initial_enable" : 1,
							"parameter_initial" : [ 1 ]
						}

					}
,
					"text" : "lighting",
					"textcolor" : [ 0.65098, 0.666667, 0.662745, 1.0 ],
					"texton" : "lighting",
					"varname" : "lighting"
				}

			}
, 			{
				"box" : 				{
					"id" : "obj-87",
					"maxclass" : "newobj",
					"numinlets" : 1,
					"numoutlets" : 1,
					"outlettype" : [ "" ],
					"patching_rect" : [ 1097.0, 1181.0, 88.0, 22.0 ],
					"style" : "",
					"text" : "prepend depth"
				}

			}
, 			{
				"box" : 				{
					"id" : "obj-86",
					"maxclass" : "newobj",
					"numinlets" : 1,
					"numoutlets" : 0,
					"patching_rect" : [ 1097.0, 1230.5, 80.0, 22.0 ],
					"style" : "",
					"text" : "s  #0-tomesh"
				}

			}
, 			{
				"box" : 				{
					"fontface" : 0,
					"fontname" : "Arial Bold",
					"fontsize" : 10.0,
					"id" : "obj-82",
					"maxclass" : "newobj",
					"numinlets" : 0,
					"numoutlets" : 1,
					"outlettype" : [ "" ],
					"patching_rect" : [ 1097.0, 1030.0, 79.0, 20.0 ],
					"style" : "",
					"text" : "r  #0-loadbang"
				}

			}
, 			{
				"box" : 				{
					"activedialcolor" : [ 0.862745, 0.870588, 0.878431, 1.0 ],
					"activeneedlecolor" : [ 0.956863, 0.666667, 0.92549, 1.0 ],
					"annotation" : "",
					"focusbordercolor" : [ 0.956863, 0.666667, 0.92549, 1.0 ],
					"id" : "obj-83",
					"maxclass" : "live.dial",
					"needlecolor" : [ 0.862745, 0.870588, 0.878431, 1.0 ],
					"numinlets" : 1,
					"numoutlets" : 2,
					"outlettype" : [ "", "float" ],
					"parameter_enable" : 1,
					"patching_rect" : [ 1097.0, 1094.5, 44.0, 47.0 ],
					"presentation" : 1,
					"presentation_rect" : [ 383.5, 28.25, 44.0, 47.0 ],
					"saved_attribute_attributes" : 					{
						"valueof" : 						{
							"parameter_linknames" : 1,
							"parameter_longname" : "depth",
							"parameter_shortname" : "depth",
							"parameter_type" : 0,
							"parameter_mmax" : 1.0,
							"parameter_modmode" : 3,
							"parameter_initial_enable" : 1,
							"parameter_initial" : [ 0.1 ],
							"parameter_unitstyle" : 1,
							"parameter_units" : "x",
							"parameter_speedlim" : 16.0,
							"parameter_defer" : 1
						}

					}
,
					"textcolor" : [ 0.987952, 1.0, 0.975904, 1.0 ],
					"varname" : "depth"
				}

			}
, 			{
				"box" : 				{
					"fontface" : 0,
					"fontname" : "Arial Bold",
					"fontsize" : 10.0,
					"id" : "obj-80",
					"maxclass" : "newobj",
					"numinlets" : 0,
					"numoutlets" : 1,
					"outlettype" : [ "" ],
					"patching_rect" : [ 108.0, 1088.0, 79.0, 20.0 ],
					"style" : "",
					"text" : "r  #0-loadbang"
				}

			}
, 			{
				"box" : 				{
					"id" : "obj-78",
					"maxclass" : "newobj",
					"numinlets" : 1,
					"numoutlets" : 0,
					"patching_rect" : [ 108.0, 1299.0, 80.0, 22.0 ],
					"style" : "",
					"text" : "s  #0-tomesh"
				}

			}
, 			{
				"box" : 				{
					"activebgcolor" : [ 0.862745, 0.870588, 0.878431, 1.0 ],
					"annotation" : "",
					"bordercolor" : [ 0.196078, 0.196078, 0.196078, 0.0 ],
					"focusbordercolor" : [ 0.956863, 0.666667, 0.92549, 1.0 ],
					"hltcolor" : [ 0.956863, 0.666667, 0.92549, 1.0 ],
					"id" : "obj-120",
					"maxclass" : "live.menu",
					"numinlets" : 1,
					"numoutlets" : 3,
					"outlettype" : [ "", "", "float" ],
					"parameter_enable" : 1,
					"patching_rect" : [ 203.083252, 1132.5, 50.0, 15.0 ],
					"presentation" : 1,
					"presentation_rect" : [ 119.5, 95.125, 61.0, 15.0 ],
					"saved_attribute_attributes" : 					{
						"valueof" : 						{
							"parameter_linknames" : 1,
							"parameter_longname" : "fontface",
							"parameter_shortname" : "fontface",
							"parameter_type" : 2,
							"parameter_enum" : [ "normal", "bold", "italic" ],
							"parameter_initial_enable" : 1,
							"parameter_initial" : [ 0.0 ]
						}

					}
,
					"textcolor" : [ 0.596078, 0.596078, 0.596078, 1.0 ],
					"tricolor" : [ 0.596078, 0.596078, 0.596078, 1.0 ],
					"varname" : "fontface"
				}

			}
, 			{
				"box" : 				{
					"fontface" : 0,
					"fontname" : "Arial Bold",
					"fontsize" : 10.0,
					"id" : "obj-77",
					"maxclass" : "newobj",
					"numinlets" : 0,
					"numoutlets" : 1,
					"outlettype" : [ "" ],
					"patching_rect" : [ 298.166504, 1039.0, 79.0, 20.0 ],
					"style" : "",
					"text" : "r  #0-loadbang"
				}

			}
, 			{
				"box" : 				{
					"fontname" : "Arial",
					"fontsize" : 13.0,
					"id" : "obj-95",
					"maxclass" : "newobj",
					"numinlets" : 1,
					"numoutlets" : 1,
					"outlettype" : [ "" ],
					"patching_rect" : [ 218.583252, 1230.5, 99.0, 23.0 ],
					"style" : "",
					"text" : "prepend face"
				}

			}
, 			{
				"box" : 				{
					"fontname" : "Arial",
					"fontsize" : 13.0,
					"id" : "obj-97",
					"maxclass" : "newobj",
					"numinlets" : 1,
					"numoutlets" : 1,
					"outlettype" : [ "" ],
					"patching_rect" : [ 358.166504, 1168.5, 74.0, 23.0 ],
					"style" : "",
					"text" : "tosymbol"
				}

			}
, 			{
				"box" : 				{
					"fontname" : "Arial",
					"fontsize" : 13.0,
					"id" : "obj-99",
					"maxclass" : "newobj",
					"numinlets" : 1,
					"numoutlets" : 1,
					"outlettype" : [ "" ],
					"patching_rect" : [ 358.166504, 1230.5, 85.0, 23.0 ],
					"style" : "",
					"text" : "prepend font"
				}

			}
, 			{
				"box" : 				{
					"fontname" : "Arial",
					"fontsize" : 13.0,
					"id" : "obj-74",
					"maxclass" : "newobj",
					"numinlets" : 1,
					"numoutlets" : 1,
					"outlettype" : [ "" ],
					"patching_rect" : [ 298.166504, 1088.0, 48.0, 23.0 ],
					"style" : "",
					"text" : "fontlist"
				}

			}
, 			{
				"box" : 				{
					"bgcolor" : [ 0.862745, 0.870588, 0.878431, 1.0 ],
					"bgfillcolor_angle" : 270.0,
					"bgfillcolor_color" : [ 0.862745, 0.870588, 0.878431, 1.0 ],
					"bgfillcolor_color1" : [ 0.376471, 0.384314, 0.4, 1.0 ],
					"bgfillcolor_color2" : [ 0.290196, 0.309804, 0.301961, 1.0 ],
					"bgfillcolor_proportion" : 0.39,
					"bgfillcolor_type" : "color",
					"color" : [ 0.956863, 0.666667, 0.92549, 1.0 ],
					"fontface" : 1,
					"fontsize" : 10.0,
					"id" : "obj-100",
					"items" : [ "Apple Braille Outline 6 Dot", ",", "Apple Braille Outline 8 Dot", ",", "Apple Braille Pinpoint 6 Dot", ",", "Apple Braille Pinpoint 8 Dot", ",", "Apple Braille", ",", "Apple Symbols", ",", "Apple SD Gothic Neo Bold", ",", "Apple SD Gothic Neo Regular", ",", ".Aqua Kana", ",", "Arial Hebrew", ",", "Arial Hebrew Light", ",", ".Arial Hebrew Desk Interface", ",", ".Arial Hebrew Desk Interface Light", ",", "Arial Hebrew Scholar", ",", "Arial Hebrew Scholar Light", ",", "Avenir Next Condensed Bold", ",", "Avenir Next Condensed Demi Bold", ",", "Avenir Next Condensed Italic", ",", "Avenir Next Condensed Medium", ",", "Avenir Next Condensed Regular", ",", "Avenir Next Condensed Heavy", ",", "Avenir Next Condensed Ultra Light", ",", "Avenir Next Bold", ",", "Avenir Next Demi Bold", ",", "Avenir Next Italic", ",", "Avenir Next Medium", ",", "Avenir Next Regular", ",", "Avenir Next Heavy", ",", "Avenir Next Ultra Light", ",", "Avenir Book", ",", "Avenir Book Oblique", ",", "Avenir Black", ",", "Avenir Black Oblique", ",", "Avenir Heavy", ",", "Avenir Heavy Oblique", ",", "Avenir Light", ",", "Avenir Light Oblique", ",", "Avenir Medium", ",", "Avenir Medium Oblique", ",", "Avenir Oblique", ",", "Avenir Roman", ",", "Courier", ",", "Courier Oblique", ",", "Geeza Pro Regular", ",", "Geeza Pro Bold", ",", ".Geeza Pro Interface Regular", ",", ".Geeza Pro Interface Bold", ",", ".Geeza Pro Interface Light", ",", ".Geeza PUA", ",", "Geneva", ",", ".Helvetica LT MM", ",", "Helvetica", ",", "Helvetica Oblique", ",", "Helvetica Light", ",", "Helvetica Light Oblique", ",", "Helvetica Neue", ",", "Helvetica Neue Condensed Bold", ",", "Helvetica Neue UltraLight", ",", "Helvetica Neue Light", ",", "Helvetica Neue Condensed Black", ",", "Helvetica Neue Medium", ",", "Helvetica Neue Thin", ",", "System Font Regular", ",", "System Font Bold", ",", "System Font Italic", ",", "System Font Medium P4", ",", "System Font Medium Italic P4", ",", "System Font Light", ",", "System Font Thin", ",", "System Font UltraLight", ",", "System Font Heavy", ",", ".Hiragino Kaku Gothic Interface W1", ",", ".Hiragino Kaku Gothic Interface W2", ",", ".Keyboard", ",", "Kohinoor Devanagari Book", ",", "Kohinoor Devanagari Demi", ",", "Kohinoor Devanagari Medium", ",", "Kohinoor Devanagari Bold", ",", "Kohinoor Devanagari Light", ",", "LastResort", ",", "Lucida Grande", ",", ".Lucida Grande UI Regular", ",", ".Lucida Grande UI Bold", ",", "Marker Felt Thin", ",", "Marker Felt Wide", ",", "Menlo Regular", ",", "Menlo Bold", ",", "Menlo Italic", ",", "Monaco", ",", "Noteworthy Light", ",", "Noteworthy Bold", ",", "Optima Regular", ",", "Optima Bold", ",", "Optima Italic", ",", "Optima ExtraBlack", ",", "Palatino", ",", "Heiti TC Light", ",", "Heiti SC Light", ",", "Heiti TC Medium", ",", "Heiti SC Medium", ",", ".HeitiUI TC Thin", ",", ".HeitiUI SC Thin", ",", ".HeitiUI GB18030PUA Thin", ",", ".HeitiUI K Thin", ",", ".HeitiUI J Thin", ",", ".HeitiUI TC Ultra Light", ",", ".HeitiUI SC Ultra Light", ",", ".HeitiUI GB18030PUA Ultra Light", ",", ".HeitiUI K Ultra Light", ",", ".HeitiUI J Ultra Light", ",", "Symbol", ",", "Thonburi", ",", "Thonburi Light", ",", ".Times LT MM", ",", "Times Roman", ",", "Times Bold", ",", "Times Italic", ",", "Zapf Dingbats", ",", "Hiragino Mincho ProN W3", ",", "Hiragino Mincho ProN W6", ",", "Hiragino Kaku Gothic ProN W3", ",", "Hiragino Kaku Gothic ProN W6", ",", "Al Nile", ",", ".Al Nile PUA", ",", "Al Tarikh Regular", ",", ".Al Tarikh PUA", ",", "Al Bayan Plain", ",", ".Al Bayan PUA Plain", ",", "American Typewriter", ",", "American Typewriter Light", ",", "American Typewriter Condensed", ",", "American Typewriter Condensed Light", ",", "Andale Mono", ",", "Apple Chancery", ",", "AppleGothic Regular", ",", "AppleMyungjo Regular", ",", "Apple SD GothicNeo ExtraBold", ",", "Apple SD Gothic Neo Heavy", ",", "Apple SD Gothic Neo Light", ",", "Apple SD Gothic Neo Medium", ",", "Apple SD Gothic Neo SemiBold", ",", "Apple SD Gothic Neo Thin", ",", "Apple SD Gothic Neo UltraLight", ",", "Arial Black", ",", "Arial Narrow", ",", "Arial Rounded MT Bold", ",", "Arial Unicode MS", ",", "Arial", ",", "Athelas Regular", ",", "Athelas Italic", ",", "Athelas Bold", ",", "Ayuthaya", ",", "Baghdad Regular", ",", ".Baghdad PUA", ",", "Bangla MN", ",", "Bangla Sangam MN", ",", "Baoli SC Regular", ",", "Baskerville", ",", "Baskerville SemiBold", ",", "Beirut Regular", ",", ".Beirut PUA", ",", "Big Caslon Medium", ",", "Bodoni 72 Oldstyle Book", ",", "Bodoni 72 Oldstyle Bold", ",", "Bodoni 72 Smallcaps Book", ",", "Bodoni 72 Book", ",", "Bodoni 72 Bold", ",", "Bodoni Ornaments", ",", "Bradley Hand Bold", ",", "Brush Script MT Italic", ",", "Chalkboard", ",", "Chalkboard SE Light", ",", "Chalkboard SE Regular", ",", "Chalkboard SE Bold", ",", "Chalkduster", ",", "Charter Roman", ",", "Charter Italic", ",", "Charter Bold", ",", "Charter Black", ",", "Cochin", ",", "Comic Sans MS", ",", "Cooper Std Black", ",", "Copperplate", ",", "Copperplate Light", ",", "Corsiva Hebrew", ",", "Courier New", ",", "Damascus Regular", ",", ".Damascus PUA", ",", "Damascus Light", ",", ".Damascus PUA Light", ",", "Damascus Medium", ",", ".Damascus PUA Medium", ",", "Damascus Bold", ",", "Damascus Semi Bold", ",", ".Damascus PUA Semi Bold", ",", "DecoType Naskh Regular", ",", ".DecoType Naskh PUA", ",", "Devanagari Sangam MN", ",", "Devanagari MT", ",", "Didot", ",", "DIN Alternate Bold", ",", "DIN Condensed Bold", ",", "Diwan Kufi Regular", ",", ".Diwan Kufi PUA", ",", "Diwan Thuluth Regular", ",", "Euphemia UCAS", ",", "Farah Regular", ",", ".Farah PUA", ",", "Farisi Regular", ",", "Futura Medium", ",", "Futura Condensed Medium", ",", "Futura Condensed ExtraBold", ",", "Georgia", ",", "Giddyup Std", ",", "Gill Sans", ",", "Gill Sans UltraBold", ",", "Gill Sans SemiBold", ",", "Gill Sans Light", ",", "Gujarati Sangam MN", ",", "Gujarati MT", ",", "GungSeo Regular", ",", "Gurmukhi MN", ",", "Gurmukhi Sangam MN", ",", "Gurmukhi MT", ",", "Hannotate SC Regular", ",", "Hannotate TC Regular", ",", "Hannotate SC Bold", ",", "Hannotate TC Bold", ",", "HanziPen SC Regular", ",", "HanziPen TC Regular", ",", "HanziPen SC Bold", ",", "HanziPen TC Bold", ",", "HeadLineA Regular", ",", "Helsinki Metronome Std", ",", "Helsinki Special Std", ",", "Helsinki Std", ",", "Helsinki Text Std", ",", "Herculanum", ",", "Hiragino Sans GB W3", ",", "Hiragino Sans GB W6", ",", "Hoefler Text Ornaments", ",", "Hoefler Text", ",", "Hoefler Text Black", ",", "Impact", ",", "InaiMathi", ",", "Inkpen2 Chords Std", ",", "Inkpen2 Metronome Std", ",", "Inkpen2 Script Std", ",", "Inkpen2 Special Std", ",", "Inkpen2 Std", ",", "Inkpen2 Text Std", ",", "Iowan Old Style Black", ",", "Iowan Old Style Bold", ",", "Iowan Old Style Italic", ",", "Iowan Old Style Roman", ",", "Iowan Old Style Titling", ",", "ITF Devanagari Book", ",", "ITF Devanagari Bold", ",", "ITF Devanagari Demi", ",", "ITF Devanagari Light", ",", "ITF Devanagari Medium", ",", "Kailasa Regular", ",", "Kaiti SC Black", ",", "Kaiti SC Bold", ",", "Kaiti TC Bold", ",", "Kaiti SC Regular", ",", "STKaiti", ",", "Kaiti TC Regular", ",", "Kannada MN", ",", "Kannada Sangam MN", ",", "Kefa Regular", ",", "Kefa Bold", ",", "Khmer MN", ",", "Khmer Sangam MN", ",", "Kokonor Regular", ",", "Krungthep", ",", "KufiStandardGK Regular", ",", ".KufiStandardGK PUA", ",", "Lantinghei SC Demibold", ",", "Lantinghei SC Extralight", ",", "Lantinghei SC Heavy", ",", "Lantinghei TC Demibold", ",", "Lantinghei TC Extralight", ",", "Lantinghei TC Heavy", ",", "Lao MN", ",", "Lao Sangam MN", ",", "Libian SC Regular", ",", "Luminari", ",", "Malayalam MN", ",", "Malayalam Sangam MN", ",", "Marion Regular", ",", "Marion Italic", ",", "Marion Bold", ",", "Mesquite Std Medium", ",", "Microsoft Sans Serif", ",", "Mishafi Gold Regular", ",", "Mishafi Regular", ",", "Mshtakan Oblique", ",", "Mshtakan", ",", "Muna Regular", ",", ".Muna PUA", ",", "Muna Bold", ",", "Muna Black", ",", ".Muna PUA Black", ",", "Myanmar MN", ",", "Myanmar Sangam MN", ",", "Nadeem Regular", ",", ".Nadeem PUA", ",", "NanumGothic", ",", "NanumGothic ExtraBold", ",", "NanumMyeongjo", ",", "NanumMyeongjo ExtraBold", ",", "Nanum Brush Script", ",", "Nanum Pen Script", ",", "New Peninim MT", ",", "New Peninim MT Inclined", ",", "New Peninim MT Bold Inclined", ",", "GB18030 Bitmap", ",", "Opus Big Time Std", ",", "Opus Chords Sans Condensed Std", ",", "Opus Chords Sans Std", ",", "Opus Chords Std", ",", "Opus Figured Bass Extras Std", ",", "Opus Figured Bass Std", ",", "Opus Function Symbols Std", ",", "Opus Metronome Std", ",", "Opus Note Names Std", ",", "Opus Ornaments Std", ",", "Opus Percussion Std", ",", "Opus PlainChords Std", ",", "Opus Roman Chords Std", ",", "Opus Special Extra Std", ",", "Opus Special Std", ",", "Opus Std", ",", "Opus Text Std", ",", "Orator Std Slanted", ",", "Oriya MN", ",", "Oriya Sangam MN", ",", "Osaka", ",", "Osaka-Mono", ",", "Papyrus Condensed", ",", "Papyrus", ",", "PCMyungjo Regular", ",", "Phosphate Inline", ",", "Phosphate Solid", ",", "PilGi Regular", ",", "Plantagenet Cherokee", ",", "Plantin MT Std", ",", "PT Mono", ",", "PT Sans", ",", "PT Sans Narrow", ",", "PT Sans Caption", ",", "PT Serif", ",", "PT Serif Caption", ",", "Raanana", ",", "Reprise Big Time Std", ",", "Reprise Chords Std", ",", "Reprise Metronome Std", ",", "Reprise Rehearsal Std", ",", "Reprise Script Std", ",", "Reprise Special Std", ",", "Reprise Stamp Std", ",", "Reprise Std", ",", "Reprise Text Std", ",", "Reprise Title Std", ",", "Rosewood Std", ",", "Sana Regular", ",", ".Sana PUA", ",", "Sathu", ",", "Savoye LET Plain:1.0", ",", "Savoye LET Plain CC.:1.0", ",", "Seravek", ",", "Seravek Medium", ",", "Seravek Light", ",", "Seravek ExtraLight", ",", "Shree Devanagari 714", ",", "SignPainter-HouseScript", ",", "Silom", ",", "Sinhala MN", ",", "Sinhala Sangam MN", ",", "Skia", ",", "Snell Roundhand", ",", "Snell Roundhand Black", ",", "Songti SC Black", ",", "Songti SC Bold", ",", "Songti TC Bold", ",", "Songti SC Light", ",", "STSong", ",", "Songti TC Light", ",", "Songti SC Regular", ",", "Songti TC Regular", ",", "Stencil Std Bold", ",", "STIXGeneral-Regular", ",", "STIXGeneral-Bold", ",", "STIXGeneral-BoldItalic", ",", "STIXGeneral-Italic", ",", "STIXIntegralsD-Bold", ",", "STIXIntegralsD-Regular", ",", "STIXIntegralsSm-Bold", ",", "STIXIntegralsSm-Regular", ",", "STIXIntegralsUp-Bold", ",", "STIXIntegralsUpD-Bold", ",", "STIXIntegralsUpD-Regular", ",", "STIXIntegralsUp-Regular", ",", "STIXIntegralsUpSm-Bold", ",", "STIXIntegralsUpSm-Regular", ",", "STIXNonUnicode-Regular", ",", "STIXNonUnicode-Bold", ",", "STIXNonUnicode-BoldItalic", ",", "STIXNonUnicode-Italic", ",", "STIXSizeFiveSym-Regular", ",", "STIXSizeFourSym-Bold", ",", "STIXSizeFourSym-Regular", ",", "STIXSizeOneSym-Bold", ",", "STIXSizeOneSym-Regular", ",", "STIXSizeThreeSym-Bold", ",", "STIXSizeThreeSym-Regular", ",", "STIXSizeTwoSym-Bold", ",", "STIXSizeTwoSym-Regular", ",", "STIXVariants-Regular", ",", "STIXVariants-Bold", ",", "Sukhumvit Set Thin", ",", "Sukhumvit Set Light", ",", "Sukhumvit Set Text", ",", "Sukhumvit Set Medium", ",", "Sukhumvit Set Semi Bold", ",", "Sukhumvit Set Bold", ",", "Superclarendon Regular", ",", "Superclarendon Italic", ",", "Superclarendon Light", ",", "Superclarendon Bold", ",", "Superclarendon Black", ",", "Tahoma", ",", "Tamil MN", ",", "Tamil Sangam MN", ",", "Telugu MN", ",", "Telugu Sangam MN", ",", "Times New Roman", ",", "Trajan Pro", ",", "Trattatello", ",", "Trebuchet MS", ",", "Verdana", ",", "Waseem Regular", ",", "Waseem Light", ",", "Wawati SC Regular", ",", "Wawati TC Regular", ",", "Webdings", ",", "Weibei SC Bold", ",", "Weibei TC Bold", ",", "Wingdings 2", ",", "Wingdings 3", ",", "Wingdings", ",", "Xingkai SC Bold", ",", "Xingkai SC Light", ",", "YuGothic Bold", ",", "YuGothic Medium", ",", "YuMincho Demibold", ",", "YuMincho Medium", ",", "Yuanti SC Bold", ",", "Yuanti SC Light", ",", "Yuanti SC Regular", ",", "Yuppy SC Regular", ",", "Yuppy TC Regular", ",", "Zapfino", ",", "Hiragino Maru Gothic Pro W4", ",", "Hiragino Maru Gothic ProN W4", ",", "Hiragino Mincho Pro W3", ",", "Hiragino Mincho Pro W6", ",", "Hiragino Kaku Gothic Pro W3", ",", "Hiragino Kaku Gothic Pro W6", ",", "Hiragino Kaku Gothic Std W8", ",", "Hiragino Kaku Gothic StdN W8", ",", "LiSong Pro", ",", "LiHei Pro", ",", "STFangsong", ",", "STXihei", ",", "STHeiti", ",", "Ace Attorney Regular", ",", "Coder's Crux Regular", ",", "Dada Grotesk Bold", ",", "Dada Grotesk Book", ",", "GravurCondProBolRCone Regular", ",", "Neou Bold", ",", "Neou Thin", ",", "Visitor TT1 -BRK-", ",", "Adobe Caslon Pro", ",", "Adobe Caslon Pro Semibold", ",", "Adobe Arabic Bold", ",", "Adobe Arabic Italic", ",", "Adobe Arabic Regular", ",", "Adobe Devanagari", ",", "Adobe Fangsong Std R", ",", "Adobe Fan Heiti Std B", ",", "Adobe Gothic Std B", ",", "Adobe Gurmukhi", ",", "Adobe Hebrew Bold", ",", "Adobe Hebrew Italic", ",", "Adobe Hebrew Regular", ",", "Adobe Heiti Std R", ",", "Adobe Kaiti Std R", ",", "Adobe Ming Std L", ",", "Adobe Myungjo Std M", ",", "Adobe Naskh Medium", ",", "Adobe Song Std L", ",", "Adobe Garamond Pro", ",", "Birch Std", ",", "Blackoak Std", ",", "Brush Script Std Medium", ",", "Chaparral Pro Light Italic", ",", "Chaparral Pro", ",", "Charlemagne Std Bold", ",", "Hobo Std Medium", ",", "Kozuka Gothic Pr6N B", ",", "Kozuka Gothic Pr6N EL", ",", "Kozuka Gothic Pr6N H", ",", "Kozuka Gothic Pr6N L", ",", "Kozuka Gothic Pr6N M", ",", "Kozuka Gothic Pr6N R", ",", "Kozuka Gothic Pro B", ",", "Kozuka Gothic Pro EL", ",", "Kozuka Gothic Pro H", ",", "Kozuka Gothic Pro L", ",", "Kozuka Gothic Pro M", ",", "Kozuka Gothic Pro R", ",", "Kozuka Mincho Pr6N B", ",", "Kozuka Mincho Pr6N EL", ",", "Kozuka Mincho Pr6N H", ",", "Kozuka Mincho Pr6N L", ",", "Kozuka Mincho Pr6N M", ",", "Kozuka Mincho Pr6N R", ",", "Kozuka Mincho Pro B", ",", "Kozuka Mincho Pro EL", ",", "Kozuka Mincho Pro H", ",", "Kozuka Mincho Pro L", ",", "Kozuka Mincho Pro M", ",", "Kozuka Mincho Pro R", ",", "Letter Gothic Std Bold", ",", "Letter Gothic Std Bold Slanted", ",", "Letter Gothic Std Slanted", ",", "Letter Gothic Std Medium", ",", "Lithos Pro Black", ",", "Lithos Pro", ",", "Minion Pro Bold Cond", ",", "Minion Pro Medium", ",", "Minion Pro", ",", "Minion Pro Semibold", ",", "Myriad Arabic", ",", "Myriad Hebrew", ",", "Myriad Pro Bold Condensed", ",", "Myriad Pro Condensed", ",", "Myriad Pro", ",", "Myriad Pro Semibold", ",", "Nueva Std Bold", ",", "Nueva Std Bold Condensed", ",", "Nueva Std Condensed", ",", "Nueva Std Italic", ",", "OCR A Std", ",", "Orator Std Medium", ",", "Poplar Std Black", ",", "Prestige Elite Std Bold", ",", "Source Sans Pro Black", ",", "Source Sans Pro ExtraLight", ",", "Source Sans Pro Light", ",", "Source Sans Pro", ",", "Source Sans Pro Semibold", ",", "Tekton Pro Bold", ",", "Tekton Pro Bold Condensed", ",", "Tekton Pro Bold Extended", ",", "Tekton Pro Bold Oblique", ",", "Trajan Pro 3", ",", "TeamViewer10", ",", "Apple Color Emoji" ],
					"maxclass" : "umenu",
					"numinlets" : 1,
					"numoutlets" : 3,
					"outlettype" : [ "int", "", "" ],
					"parameter_enable" : 0,
					"patching_rect" : [ 298.166504, 1132.5, 139.0, 20.0 ],
					"presentation" : 1,
					"presentation_rect" : [ 119.5, 45.5, 123.49472, 20.0 ],
					"style" : "",
					"textcolor" : [ 0.596078, 0.596078, 0.596078, 1.0 ]
				}

			}
, 			{
				"box" : 				{
					"id" : "obj-65",
					"maxclass" : "newobj",
					"numinlets" : 1,
					"numoutlets" : 1,
					"outlettype" : [ "" ],
					"patching_rect" : [ 32.5, 263.0, 94.0, 22.0 ],
					"style" : "",
					"text" : "prepend enable"
				}

			}
, 			{
				"box" : 				{
					"activebgcolor" : [ 0.862745, 0.870588, 0.878431, 1.0 ],
					"activebgoncolor" : [ 0.956863, 0.666667, 0.92549, 1.0 ],
					"activetextcolor" : [ 0.596078, 0.596078, 0.596078, 1.0 ],
					"activetextoncolor" : [ 1.0, 1.0, 1.0, 1.0 ],
					"annotation" : "",
					"automation" : "0",
					"automationon" : "1",
					"bgoncolor" : [ 0.862745, 0.870588, 0.878431, 1.0 ],
					"bordercolor" : [ 0.196078, 0.196078, 0.196078, 0.0 ],
					"focusbordercolor" : [ 0.0, 0.019608, 0.078431, 0.0 ],
					"hint" : "",
					"id" : "obj-126",
					"maxclass" : "live.text",
					"numinlets" : 1,
					"numoutlets" : 2,
					"outlettype" : [ "", "" ],
					"parameter_enable" : 1,
					"patching_rect" : [ 32.5, 204.0, 70.0, 37.0 ],
					"presentation" : 1,
					"presentation_rect" : [ 464.5, 89.846313, 55.0, 31.557377 ],
					"saved_attribute_attributes" : 					{
						"valueof" : 						{
							"parameter_linknames" : 1,
							"parameter_longname" : "grabbable",
							"parameter_shortname" : "grabbable",
							"parameter_type" : 2,
							"parameter_mmax" : 1.0,
							"parameter_enum" : [ "0", "1" ]
						}

					}
,
					"text" : "grabbable",
					"textcolor" : [ 0.65098, 0.666667, 0.662745, 1.0 ],
					"texton" : "grabbable",
					"varname" : "grabbable"
				}

			}
, 			{
				"box" : 				{
					"fontface" : 0,
					"fontname" : "Arial Bold",
					"fontsize" : 10.0,
					"id" : "obj-60",
					"maxclass" : "newobj",
					"numinlets" : 0,
					"numoutlets" : 1,
					"outlettype" : [ "" ],
					"patching_rect" : [ 768.666687, 1039.0, 79.0, 20.0 ],
					"style" : "",
					"text" : "r  #0-loadbang"
				}

			}
, 			{
				"box" : 				{
					"id" : "obj-51",
					"maxclass" : "newobj",
					"numinlets" : 4,
					"numoutlets" : 1,
					"outlettype" : [ "" ],
					"patching_rect" : [ 705.0, 1181.0, 210.0, 22.0 ],
					"style" : "",
					"text" : "pak rotatexyz 0. 0. 0."
				}

			}
, 			{
				"box" : 				{
					"activedialcolor" : [ 0.862745, 0.870588, 0.878431, 1.0 ],
					"activeneedlecolor" : [ 0.956863, 0.666667, 0.92549, 1.0 ],
					"annotation" : "",
					"focusbordercolor" : [ 0.956863, 0.666667, 0.92549, 1.0 ],
					"id" : "obj-33",
					"maxclass" : "live.dial",
					"needlecolor" : [ 0.862745, 0.870588, 0.878431, 1.0 ],
					"numinlets" : 1,
					"numoutlets" : 2,
					"outlettype" : [ "", "float" ],
					"parameter_enable" : 1,
					"patching_rect" : [ 896.0, 1094.5, 44.0, 47.0 ],
					"presentation" : 1,
					"presentation_rect" : [ 337.5, 28.25, 44.0, 47.0 ],
					"saved_attribute_attributes" : 					{
						"valueof" : 						{
							"parameter_linknames" : 1,
							"parameter_longname" : "rotatez",
							"parameter_shortname" : "rotatez",
							"parameter_type" : 0,
							"parameter_mmin" : -180.0,
							"parameter_mmax" : 180.0,
							"parameter_modmode" : 3,
							"parameter_initial_enable" : 1,
							"parameter_initial" : [ 0.0 ],
							"parameter_unitstyle" : 1,
							"parameter_units" : "x",
							"parameter_speedlim" : 16.0,
							"parameter_defer" : 1
						}

					}
,
					"textcolor" : [ 0.987952, 1.0, 0.975904, 1.0 ],
					"varname" : "rotatez"
				}

			}
, 			{
				"box" : 				{
					"activedialcolor" : [ 0.862745, 0.870588, 0.878431, 1.0 ],
					"activeneedlecolor" : [ 0.956863, 0.666667, 0.92549, 1.0 ],
					"annotation" : "",
					"focusbordercolor" : [ 0.956863, 0.666667, 0.92549, 1.0 ],
					"id" : "obj-23",
					"maxclass" : "live.dial",
					"needlecolor" : [ 0.862745, 0.870588, 0.878431, 1.0 ],
					"numinlets" : 1,
					"numoutlets" : 2,
					"outlettype" : [ "", "float" ],
					"parameter_enable" : 1,
					"patching_rect" : [ 768.666687, 1094.5, 44.0, 47.0 ],
					"presentation" : 1,
					"presentation_rect" : [ 245.5, 28.25, 44.0, 47.0 ],
					"saved_attribute_attributes" : 					{
						"valueof" : 						{
							"parameter_linknames" : 1,
							"parameter_longname" : "rotatex",
							"parameter_shortname" : "rotatex",
							"parameter_type" : 0,
							"parameter_mmin" : -180.0,
							"parameter_mmax" : 180.0,
							"parameter_modmode" : 3,
							"parameter_initial_enable" : 1,
							"parameter_initial" : [ 0.0 ],
							"parameter_unitstyle" : 1,
							"parameter_units" : "x",
							"parameter_speedlim" : 16.0,
							"parameter_defer" : 1
						}

					}
,
					"textcolor" : [ 0.987952, 1.0, 0.975904, 1.0 ],
					"varname" : "rotatex"
				}

			}
, 			{
				"box" : 				{
					"fontface" : 0,
					"fontname" : "Arial Bold",
					"fontsize" : 10.0,
					"id" : "obj-4",
					"maxclass" : "newobj",
					"numinlets" : 0,
					"numoutlets" : 1,
					"outlettype" : [ "" ],
					"patching_rect" : [ 551.0, 1039.0, 79.0, 20.0 ],
					"style" : "",
					"text" : "r  #0-loadbang"
				}

			}
, 			{
				"box" : 				{
					"activedialcolor" : [ 0.862745, 0.870588, 0.878431, 1.0 ],
					"activeneedlecolor" : [ 0.956863, 0.666667, 0.92549, 1.0 ],
					"annotation" : "",
					"focusbordercolor" : [ 0.956863, 0.666667, 0.92549, 1.0 ],
					"id" : "obj-25",
					"maxclass" : "live.dial",
					"needlecolor" : [ 0.862745, 0.870588, 0.878431, 1.0 ],
					"numinlets" : 1,
					"numoutlets" : 2,
					"outlettype" : [ "", "float" ],
					"parameter_enable" : 1,
					"patching_rect" : [ 832.333313, 1094.5, 44.0, 47.0 ],
					"presentation" : 1,
					"presentation_rect" : [ 291.5, 28.25, 44.0, 47.0 ],
					"saved_attribute_attributes" : 					{
						"valueof" : 						{
							"parameter_linknames" : 1,
							"parameter_longname" : "rotatey",
							"parameter_shortname" : "rotatey",
							"parameter_type" : 0,
							"parameter_mmin" : -180.0,
							"parameter_mmax" : 180.0,
							"parameter_modmode" : 3,
							"parameter_initial_enable" : 1,
							"parameter_initial" : [ 0.0 ],
							"parameter_unitstyle" : 1,
							"parameter_units" : "x",
							"parameter_speedlim" : 16.0,
							"parameter_defer" : 1
						}

					}
,
					"textcolor" : [ 0.987952, 1.0, 0.975904, 1.0 ],
					"varname" : "rotatey"
				}

			}
, 			{
				"box" : 				{
					"id" : "obj-64",
					"maxclass" : "newobj",
					"numinlets" : 1,
					"numoutlets" : 1,
					"outlettype" : [ "" ],
					"patching_rect" : [ 545.0, 365.0, 74.0, 22.0 ],
					"style" : "",
					"text" : "prepend set"
				}

			}
, 			{
				"box" : 				{
					"id" : "obj-61",
					"maxclass" : "newobj",
					"numinlets" : 1,
					"numoutlets" : 0,
					"patching_rect" : [ 545.0, 554.0, 80.0, 22.0 ],
					"style" : "",
					"text" : "s  #0-tomesh"
				}

			}
, 			{
				"box" : 				{
					"id" : "obj-50",
					"maxclass" : "newobj",
					"numinlets" : 2,
					"numoutlets" : 2,
					"outlettype" : [ "", "" ],
					"patching_rect" : [ 626.0, 498.5, 107.0, 22.0 ],
					"style" : "",
					"text" : "route textchanged"
				}

			}
, 			{
				"box" : 				{
					"bgcolor" : [ 0.862745, 0.870588, 0.878431, 1.0 ],
					"id" : "obj-44",
					"lines" : 6,
					"maxclass" : "textedit",
					"numinlets" : 1,
					"numoutlets" : 4,
					"outlettype" : [ "", "int", "", "" ],
					"outputmode" : 1,
					"parameter_enable" : 1,
					"patching_rect" : [ 545.0, 428.5, 100.0, 50.0 ],
					"presentation" : 1,
					"presentation_rect" : [ 11.5, 41.5, 100.0, 84.25 ],
					"rounded" : 0.0,
					"saved_attribute_attributes" : 					{
						"valueof" : 						{
							"parameter_longname" : "text",
							"parameter_shortname" : "text",
							"parameter_type" : 3,
							"parameter_initial_enable" : 1,
							"parameter_initial" : [ "vzbl3" ],
							"parameter_invisible" : 1
						}

					}
,
					"style" : "",
					"tabmode" : 0,
					"text" : "vzbl3",
					"textcolor" : [ 0.596078, 0.596078, 0.596078, 1.0 ],
					"textjustification" : 0,
					"varname" : "text"
				}

			}
, 			{
				"box" : 				{
					"id" : "obj-43",
					"linecount" : 3,
					"maxclass" : "newobj",
					"numinlets" : 1,
					"numoutlets" : 2,
					"outlettype" : [ "jit_matrix", "" ],
					"patching_rect" : [ 77.0, 444.0, 212.0, 49.0 ],
					"style" : "",
					"text" : "jit.gl.text3d #0-node @color 1.0 1.0 1.0 1.0 @blend_enable 1 @smooth_shading 1 @antialias 1",
					"varname" : "text3d"
				}

			}
, 			{
				"box" : 				{
					"id" : "obj-41",
					"maxclass" : "newobj",
					"numinlets" : 1,
					"numoutlets" : 2,
					"outlettype" : [ "", "" ],
					"patching_rect" : [ 32.5, 303.0, 119.0, 22.0 ],
					"style" : "",
					"text" : "jit.gl.handle #0-node"
				}

			}
, 			{
				"box" : 				{
					"id" : "obj-70",
					"maxclass" : "message",
					"numinlets" : 2,
					"numoutlets" : 1,
					"outlettype" : [ "" ],
					"patching_rect" : [ 551.0, 1178.0, 89.0, 22.0 ],
					"style" : "",
					"text" : "scale $1 $1 $1"
				}

			}
, 			{
				"box" : 				{
					"id" : "obj-53",
					"linecount" : 3,
					"maxclass" : "comment",
					"numinlets" : 1,
					"numoutlets" : 0,
					"patching_rect" : [ 187.583252, 641.5, 98.0, 47.0 ],
					"style" : "",
					"text" : "get and receive vizzable render dimensions"
				}

			}
, 			{
				"box" : 				{
					"id" : "obj-54",
					"maxclass" : "newobj",
					"numinlets" : 0,
					"numoutlets" : 1,
					"outlettype" : [ "" ],
					"patching_rect" : [ 115.583252, 575.5, 88.0, 22.0 ],
					"style" : "",
					"text" : "r  #0-loadbang"
				}

			}
, 			{
				"box" : 				{
					"fontface" : 0,
					"fontname" : "Arial",
					"fontsize" : 12.0,
					"id" : "obj-55",
					"maxclass" : "newobj",
					"numinlets" : 1,
					"numoutlets" : 0,
					"patching_rect" : [ 115.583252, 615.5, 77.0, 22.0 ],
					"style" : "",
					"text" : "s getvzbldim"
				}

			}
, 			{
				"box" : 				{
					"fontface" : 0,
					"fontname" : "Arial Bold",
					"fontsize" : 10.0,
					"id" : "obj-56",
					"maxclass" : "newobj",
					"numinlets" : 0,
					"numoutlets" : 1,
					"outlettype" : [ "" ],
					"patching_rect" : [ 118.0, 641.5, 54.0, 20.0 ],
					"style" : "",
					"text" : "r vzbldim"
				}

			}
, 			{
				"box" : 				{
					"fontname" : "Arial Bold",
					"fontsize" : 10.0,
					"id" : "obj-57",
					"maxclass" : "newobj",
					"numinlets" : 1,
					"numoutlets" : 2,
					"outlettype" : [ "int", "int" ],
					"patching_rect" : [ 118.0, 675.5, 46.0, 20.0 ],
					"style" : "",
					"text" : "unpack"
				}

			}
, 			{
				"box" : 				{
					"fontname" : "Arial",
					"fontsize" : 11.595187,
					"id" : "obj-58",
					"maxclass" : "newobj",
					"numinlets" : 3,
					"numoutlets" : 1,
					"outlettype" : [ "" ],
					"patching_rect" : [ 77.0, 731.5, 101.0, 21.0 ],
					"style" : "",
					"text" : "pak dim 640 480"
				}

			}
, 			{
				"box" : 				{
					"id" : "obj-34",
					"maxclass" : "newobj",
					"numinlets" : 1,
					"numoutlets" : 3,
					"outlettype" : [ "jit_gl_texture", "", "" ],
					"patching_rect" : [ 77.0, 779.5, 377.0, 22.0 ],
					"style" : "",
					"text" : "jit.gl.node vzbl @name #0-node @capture 1 @erase_color 0. 0. 0. 0."
				}

			}
, 			{
				"box" : 				{
					"activedialcolor" : [ 0.862745, 0.870588, 0.878431, 1.0 ],
					"activeneedlecolor" : [ 0.956863, 0.666667, 0.92549, 1.0 ],
					"annotation" : "",
					"focusbordercolor" : [ 0.956863, 0.666667, 0.92549, 1.0 ],
					"id" : "obj-122",
					"maxclass" : "live.dial",
					"needlecolor" : [ 0.862745, 0.870588, 0.878431, 1.0 ],
					"numinlets" : 1,
					"numoutlets" : 2,
					"outlettype" : [ "", "float" ],
					"parameter_enable" : 1,
					"patching_rect" : [ 551.0, 1094.5, 44.0, 47.0 ],
					"presentation" : 1,
					"presentation_rect" : [ 429.5, 28.25, 44.0, 47.0 ],
					"saved_attribute_attributes" : 					{
						"valueof" : 						{
							"parameter_linknames" : 1,
							"parameter_longname" : "scale",
							"parameter_shortname" : "scale",
							"parameter_type" : 0,
							"parameter_mmax" : 1.0,
							"parameter_modmode" : 3,
							"parameter_initial_enable" : 1,
							"parameter_initial" : [ 0.5 ],
							"parameter_unitstyle" : 1,
							"parameter_units" : "x",
							"parameter_speedlim" : 16.0,
							"parameter_defer" : 1
						}

					}
,
					"textcolor" : [ 0.987952, 1.0, 0.975904, 1.0 ],
					"varname" : "scale"
				}

			}
, 			{
				"box" : 				{
					"id" : "obj-27",
					"maxclass" : "newobj",
					"numinlets" : 1,
					"numoutlets" : 4,
					"outlettype" : [ "", "", "", "" ],
					"patching_rect" : [ 946.5, 382.5, 58.0, 22.0 ],
					"restore" : 					{
						"align" : [ 0.0 ],
						"depth" : [ 0.1 ],
						"fontface" : [ 1.0 ],
						"grabbable" : [ 0.0 ],
						"lighting" : [ 1.0 ],
						"posx" : [ 0.0 ],
						"posy" : [ 0.0 ],
						"posz" : [ 0.0 ],
						"rotatex" : [ 0.0 ],
						"rotatey" : [ 0.0 ],
						"rotatez" : [ 0.0 ],
						"scale" : [ 0.5 ],
						"spacing" : [ 1.0 ],
						"text" : [ "vzbl3" ]
					}
,
					"style" : "",
					"text" : "autopattr",
					"varname" : "u642004624"
				}

			}
, 			{
				"box" : 				{
					"bgcolor" : [ 0.956863, 0.666667, 0.92549, 1.0 ],
					"fontface" : 1,
					"fontsize" : 16.0,
					"id" : "obj-20",
					"maxclass" : "comment",
					"numinlets" : 1,
					"numoutlets" : 0,
					"patching_rect" : [ 946.5, 469.0, 289.0, 24.0 ],
					"presentation" : 1,
					"presentation_rect" : [ 0.0, 0.0, 529.440491, 24.0 ],
					"style" : "",
					"text" : "//TEXT",
					"textcolor" : [ 1.0, 1.0, 1.0, 1.0 ],
					"textjustification" : 2
				}

			}
, 			{
				"box" : 				{
					"id" : "obj-30",
					"linecount" : 2,
					"maxclass" : "comment",
					"numinlets" : 1,
					"numoutlets" : 0,
					"patching_rect" : [ 1325.5, 94.5, 170.0, 33.0 ],
					"style" : "",
					"text" : "these are primarily useful for input devices"
				}

			}
, 			{
				"box" : 				{
					"fontface" : 1,
					"fontsize" : 14.0,
					"id" : "obj-15",
					"maxclass" : "comment",
					"numinlets" : 1,
					"numoutlets" : 0,
					"patching_rect" : [ 1325.5, 33.5, 90.0, 22.0 ],
					"style" : "",
					"text" : "//UTILITY"
				}

			}
, 			{
				"box" : 				{
					"id" : "obj-7",
					"maxclass" : "newobj",
					"numinlets" : 0,
					"numoutlets" : 1,
					"outlettype" : [ "" ],
					"patching_rect" : [ 1325.5, 196.0, 88.0, 22.0 ],
					"style" : "",
					"text" : "r  #0-loadbang"
				}

			}
, 			{
				"box" : 				{
					"fontface" : 0,
					"fontname" : "Arial",
					"fontsize" : 12.0,
					"id" : "obj-2",
					"maxclass" : "newobj",
					"numinlets" : 1,
					"numoutlets" : 0,
					"patching_rect" : [ 1325.5, 236.0, 77.0, 22.0 ],
					"style" : "",
					"text" : "s getvzbldim"
				}

			}
, 			{
				"box" : 				{
					"id" : "obj-42",
					"maxclass" : "live.line",
					"numinlets" : 1,
					"numoutlets" : 0,
					"patching_rect" : [ 45.0, 75.0, 1501.0, 5.0 ]
				}

			}
, 			{
				"box" : 				{
					"fontface" : 1,
					"fontsize" : 14.0,
					"id" : "obj-40",
					"maxclass" : "comment",
					"numinlets" : 1,
					"numoutlets" : 0,
					"patching_rect" : [ 946.5, 33.5, 66.0, 22.0 ],
					"style" : "",
					"text" : "//STYLE"
				}

			}
, 			{
				"box" : 				{
					"fontface" : 1,
					"fontsize" : 14.0,
					"id" : "obj-39",
					"maxclass" : "comment",
					"numinlets" : 1,
					"numoutlets" : 0,
					"patching_rect" : [ 545.0, 33.5, 147.0, 22.0 ],
					"style" : "",
					"text" : "//PARAMETERS"
				}

			}
, 			{
				"box" : 				{
					"fontface" : 1,
					"fontsize" : 14.0,
					"id" : "obj-38",
					"maxclass" : "comment",
					"numinlets" : 1,
					"numoutlets" : 0,
					"patching_rect" : [ 169.25, 33.5, 86.0, 22.0 ],
					"style" : "",
					"text" : "//IO"
				}

			}
, 			{
				"box" : 				{
					"id" : "obj-37",
					"maxclass" : "newobj",
					"numinlets" : 0,
					"numoutlets" : 1,
					"outlettype" : [ "" ],
					"patching_rect" : [ 77.0, 341.0, 75.0, 22.0 ],
					"style" : "",
					"text" : "r #0-tomesh"
				}

			}
, 			{
				"box" : 				{
					"id" : "obj-36",
					"maxclass" : "newobj",
					"numinlets" : 1,
					"numoutlets" : 0,
					"patching_rect" : [ 551.0, 1230.5, 80.0, 22.0 ],
					"style" : "",
					"text" : "s  #0-tomesh"
				}

			}
, 			{
				"box" : 				{
					"id" : "obj-24",
					"maxclass" : "comment",
					"numinlets" : 1,
					"numoutlets" : 0,
					"patching_rect" : [ 94.0, 824.5, 145.0, 20.0 ],
					"style" : "",
					"text" : "draw scene to node"
				}

			}
, 			{
				"box" : 				{
					"id" : "obj-21",
					"linecount" : 2,
					"maxclass" : "comment",
					"numinlets" : 1,
					"numoutlets" : 0,
					"patching_rect" : [ 545.0, 108.5, 160.0, 33.0 ],
					"style" : "",
					"text" : "last inlet \nalways accepts messages"
				}

			}
, 			{
				"box" : 				{
					"id" : "obj-18",
					"linecount" : 2,
					"maxclass" : "comment",
					"numinlets" : 1,
					"numoutlets" : 0,
					"patching_rect" : [ 98.25, 108.5, 101.0, 33.0 ],
					"style" : "",
					"text" : "first inlet \naccepts texture"
				}

			}
, 			{
				"box" : 				{
					"id" : "obj-14",
					"maxclass" : "newobj",
					"numinlets" : 1,
					"numoutlets" : 0,
					"patching_rect" : [ 545.0, 210.5, 105.0, 22.0 ],
					"style" : "",
					"text" : "s  #0-messagesin"
				}

			}
, 			{
				"box" : 				{
					"id" : "obj-13",
					"maxclass" : "newobj",
					"numinlets" : 0,
					"numoutlets" : 1,
					"outlettype" : [ "" ],
					"patching_rect" : [ 946.5, 178.5, 103.0, 22.0 ],
					"style" : "",
					"text" : "r  #0-messagesin"
				}

			}
, 			{
				"box" : 				{
					"id" : "obj-11",
					"linecount" : 4,
					"maxclass" : "comment",
					"numinlets" : 1,
					"numoutlets" : 0,
					"patching_rect" : [ 1034.5, 567.0, 113.0, 60.0 ],
					"style" : "",
					"text" : "This panel's presentation_rect sets the size of the parent bpatcher",
					"textjustification" : 1
				}

			}
, 			{
				"box" : 				{
					"id" : "obj-10",
					"linecount" : 7,
					"maxclass" : "comment",
					"numinlets" : 1,
					"numoutlets" : 0,
					"patching_rect" : [ 1094.0, 256.0, 150.0, 100.0 ],
					"style" : "",
					"text" : "This JS script resizes the parent bpatcher to the size of the background panel's presentation_rect.\nIt reports size upon loading for use in M4L devices."
				}

			}
, 			{
				"box" : 				{
					"id" : "obj-49",
					"maxclass" : "newobj",
					"numinlets" : 1,
					"numoutlets" : 0,
					"patching_rect" : [ 946.5, 309.0, 53.0, 22.0 ],
					"style" : "",
					"text" : "s ---size"
				}

			}
, 			{
				"box" : 				{
					"id" : "obj-47",
					"maxclass" : "newobj",
					"numinlets" : 2,
					"numoutlets" : 1,
					"outlettype" : [ "bang" ],
					"patching_rect" : [ 1064.5, 215.0, 37.0, 22.0 ],
					"style" : "",
					"text" : "del 1"
				}

			}
, 			{
				"box" : 				{
					"id" : "obj-45",
					"maxclass" : "newobj",
					"numinlets" : 0,
					"numoutlets" : 1,
					"outlettype" : [ "" ],
					"patching_rect" : [ 1064.5, 178.5, 88.0, 22.0 ],
					"style" : "",
					"text" : "r  #0-loadbang"
				}

			}
, 			{
				"box" : 				{
					"id" : "obj-75",
					"maxclass" : "newobj",
					"numinlets" : 2,
					"numoutlets" : 2,
					"outlettype" : [ "", "" ],
					"patching_rect" : [ 946.5, 215.0, 105.0, 22.0 ],
					"style" : "",
					"text" : "routepass getsize"
				}

			}
, 			{
				"box" : 				{
					"id" : "obj-9",
					"maxclass" : "newobj",
					"numinlets" : 1,
					"numoutlets" : 1,
					"outlettype" : [ "" ],
					"patching_rect" : [ 946.5, 274.0, 131.0, 22.0 ],
					"saved_object_attributes" : 					{
						"filename" : "vzbl.windowresize.js",
						"parameter_enable" : 0
					}
,
					"style" : "",
					"text" : "js vzbl.windowresize.js"
				}

			}
, 			{
				"box" : 				{
					"comment" : "Messages in",
					"id" : "obj-6",
					"maxclass" : "inlet",
					"numinlets" : 0,
					"numoutlets" : 1,
					"outlettype" : [ "" ],
					"patching_rect" : [ 545.0, 160.5, 30.0, 30.0 ],
					"style" : ""
				}

			}
, 			{
				"box" : 				{
					"comment" : "Video texture out",
					"id" : "obj-3",
					"maxclass" : "outlet",
					"numinlets" : 1,
					"numoutlets" : 0,
					"patching_rect" : [ 77.0, 855.0, 30.0, 30.0 ],
					"style" : ""
				}

			}
, 			{
				"box" : 				{
					"comment" : "Video texture in",
					"id" : "obj-1",
					"maxclass" : "inlet",
					"numinlets" : 0,
					"numoutlets" : 1,
					"outlettype" : [ "" ],
					"patching_rect" : [ 192.25, 204.0, 30.0, 30.0 ],
					"style" : ""
				}

			}
, 			{
				"box" : 				{
					"fontface" : 0,
					"fontname" : "Arial Bold",
					"fontsize" : 10.0,
					"id" : "obj-32",
					"maxclass" : "newobj",
					"numinlets" : 1,
					"numoutlets" : 0,
					"patching_rect" : [ 946.5, 139.5, 81.0, 20.0 ],
					"style" : "",
					"text" : "s  #0-loadbang"
				}

			}
, 			{
				"box" : 				{
					"fontname" : "Arial Bold",
					"fontsize" : 10.0,
					"id" : "obj-16",
					"maxclass" : "newobj",
					"numinlets" : 1,
					"numoutlets" : 3,
					"outlettype" : [ "bang", "int", "int" ],
					"patching_rect" : [ 946.5, 94.5, 79.0, 20.0 ],
					"style" : "",
					"text" : "live.thisdevice"
				}

			}
, 			{
				"box" : 				{
					"angle" : 0.0,
					"bgcolor" : [ 0.65098, 0.666667, 0.662745, 1.0 ],
					"horizontal_direction" : 1,
					"id" : "obj-19",
					"maxclass" : "panel",
					"mode" : 0,
					"numinlets" : 1,
					"numoutlets" : 0,
					"patching_rect" : [ 946.5, 428.5, 289.0, 337.0 ],
					"presentation" : 1,
					"presentation_rect" : [ 0.0, 0.0, 529.440491, 131.0 ],
					"proportion" : 0.39,
					"rounded" : 10,
					"style" : "",
					"varname" : "background"
				}

			}
 ],
		"lines" : [ 			{
				"patchline" : 				{
					"destination" : [ "obj-43", 0 ],
					"disabled" : 0,
					"hidden" : 0,
					"source" : [ "obj-1", 0 ]
				}

			}
, 			{
				"patchline" : 				{
					"destination" : [ "obj-97", 0 ],
					"disabled" : 0,
					"hidden" : 0,
					"source" : [ "obj-100", 1 ]
				}

			}
, 			{
				"patchline" : 				{
					"destination" : [ "obj-88", 0 ],
					"disabled" : 0,
					"hidden" : 0,
					"source" : [ "obj-102", 0 ]
				}

			}
, 			{
				"patchline" : 				{
					"destination" : [ "obj-106", 0 ],
					"disabled" : 0,
					"hidden" : 0,
					"source" : [ "obj-103", 0 ]
				}

			}
, 			{
				"patchline" : 				{
					"destination" : [ "obj-119", 0 ],
					"disabled" : 0,
					"hidden" : 0,
					"source" : [ "obj-103", 0 ]
				}

			}
, 			{
				"patchline" : 				{
					"destination" : [ "obj-78", 0 ],
					"disabled" : 0,
					"hidden" : 0,
					"source" : [ "obj-105", 0 ]
				}

			}
, 			{
				"patchline" : 				{
					"destination" : [ "obj-44", 0 ],
					"disabled" : 0,
					"hidden" : 0,
					"source" : [ "obj-114", 0 ]
				}

			}
, 			{
				"patchline" : 				{
					"destination" : [ "obj-114", 0 ],
					"disabled" : 0,
					"hidden" : 0,
					"source" : [ "obj-115", 0 ]
				}

			}
, 			{
				"patchline" : 				{
					"destination" : [ "obj-105", 0 ],
					"disabled" : 0,
					"hidden" : 0,
					"source" : [ "obj-118", 0 ]
				}

			}
, 			{
				"patchline" : 				{
					"destination" : [ "obj-118", 0 ],
					"disabled" : 0,
					"hidden" : 0,
					"source" : [ "obj-119", 0 ]
				}

			}
, 			{
				"patchline" : 				{
					"destination" : [ "obj-95", 0 ],
					"disabled" : 0,
					"hidden" : 0,
					"source" : [ "obj-120", 1 ]
				}

			}
, 			{
				"patchline" : 				{
					"destination" : [ "obj-70", 0 ],
					"disabled" : 0,
					"hidden" : 0,
					"source" : [ "obj-122", 0 ]
				}

			}
, 			{
				"patchline" : 				{
					"destination" : [ "obj-65", 0 ],
					"disabled" : 0,
					"hidden" : 0,
					"source" : [ "obj-126", 0 ]
				}

			}
, 			{
				"patchline" : 				{
					"destination" : [ "obj-75", 0 ],
					"disabled" : 0,
					"hidden" : 0,
					"source" : [ "obj-13", 0 ]
				}

			}
, 			{
				"patchline" : 				{
					"destination" : [ "obj-143", 0 ],
					"disabled" : 0,
					"hidden" : 0,
					"source" : [ "obj-133", 0 ]
				}

			}
, 			{
				"patchline" : 				{
					"destination" : [ "obj-144", 0 ],
					"disabled" : 0,
					"hidden" : 0,
					"source" : [ "obj-133", 0 ]
				}

			}
, 			{
				"patchline" : 				{
					"destination" : [ "obj-145", 0 ],
					"disabled" : 0,
					"hidden" : 0,
					"source" : [ "obj-133", 0 ]
				}

			}
, 			{
				"patchline" : 				{
					"destination" : [ "obj-139", 0 ],
					"disabled" : 0,
					"hidden" : 0,
					"source" : [ "obj-138", 0 ]
				}

			}
, 			{
				"patchline" : 				{
					"destination" : [ "obj-141", 0 ],
					"disabled" : 0,
					"hidden" : 0,
					"source" : [ "obj-140", 0 ]
				}

			}
, 			{
				"patchline" : 				{
					"destination" : [ "obj-31", 0 ],
					"disabled" : 0,
					"hidden" : 0,
					"source" : [ "obj-140", 0 ]
				}

			}
, 			{
				"patchline" : 				{
					"destination" : [ "obj-86", 0 ],
					"disabled" : 0,
					"hidden" : 0,
					"source" : [ "obj-141", 0 ]
				}

			}
, 			{
				"patchline" : 				{
					"destination" : [ "obj-138", 3 ],
					"disabled" : 0,
					"hidden" : 0,
					"source" : [ "obj-143", 0 ]
				}

			}
, 			{
				"patchline" : 				{
					"destination" : [ "obj-138", 1 ],
					"disabled" : 0,
					"hidden" : 0,
					"source" : [ "obj-144", 0 ]
				}

			}
, 			{
				"patchline" : 				{
					"destination" : [ "obj-138", 2 ],
					"disabled" : 0,
					"hidden" : 0,
					"source" : [ "obj-145", 0 ]
				}

			}
, 			{
				"patchline" : 				{
					"destination" : [ "obj-32", 0 ],
					"disabled" : 0,
					"hidden" : 0,
					"source" : [ "obj-16", 0 ]
				}

			}
, 			{
				"patchline" : 				{
					"destination" : [ "obj-27", 0 ],
					"disabled" : 0,
					"hidden" : 0,
					"source" : [ "obj-17", 0 ]
				}

			}
, 			{
				"patchline" : 				{
					"destination" : [ "obj-51", 1 ],
					"disabled" : 0,
					"hidden" : 0,
					"source" : [ "obj-23", 0 ]
				}

			}
, 			{
				"patchline" : 				{
					"destination" : [ "obj-51", 2 ],
					"disabled" : 0,
					"hidden" : 0,
					"source" : [ "obj-25", 0 ]
				}

			}
, 			{
				"patchline" : 				{
					"destination" : [ "obj-19", 0 ],
					"disabled" : 0,
					"hidden" : 0,
					"source" : [ "obj-27", 1 ]
				}

			}
, 			{
				"patchline" : 				{
					"destination" : [ "obj-86", 0 ],
					"disabled" : 0,
					"hidden" : 0,
					"source" : [ "obj-31", 0 ]
				}

			}
, 			{
				"patchline" : 				{
					"destination" : [ "obj-51", 3 ],
					"disabled" : 0,
					"hidden" : 0,
					"source" : [ "obj-33", 0 ]
				}

			}
, 			{
				"patchline" : 				{
					"destination" : [ "obj-3", 0 ],
					"disabled" : 0,
					"hidden" : 0,
					"source" : [ "obj-34", 0 ]
				}

			}
, 			{
				"patchline" : 				{
					"destination" : [ "obj-43", 0 ],
					"disabled" : 0,
					"hidden" : 0,
					"source" : [ "obj-37", 0 ]
				}

			}
, 			{
				"patchline" : 				{
					"destination" : [ "obj-122", 0 ],
					"disabled" : 0,
					"hidden" : 0,
					"source" : [ "obj-4", 0 ]
				}

			}
, 			{
				"patchline" : 				{
					"destination" : [ "obj-43", 0 ],
					"disabled" : 0,
					"hidden" : 0,
					"source" : [ "obj-41", 0 ]
				}

			}
, 			{
				"patchline" : 				{
					"destination" : [ "obj-50", 0 ],
					"disabled" : 0,
					"hidden" : 0,
					"source" : [ "obj-44", 3 ]
				}

			}
, 			{
				"patchline" : 				{
					"destination" : [ "obj-61", 0 ],
					"disabled" : 0,
					"hidden" : 0,
					"source" : [ "obj-44", 0 ]
				}

			}
, 			{
				"patchline" : 				{
					"destination" : [ "obj-47", 0 ],
					"disabled" : 0,
					"hidden" : 0,
					"source" : [ "obj-45", 0 ]
				}

			}
, 			{
				"patchline" : 				{
					"destination" : [ "obj-9", 0 ],
					"disabled" : 0,
					"hidden" : 0,
					"source" : [ "obj-47", 0 ]
				}

			}
, 			{
				"patchline" : 				{
					"destination" : [ "obj-44", 0 ],
					"disabled" : 0,
					"hidden" : 0,
					"midpoints" : [ 635.5, 543.5, 750.916748, 543.5, 750.916748, 403.5, 554.5, 403.5 ],
					"source" : [ "obj-50", 0 ]
				}

			}
, 			{
				"patchline" : 				{
					"destination" : [ "obj-36", 0 ],
					"disabled" : 0,
					"hidden" : 0,
					"source" : [ "obj-51", 0 ]
				}

			}
, 			{
				"patchline" : 				{
					"destination" : [ "obj-55", 0 ],
					"disabled" : 0,
					"hidden" : 0,
					"source" : [ "obj-54", 0 ]
				}

			}
, 			{
				"patchline" : 				{
					"destination" : [ "obj-57", 0 ],
					"disabled" : 0,
					"hidden" : 0,
					"source" : [ "obj-56", 0 ]
				}

			}
, 			{
				"patchline" : 				{
					"destination" : [ "obj-58", 2 ],
					"disabled" : 0,
					"hidden" : 0,
					"source" : [ "obj-57", 1 ]
				}

			}
, 			{
				"patchline" : 				{
					"destination" : [ "obj-58", 1 ],
					"disabled" : 0,
					"hidden" : 0,
					"source" : [ "obj-57", 0 ]
				}

			}
, 			{
				"patchline" : 				{
					"destination" : [ "obj-34", 0 ],
					"disabled" : 0,
					"hidden" : 0,
					"source" : [ "obj-58", 0 ]
				}

			}
, 			{
				"patchline" : 				{
					"destination" : [ "obj-14", 0 ],
					"disabled" : 0,
					"hidden" : 0,
					"source" : [ "obj-6", 0 ]
				}

			}
, 			{
				"patchline" : 				{
					"destination" : [ "obj-23", 0 ],
					"disabled" : 0,
					"hidden" : 0,
					"source" : [ "obj-60", 0 ]
				}

			}
, 			{
				"patchline" : 				{
					"destination" : [ "obj-25", 0 ],
					"disabled" : 0,
					"hidden" : 0,
					"source" : [ "obj-60", 0 ]
				}

			}
, 			{
				"patchline" : 				{
					"destination" : [ "obj-33", 0 ],
					"disabled" : 0,
					"hidden" : 0,
					"source" : [ "obj-60", 0 ]
				}

			}
, 			{
				"patchline" : 				{
					"destination" : [ "obj-44", 0 ],
					"disabled" : 0,
					"hidden" : 0,
					"source" : [ "obj-64", 0 ]
				}

			}
, 			{
				"patchline" : 				{
					"destination" : [ "obj-41", 0 ],
					"disabled" : 0,
					"hidden" : 0,
					"source" : [ "obj-65", 0 ]
				}

			}
, 			{
				"patchline" : 				{
					"destination" : [ "obj-2", 0 ],
					"disabled" : 0,
					"hidden" : 0,
					"source" : [ "obj-7", 0 ]
				}

			}
, 			{
				"patchline" : 				{
					"destination" : [ "obj-36", 0 ],
					"disabled" : 0,
					"hidden" : 0,
					"source" : [ "obj-70", 0 ]
				}

			}
, 			{
				"patchline" : 				{
					"destination" : [ "obj-100", 0 ],
					"disabled" : 0,
					"hidden" : 0,
					"source" : [ "obj-74", 0 ]
				}

			}
, 			{
				"patchline" : 				{
					"destination" : [ "obj-9", 0 ],
					"disabled" : 0,
					"hidden" : 0,
					"source" : [ "obj-75", 0 ]
				}

			}
, 			{
				"patchline" : 				{
					"destination" : [ "obj-74", 0 ],
					"disabled" : 0,
					"hidden" : 0,
					"source" : [ "obj-77", 0 ]
				}

			}
, 			{
				"patchline" : 				{
					"destination" : [ "obj-103", 0 ],
					"disabled" : 0,
					"hidden" : 0,
					"source" : [ "obj-80", 0 ]
				}

			}
, 			{
				"patchline" : 				{
					"destination" : [ "obj-120", 0 ],
					"disabled" : 0,
					"hidden" : 0,
					"source" : [ "obj-80", 0 ]
				}

			}
, 			{
				"patchline" : 				{
					"destination" : [ "obj-140", 0 ],
					"disabled" : 0,
					"hidden" : 0,
					"source" : [ "obj-82", 0 ]
				}

			}
, 			{
				"patchline" : 				{
					"destination" : [ "obj-83", 0 ],
					"disabled" : 0,
					"hidden" : 0,
					"source" : [ "obj-82", 0 ]
				}

			}
, 			{
				"patchline" : 				{
					"destination" : [ "obj-87", 0 ],
					"disabled" : 0,
					"hidden" : 0,
					"source" : [ "obj-83", 0 ]
				}

			}
, 			{
				"patchline" : 				{
					"destination" : [ "obj-86", 0 ],
					"disabled" : 0,
					"hidden" : 0,
					"source" : [ "obj-87", 0 ]
				}

			}
, 			{
				"patchline" : 				{
					"destination" : [ "obj-89", 0 ],
					"disabled" : 0,
					"hidden" : 0,
					"source" : [ "obj-88", 0 ]
				}

			}
, 			{
				"patchline" : 				{
					"destination" : [ "obj-90", 0 ],
					"disabled" : 0,
					"hidden" : 0,
					"source" : [ "obj-89", 0 ]
				}

			}
, 			{
				"patchline" : 				{
					"destination" : [ "obj-49", 0 ],
					"disabled" : 0,
					"hidden" : 0,
					"source" : [ "obj-9", 0 ]
				}

			}
, 			{
				"patchline" : 				{
					"destination" : [ "obj-102", 0 ],
					"disabled" : 0,
					"hidden" : 0,
					"source" : [ "obj-91", 0 ]
				}

			}
, 			{
				"patchline" : 				{
					"destination" : [ "obj-78", 0 ],
					"disabled" : 0,
					"hidden" : 0,
					"source" : [ "obj-95", 0 ]
				}

			}
, 			{
				"patchline" : 				{
					"destination" : [ "obj-99", 0 ],
					"disabled" : 0,
					"hidden" : 0,
					"source" : [ "obj-97", 0 ]
				}

			}
, 			{
				"patchline" : 				{
					"destination" : [ "obj-78", 0 ],
					"disabled" : 0,
					"hidden" : 0,
					"source" : [ "obj-99", 0 ]
				}

			}
 ],
		"parameters" : 		{
			"obj-88" : [ "lighting", "lighting", 0 ],
			"obj-145" : [ "posy", "posy", 0 ],
			"obj-83" : [ "depth", "depth", 0 ],
			"obj-143" : [ "posz", "posz", 0 ],
			"obj-44" : [ "text", "text", 0 ],
			"obj-23" : [ "rotatex", "rotatex", 0 ],
			"obj-140" : [ "spacing", "spacing", 0 ],
			"obj-103" : [ "align", "align", 0 ],
			"obj-122" : [ "scale", "scale", 0 ],
			"obj-126" : [ "grabbable", "grabbable", 0 ],
			"obj-25" : [ "rotatey", "rotatey", 0 ],
			"obj-120" : [ "fontface", "fontface", 0 ],
			"obj-144" : [ "posx", "posx", 0 ],
			"obj-33" : [ "rotatez", "rotatez", 0 ]
		}
,
		"dependency_cache" : [ 			{
				"name" : "vzbl.windowresize.js",
				"bootpath" : "~/ZEAL/Patches and Presets/Max/VIZZABLE/VIZZable-3/scripts",
				"type" : "TEXT",
				"implicit" : 1
			}
 ],
		"embedsnapshot" : 0,
		"styles" : [ 			{
				"name" : "comment001",
				"default" : 				{
					"fontname" : [ "Arial Bold" ],
					"textcolor" : [ 0.301961, 0.701961, 0.301961, 1.0 ],
					"textjustification" : [ 2 ],
					"fontsize" : [ 10.0 ]
				}
,
				"parentstyle" : "",
				"multi" : 0
			}
, 			{
				"name" : "style test",
				"default" : 				{
					"accentcolor" : [ 0.784314, 0.145098, 0.023529, 1.0 ],
					"elementcolor" : [ 0.784314, 0.145098, 0.023529, 1.0 ],
					"bgcolor" : [ 0.290196, 0.309804, 0.301961, 1.0 ],
					"color" : [ 0.960784, 0.827451, 0.156863, 1.0 ]
				}
,
				"parentstyle" : "",
				"multi" : 0
			}
, 			{
				"name" : "vb green",
				"button" : 				{
					"elementcolor" : [ 0.862745, 0.870588, 0.878431, 1.0 ],
					"bgcolor" : [ 0.65098, 0.666667, 0.662745, 1.0 ],
					"color" : [ 0.701961, 0.811765, 0.301961, 1.0 ]
				}
,
				"umenu" : 				{
					"elementcolor" : [ 0.701961, 0.811765, 0.301961, 1.0 ],
					"textcolor_inverse" : [ 0.6, 0.6, 0.6, 1.0 ],
					"color" : [ 0.701961, 0.811765, 0.301961, 1.0 ],
					"bgfillcolor" : 					{
						"type" : "color",
						"color1" : [ 0.862745, 0.870588, 0.878431, 1.0 ],
						"color2" : [ 0.290196, 0.309804, 0.301961, 1.0 ],
						"color" : [ 0.862745, 0.870588, 0.878431, 1.0 ],
						"angle" : 270.0,
						"proportion" : 0.39,
						"autogradient" : 0
					}
,
					"fontface" : [ 1 ],
					"fontsize" : [ 10.0 ]
				}
,
				"textbutton" : 				{
					"bgcolor" : [ 0.701961, 0.811765, 0.301961, 1.0 ],
					"selectioncolor" : [ 0.701961, 0.811765, 0.301961, 1.0 ],
					"color" : [ 1.0, 1.0, 1.0, 1.0 ],
					"fontface" : [ 1 ],
					"fontsize" : [ 16.0 ],
					"centerjust" : [ 2 ]
				}
,
				"comment" : 				{
					"textcolor" : [ 0.6, 0.6, 0.6, 1.0 ],
					"fontface" : [ 1 ]
				}
,
				"panel" : 				{
					"bgfillcolor" : 					{
						"type" : "color",
						"color1" : [ 0.376471, 0.384314, 0.4, 1.0 ],
						"color2" : [ 0.290196, 0.309804, 0.301961, 1.0 ],
						"color" : [ 0.647059, 0.666667, 0.658824, 1.0 ],
						"angle" : 270.0,
						"proportion" : 0.39
					}

				}
,
				"parentstyle" : "",
				"multi" : 1
			}
, 			{
				"name" : "vb pink",
				"textbutton" : 				{
					"bgcolor" : [ 0.956863, 0.666667, 0.92549, 1.0 ],
					"selectioncolor" : [ 0.956863, 0.666667, 0.92549, 1.0 ]
				}
,
				"button" : 				{
					"color" : [ 0.956863, 0.666667, 0.92549, 1.0 ]
				}
,
				"umenu" : 				{
					"color" : [ 0.956863, 0.666667, 0.92549, 1.0 ]
				}
,
				"parentstyle" : "vb purple",
				"multi" : 1
			}
, 			{
				"name" : "vb pink-1",
				"textbutton" : 				{
					"bgcolor" : [ 0.956863, 0.666667, 0.92549, 1.0 ],
					"selectioncolor" : [ 0.956863, 0.666667, 0.92549, 1.0 ]
				}
,
				"button" : 				{
					"color" : [ 0.956863, 0.666667, 0.92549, 1.0 ]
				}
,
				"umenu" : 				{
					"color" : [ 0.956863, 0.666667, 0.92549, 1.0 ]
				}
,
				"parentstyle" : "",
				"multi" : 0
			}
, 			{
				"name" : "vb purple",
				"button" : 				{
					"elementcolor" : [ 0.862745, 0.870588, 0.878431, 1.0 ],
					"bgcolor" : [ 0.65098, 0.666667, 0.662745, 1.0 ],
					"color" : [ 0.54902, 0.584314, 0.705882, 1.0 ]
				}
,
				"umenu" : 				{
					"elementcolor" : [ 0.54902, 0.584314, 0.705882, 1.0 ],
					"textcolor_inverse" : [ 0.6, 0.6, 0.6, 1.0 ],
					"color" : [ 0.54902, 0.584314, 0.705882, 1.0 ],
					"bgfillcolor" : 					{
						"type" : "color",
						"color1" : [ 0.862745, 0.870588, 0.878431, 1.0 ],
						"color2" : [ 0.290196, 0.309804, 0.301961, 1.0 ],
						"color" : [ 0.862745, 0.870588, 0.878431, 1.0 ],
						"angle" : 270.0,
						"proportion" : 0.39,
						"autogradient" : 0
					}
,
					"fontface" : [ 1 ],
					"fontsize" : [ 10.0 ]
				}
,
				"textbutton" : 				{
					"bgcolor" : [ 0.54902, 0.584314, 0.705882, 1.0 ],
					"selectioncolor" : [ 0.54902, 0.584314, 0.705882, 1.0 ],
					"color" : [ 1.0, 1.0, 1.0, 1.0 ],
					"fontface" : [ 1 ],
					"fontsize" : [ 16.0 ],
					"centerjust" : [ 2 ]
				}
,
				"comment" : 				{
					"textcolor" : [ 0.6, 0.6, 0.6, 1.0 ],
					"fontface" : [ 1 ]
				}
,
				"panel" : 				{
					"bgfillcolor" : 					{
						"type" : "color",
						"color1" : [ 0.376471, 0.384314, 0.4, 1.0 ],
						"color2" : [ 0.290196, 0.309804, 0.301961, 1.0 ],
						"color" : [ 0.647059, 0.666667, 0.658824, 1.0 ],
						"angle" : 270.0,
						"proportion" : 0.39
					}

				}
,
				"parentstyle" : "",
				"multi" : 1
			}
, 			{
				"name" : "vb purple-1",
				"button" : 				{
					"elementcolor" : [ 0.862745, 0.870588, 0.878431, 1.0 ],
					"bgcolor" : [ 0.65098, 0.666667, 0.662745, 1.0 ],
					"color" : [ 0.54902, 0.584314, 0.705882, 1.0 ]
				}
,
				"umenu" : 				{
					"elementcolor" : [ 0.54902, 0.584314, 0.705882, 1.0 ],
					"textcolor_inverse" : [ 0.6, 0.6, 0.6, 1.0 ],
					"color" : [ 0.54902, 0.584314, 0.705882, 1.0 ],
					"bgfillcolor" : 					{
						"type" : "color",
						"color1" : [ 0.862745, 0.870588, 0.878431, 1.0 ],
						"color2" : [ 0.290196, 0.309804, 0.301961, 1.0 ],
						"color" : [ 0.862745, 0.870588, 0.878431, 1.0 ],
						"angle" : 270.0,
						"proportion" : 0.39,
						"autogradient" : 0
					}
,
					"fontface" : [ 1 ],
					"fontsize" : [ 10.0 ]
				}
,
				"textbutton" : 				{
					"bgcolor" : [ 0.54902, 0.584314, 0.705882, 1.0 ],
					"selectioncolor" : [ 0.54902, 0.584314, 0.705882, 1.0 ],
					"color" : [ 1.0, 1.0, 1.0, 1.0 ],
					"fontface" : [ 1 ],
					"fontsize" : [ 16.0 ],
					"centerjust" : [ 2 ]
				}
,
				"comment" : 				{
					"textcolor" : [ 0.6, 0.6, 0.6, 1.0 ],
					"fontface" : [ 1 ]
				}
,
				"panel" : 				{
					"bgfillcolor" : 					{
						"type" : "color",
						"color1" : [ 0.376471, 0.384314, 0.4, 1.0 ],
						"color2" : [ 0.290196, 0.309804, 0.301961, 1.0 ],
						"color" : [ 0.647059, 0.666667, 0.658824, 1.0 ],
						"angle" : 270.0,
						"proportion" : 0.39
					}

				}
,
				"parentstyle" : "",
				"multi" : 0
			}
, 			{
				"name" : "vbio",
				"parentstyle" : "",
				"multi" : 0
			}
 ]
	}

}
