{
	"patcher" : 	{
		"fileversion" : 1,
		"appversion" : 		{
			"major" : 7,
			"minor" : 0,
			"revision" : 5,
			"architecture" : "x86",
			"modernui" : 1
		}
,
		"rect" : [ 34.0, 79.0, 1612.0, 933.0 ],
		"bglocked" : 0,
		"openinpresentation" : 1,
		"default_fontsize" : 12.0,
		"default_fontface" : 0,
		"default_fontname" : "Arial",
		"gridonopen" : 1,
		"gridsize" : [ 15.0, 15.0 ],
		"gridsnaponopen" : 1,
		"objectsnaponopen" : 1,
		"statusbarvisible" : 2,
		"toolbarvisible" : 1,
		"lefttoolbarpinned" : 0,
		"toptoolbarpinned" : 0,
		"righttoolbarpinned" : 0,
		"bottomtoolbarpinned" : 0,
		"toolbars_unpinned_last_save" : 0,
		"tallnewobj" : 0,
		"boxanimatetime" : 200,
		"enablehscroll" : 1,
		"enablevscroll" : 1,
		"devicewidth" : 0.0,
		"description" : "",
		"digest" : "",
		"tags" : "",
		"style" : "",
		"subpatcher_template" : "",
		"boxes" : [ 			{
				"box" : 				{
					"id" : "obj-36",
					"maxclass" : "newobj",
					"numinlets" : 0,
					"numoutlets" : 1,
					"outlettype" : [ "" ],
					"patching_rect" : [ 1029.0, 472.0, 99.0, 22.0 ],
					"style" : "",
					"text" : "r #0-messagesin"
				}

			}
, 			{
				"box" : 				{
					"id" : "obj-35",
					"maxclass" : "newobj",
					"numinlets" : 1,
					"numoutlets" : 0,
					"patching_rect" : [ 149.666687, 94.0, 101.0, 22.0 ],
					"style" : "",
					"text" : "s #0-messagesin"
				}

			}
, 			{
				"box" : 				{
					"id" : "obj-34",
					"maxclass" : "newobj",
					"numinlets" : 0,
					"numoutlets" : 1,
					"outlettype" : [ "" ],
					"patching_rect" : [ 1042.0, 198.5, 99.0, 22.0 ],
					"style" : "",
					"text" : "r #0-messagesin"
				}

			}
, 			{
				"box" : 				{
					"id" : "obj-33",
					"maxclass" : "newobj",
					"numinlets" : 1,
					"numoutlets" : 4,
					"outlettype" : [ "", "", "", "" ],
					"patching_rect" : [ 1029.0, 527.0, 58.0, 22.0 ],
					"restore" : 					{
						"erase" : [ 0.5 ],
						"hue" : [ 1.0 ],
						"lightness" : [ 0.5 ],
						"pen size" : [ 0.02 ],
						"saturation" : [ 1.0 ],
						"x" : [ 0.5 ],
						"xoffset" : [ 0.5 ],
						"y" : [ 0.5 ],
						"yoffset" : [ 0.5 ]
					}
,
					"style" : "",
					"text" : "autopattr",
					"varname" : "u846002252"
				}

			}
, 			{
				"box" : 				{
					"id" : "obj-30",
					"maxclass" : "newobj",
					"numinlets" : 0,
					"numoutlets" : 1,
					"outlettype" : [ "" ],
					"patching_rect" : [ 350.666687, 599.0, 67.0, 22.0 ],
					"style" : "",
					"text" : "r #0-topix2"
				}

			}
, 			{
				"box" : 				{
					"id" : "obj-29",
					"maxclass" : "newobj",
					"numinlets" : 1,
					"numoutlets" : 0,
					"patching_rect" : [ 430.666687, 362.5, 69.0, 22.0 ],
					"style" : "",
					"text" : "s #0-topix2"
				}

			}
, 			{
				"box" : 				{
					"id" : "obj-28",
					"maxclass" : "newobj",
					"numinlets" : 1,
					"numoutlets" : 1,
					"outlettype" : [ "" ],
					"patching_rect" : [ 541.0, 299.5, 93.0, 22.0 ],
					"style" : "",
					"text" : "prepend yoffset"
				}

			}
, 			{
				"box" : 				{
					"id" : "obj-27",
					"maxclass" : "newobj",
					"numinlets" : 1,
					"numoutlets" : 1,
					"outlettype" : [ "" ],
					"patching_rect" : [ 430.666687, 299.5, 93.0, 22.0 ],
					"style" : "",
					"text" : "prepend xoffset"
				}

			}
, 			{
				"box" : 				{
					"activedialcolor" : [ 0.862745, 0.870588, 0.878431, 1.0 ],
					"activeneedlecolor" : [ 0.956863, 0.666667, 0.92549, 1.0 ],
					"annotation" : "",
					"focusbordercolor" : [ 0.956863, 0.666667, 0.92549, 1.0 ],
					"id" : "obj-25",
					"maxclass" : "live.dial",
					"needlecolor" : [ 0.862745, 0.870588, 0.878431, 1.0 ],
					"numinlets" : 1,
					"numoutlets" : 2,
					"outlettype" : [ "", "float" ],
					"parameter_enable" : 1,
					"patching_rect" : [ 541.0, 198.5, 44.0, 47.0 ],
					"presentation" : 1,
					"presentation_rect" : [ 192.0, 77.0, 44.0, 47.0 ],
					"saved_attribute_attributes" : 					{
						"valueof" : 						{
							"parameter_linknames" : 1,
							"parameter_longname" : "yoffset",
							"parameter_shortname" : "yoffset",
							"parameter_type" : 0,
							"parameter_mmax" : 1.0,
							"parameter_modmode" : 3,
							"parameter_initial_enable" : 1,
							"parameter_initial" : [ 0.5 ],
							"parameter_unitstyle" : 1,
							"parameter_units" : "x",
							"parameter_speedlim" : 16.0,
							"parameter_defer" : 1,
							"parameter_annotation_name" : "y displace"
						}

					}
,
					"textcolor" : [ 0.987952, 1.0, 0.975904, 1.0 ],
					"varname" : "yoffset"
				}

			}
, 			{
				"box" : 				{
					"activedialcolor" : [ 0.862745, 0.870588, 0.878431, 1.0 ],
					"activeneedlecolor" : [ 0.956863, 0.666667, 0.92549, 1.0 ],
					"annotation" : "",
					"focusbordercolor" : [ 0.956863, 0.666667, 0.92549, 1.0 ],
					"id" : "obj-26",
					"maxclass" : "live.dial",
					"needlecolor" : [ 0.862745, 0.870588, 0.878431, 1.0 ],
					"numinlets" : 1,
					"numoutlets" : 2,
					"outlettype" : [ "", "float" ],
					"parameter_enable" : 1,
					"patching_rect" : [ 430.666687, 198.5, 44.0, 47.0 ],
					"presentation" : 1,
					"presentation_rect" : [ 146.0, 77.0, 44.0, 47.0 ],
					"saved_attribute_attributes" : 					{
						"valueof" : 						{
							"parameter_linknames" : 1,
							"parameter_longname" : "xoffset",
							"parameter_shortname" : "xoffset",
							"parameter_type" : 0,
							"parameter_mmax" : 1.0,
							"parameter_modmode" : 3,
							"parameter_initial_enable" : 1,
							"parameter_initial" : [ 0.5 ],
							"parameter_unitstyle" : 1,
							"parameter_units" : "x",
							"parameter_speedlim" : 16.0,
							"parameter_defer" : 1,
							"parameter_annotation_name" : "x displace"
						}

					}
,
					"textcolor" : [ 0.987952, 1.0, 0.975904, 1.0 ],
					"varname" : "xoffset"
				}

			}
, 			{
				"box" : 				{
					"id" : "obj-24",
					"maxclass" : "newobj",
					"numinlets" : 1,
					"numoutlets" : 1,
					"outlettype" : [ "" ],
					"patching_rect" : [ 642.0, 299.5, 88.0, 22.0 ],
					"style" : "",
					"text" : "prepend erase"
				}

			}
, 			{
				"box" : 				{
					"activedialcolor" : [ 0.862745, 0.870588, 0.878431, 1.0 ],
					"activeneedlecolor" : [ 0.956863, 0.666667, 0.92549, 1.0 ],
					"annotation" : "",
					"focusbordercolor" : [ 0.956863, 0.666667, 0.92549, 1.0 ],
					"id" : "obj-23",
					"maxclass" : "live.dial",
					"needlecolor" : [ 0.862745, 0.870588, 0.878431, 1.0 ],
					"numinlets" : 1,
					"numoutlets" : 2,
					"outlettype" : [ "", "float" ],
					"parameter_enable" : 1,
					"patching_rect" : [ 642.0, 198.5, 44.0, 47.0 ],
					"presentation" : 1,
					"presentation_rect" : [ 238.0, 77.0, 44.0, 47.0 ],
					"saved_attribute_attributes" : 					{
						"valueof" : 						{
							"parameter_linknames" : 1,
							"parameter_longname" : "erase",
							"parameter_shortname" : "erase",
							"parameter_type" : 0,
							"parameter_mmax" : 1.0,
							"parameter_modmode" : 3,
							"parameter_initial_enable" : 1,
							"parameter_initial" : [ 0.5 ],
							"parameter_unitstyle" : 1,
							"parameter_units" : "x",
							"parameter_speedlim" : 16.0,
							"parameter_defer" : 1,
							"parameter_annotation_name" : "erase"
						}

					}
,
					"textcolor" : [ 0.987952, 1.0, 0.975904, 1.0 ],
					"varname" : "erase"
				}

			}
, 			{
				"box" : 				{
					"id" : "obj-21",
					"maxclass" : "newobj",
					"numinlets" : 2,
					"numoutlets" : 1,
					"outlettype" : [ "float" ],
					"patching_rect" : [ 321.5, 263.5, 35.0, 22.0 ],
					"style" : "",
					"text" : "* 0.2"
				}

			}
, 			{
				"box" : 				{
					"id" : "obj-2",
					"maxclass" : "newobj",
					"numinlets" : 0,
					"numoutlets" : 1,
					"outlettype" : [ "" ],
					"patching_rect" : [ 172.0, 554.0, 70.0, 22.0 ],
					"style" : "",
					"text" : "r vzblmetro"
				}

			}
, 			{
				"box" : 				{
					"fontname" : "Arial Bold",
					"fontsize" : 10.0,
					"id" : "obj-5",
					"maxclass" : "newobj",
					"numinlets" : 1,
					"numoutlets" : 2,
					"outlettype" : [ "jit_gl_texture", "" ],
					"patcher" : 					{
						"fileversion" : 1,
						"appversion" : 						{
							"major" : 7,
							"minor" : 0,
							"revision" : 5,
							"architecture" : "x86",
							"modernui" : 1
						}
,
						"rect" : [ 912.0, 415.0, 531.0, 450.0 ],
						"bgcolor" : [ 0.9, 0.9, 0.9, 1.0 ],
						"editing_bgcolor" : [ 0.9, 0.9, 0.9, 1.0 ],
						"bglocked" : 0,
						"openinpresentation" : 0,
						"default_fontsize" : 12.0,
						"default_fontface" : 0,
						"default_fontname" : "Arial",
						"gridonopen" : 1,
						"gridsize" : [ 15.0, 15.0 ],
						"gridsnaponopen" : 1,
						"objectsnaponopen" : 1,
						"statusbarvisible" : 2,
						"toolbarvisible" : 1,
						"lefttoolbarpinned" : 0,
						"toptoolbarpinned" : 0,
						"righttoolbarpinned" : 0,
						"bottomtoolbarpinned" : 0,
						"toolbars_unpinned_last_save" : 0,
						"tallnewobj" : 0,
						"boxanimatetime" : 200,
						"enablehscroll" : 1,
						"enablevscroll" : 1,
						"devicewidth" : 0.0,
						"description" : "",
						"digest" : "",
						"tags" : "",
						"style" : "",
						"subpatcher_template" : "",
						"boxes" : [ 							{
								"box" : 								{
									"id" : "obj-13",
									"maxclass" : "newobj",
									"numinlets" : 2,
									"numoutlets" : 1,
									"outlettype" : [ "" ],
									"patching_rect" : [ 175.0, 165.0, 75.0, 22.0 ],
									"style" : "",
									"text" : "+"
								}

							}
, 							{
								"box" : 								{
									"id" : "obj-12",
									"maxclass" : "newobj",
									"numinlets" : 2,
									"numoutlets" : 1,
									"outlettype" : [ "" ],
									"patching_rect" : [ 231.0, 125.0, 133.0, 22.0 ],
									"style" : "",
									"text" : "vec 0. 0."
								}

							}
, 							{
								"box" : 								{
									"id" : "obj-11",
									"maxclass" : "newobj",
									"numinlets" : 0,
									"numoutlets" : 1,
									"outlettype" : [ "" ],
									"patching_rect" : [ 175.0, 125.0, 38.0, 22.0 ],
									"style" : "",
									"text" : "norm"
								}

							}
, 							{
								"box" : 								{
									"id" : "obj-10",
									"maxclass" : "newobj",
									"numinlets" : 2,
									"numoutlets" : 1,
									"outlettype" : [ "" ],
									"patching_rect" : [ 37.0, 229.0, 157.0, 22.0 ],
									"style" : "",
									"text" : "sample @boundmode wrap"
								}

							}
, 							{
								"box" : 								{
									"id" : "obj-8",
									"maxclass" : "newobj",
									"numinlets" : 1,
									"numoutlets" : 1,
									"outlettype" : [ "" ],
									"patching_rect" : [ 345.0, 83.0, 35.0, 22.0 ],
									"style" : "",
									"text" : "- 0.5"
								}

							}
, 							{
								"box" : 								{
									"id" : "obj-7",
									"maxclass" : "newobj",
									"numinlets" : 1,
									"numoutlets" : 1,
									"outlettype" : [ "" ],
									"patching_rect" : [ 231.0, 83.0, 35.0, 22.0 ],
									"style" : "",
									"text" : "- 0.5"
								}

							}
, 							{
								"box" : 								{
									"id" : "obj-6",
									"maxclass" : "newobj",
									"numinlets" : 0,
									"numoutlets" : 1,
									"outlettype" : [ "" ],
									"patching_rect" : [ 345.0, 42.0, 103.0, 22.0 ],
									"style" : "",
									"text" : "param yoffset 0.5"
								}

							}
, 							{
								"box" : 								{
									"id" : "obj-5",
									"maxclass" : "newobj",
									"numinlets" : 0,
									"numoutlets" : 1,
									"outlettype" : [ "" ],
									"patching_rect" : [ 231.0, 42.0, 103.0, 22.0 ],
									"style" : "",
									"text" : "param xoffset 0.5"
								}

							}
, 							{
								"box" : 								{
									"id" : "obj-3",
									"maxclass" : "newobj",
									"numinlets" : 0,
									"numoutlets" : 1,
									"outlettype" : [ "" ],
									"patching_rect" : [ 62.0, 275.0, 91.0, 22.0 ],
									"style" : "",
									"text" : "param erase 0."
								}

							}
, 							{
								"box" : 								{
									"id" : "obj-2",
									"maxclass" : "newobj",
									"numinlets" : 2,
									"numoutlets" : 1,
									"outlettype" : [ "" ],
									"patching_rect" : [ 37.0, 401.0, 29.5, 22.0 ],
									"style" : "",
									"text" : "-"
								}

							}
, 							{
								"box" : 								{
									"id" : "obj-1",
									"maxclass" : "newobj",
									"numinlets" : 4,
									"numoutlets" : 1,
									"outlettype" : [ "" ],
									"patching_rect" : [ 62.0, 334.0, 83.0, 22.0 ],
									"style" : "",
									"text" : "vec 0. 0. 0. 1."
								}

							}
, 							{
								"box" : 								{
									"id" : "obj-9",
									"maxclass" : "newobj",
									"numinlets" : 0,
									"numoutlets" : 1,
									"outlettype" : [ "" ],
									"patching_rect" : [ 37.0, 125.0, 30.0, 22.0 ],
									"style" : "",
									"text" : "in 1"
								}

							}
, 							{
								"box" : 								{
									"fontname" : "Arial",
									"fontsize" : 12.0,
									"id" : "obj-4",
									"maxclass" : "newobj",
									"numinlets" : 1,
									"numoutlets" : 0,
									"patching_rect" : [ 37.0, 448.0, 37.0, 22.0 ],
									"style" : "",
									"text" : "out 1"
								}

							}
 ],
						"lines" : [ 							{
								"patchline" : 								{
									"destination" : [ "obj-2", 1 ],
									"disabled" : 0,
									"hidden" : 0,
									"source" : [ "obj-1", 0 ]
								}

							}
, 							{
								"patchline" : 								{
									"destination" : [ "obj-2", 0 ],
									"disabled" : 0,
									"hidden" : 0,
									"source" : [ "obj-10", 0 ]
								}

							}
, 							{
								"patchline" : 								{
									"destination" : [ "obj-13", 0 ],
									"disabled" : 0,
									"hidden" : 0,
									"source" : [ "obj-11", 0 ]
								}

							}
, 							{
								"patchline" : 								{
									"destination" : [ "obj-13", 1 ],
									"disabled" : 0,
									"hidden" : 0,
									"source" : [ "obj-12", 0 ]
								}

							}
, 							{
								"patchline" : 								{
									"destination" : [ "obj-10", 1 ],
									"disabled" : 0,
									"hidden" : 0,
									"source" : [ "obj-13", 0 ]
								}

							}
, 							{
								"patchline" : 								{
									"destination" : [ "obj-4", 0 ],
									"disabled" : 0,
									"hidden" : 0,
									"source" : [ "obj-2", 0 ]
								}

							}
, 							{
								"patchline" : 								{
									"destination" : [ "obj-1", 3 ],
									"disabled" : 0,
									"hidden" : 0,
									"source" : [ "obj-3", 0 ]
								}

							}
, 							{
								"patchline" : 								{
									"destination" : [ "obj-1", 2 ],
									"disabled" : 0,
									"hidden" : 0,
									"source" : [ "obj-3", 0 ]
								}

							}
, 							{
								"patchline" : 								{
									"destination" : [ "obj-1", 1 ],
									"disabled" : 0,
									"hidden" : 0,
									"source" : [ "obj-3", 0 ]
								}

							}
, 							{
								"patchline" : 								{
									"destination" : [ "obj-1", 0 ],
									"disabled" : 0,
									"hidden" : 0,
									"source" : [ "obj-3", 0 ]
								}

							}
, 							{
								"patchline" : 								{
									"destination" : [ "obj-7", 0 ],
									"disabled" : 0,
									"hidden" : 0,
									"source" : [ "obj-5", 0 ]
								}

							}
, 							{
								"patchline" : 								{
									"destination" : [ "obj-8", 0 ],
									"disabled" : 0,
									"hidden" : 0,
									"source" : [ "obj-6", 0 ]
								}

							}
, 							{
								"patchline" : 								{
									"destination" : [ "obj-12", 0 ],
									"disabled" : 0,
									"hidden" : 0,
									"source" : [ "obj-7", 0 ]
								}

							}
, 							{
								"patchline" : 								{
									"destination" : [ "obj-12", 1 ],
									"disabled" : 0,
									"hidden" : 0,
									"source" : [ "obj-8", 0 ]
								}

							}
, 							{
								"patchline" : 								{
									"destination" : [ "obj-10", 0 ],
									"disabled" : 0,
									"hidden" : 0,
									"source" : [ "obj-9", 0 ]
								}

							}
 ],
						"styles" : [ 							{
								"name" : "comment001",
								"default" : 								{
									"fontname" : [ "Arial Bold" ],
									"textcolor" : [ 0.301961, 0.701961, 0.301961, 1.0 ],
									"textjustification" : [ 2 ],
									"fontsize" : [ 10.0 ]
								}
,
								"parentstyle" : "",
								"multi" : 0
							}
, 							{
								"name" : "style test",
								"default" : 								{
									"accentcolor" : [ 0.784314, 0.145098, 0.023529, 1.0 ],
									"elementcolor" : [ 0.784314, 0.145098, 0.023529, 1.0 ],
									"bgcolor" : [ 0.290196, 0.309804, 0.301961, 1.0 ],
									"color" : [ 0.960784, 0.827451, 0.156863, 1.0 ]
								}
,
								"parentstyle" : "",
								"multi" : 0
							}
, 							{
								"name" : "vb green",
								"button" : 								{
									"elementcolor" : [ 0.862745, 0.870588, 0.878431, 1.0 ],
									"bgcolor" : [ 0.65098, 0.666667, 0.662745, 1.0 ],
									"color" : [ 0.701961, 0.811765, 0.301961, 1.0 ]
								}
,
								"umenu" : 								{
									"elementcolor" : [ 0.701961, 0.811765, 0.301961, 1.0 ],
									"textcolor_inverse" : [ 0.6, 0.6, 0.6, 1.0 ],
									"color" : [ 0.701961, 0.811765, 0.301961, 1.0 ],
									"bgfillcolor" : 									{
										"type" : "color",
										"color1" : [ 0.862745, 0.870588, 0.878431, 1.0 ],
										"color2" : [ 0.290196, 0.309804, 0.301961, 1.0 ],
										"color" : [ 0.862745, 0.870588, 0.878431, 1.0 ],
										"angle" : 270.0,
										"proportion" : 0.39,
										"autogradient" : 0
									}
,
									"fontface" : [ 1 ],
									"fontsize" : [ 10.0 ]
								}
,
								"textbutton" : 								{
									"bgcolor" : [ 0.701961, 0.811765, 0.301961, 1.0 ],
									"selectioncolor" : [ 0.701961, 0.811765, 0.301961, 1.0 ],
									"color" : [ 1.0, 1.0, 1.0, 1.0 ],
									"fontface" : [ 1 ],
									"fontsize" : [ 16.0 ],
									"centerjust" : [ 2 ]
								}
,
								"comment" : 								{
									"textcolor" : [ 0.6, 0.6, 0.6, 1.0 ],
									"fontface" : [ 1 ]
								}
,
								"panel" : 								{
									"bgfillcolor" : 									{
										"type" : "color",
										"color1" : [ 0.376471, 0.384314, 0.4, 1.0 ],
										"color2" : [ 0.290196, 0.309804, 0.301961, 1.0 ],
										"color" : [ 0.647059, 0.666667, 0.658824, 1.0 ],
										"angle" : 270.0,
										"proportion" : 0.39
									}

								}
,
								"parentstyle" : "",
								"multi" : 1
							}
, 							{
								"name" : "vb pink",
								"textbutton" : 								{
									"bgcolor" : [ 0.956863, 0.666667, 0.92549, 1.0 ],
									"selectioncolor" : [ 0.956863, 0.666667, 0.92549, 1.0 ]
								}
,
								"button" : 								{
									"color" : [ 0.956863, 0.666667, 0.92549, 1.0 ]
								}
,
								"umenu" : 								{
									"color" : [ 0.956863, 0.666667, 0.92549, 1.0 ]
								}
,
								"parentstyle" : "vb purple",
								"multi" : 1
							}
, 							{
								"name" : "vb pink-1",
								"textbutton" : 								{
									"bgcolor" : [ 0.956863, 0.666667, 0.92549, 1.0 ],
									"selectioncolor" : [ 0.956863, 0.666667, 0.92549, 1.0 ]
								}
,
								"button" : 								{
									"color" : [ 0.956863, 0.666667, 0.92549, 1.0 ]
								}
,
								"umenu" : 								{
									"color" : [ 0.956863, 0.666667, 0.92549, 1.0 ]
								}
,
								"parentstyle" : "",
								"multi" : 0
							}
, 							{
								"name" : "vb purple",
								"button" : 								{
									"elementcolor" : [ 0.862745, 0.870588, 0.878431, 1.0 ],
									"bgcolor" : [ 0.65098, 0.666667, 0.662745, 1.0 ],
									"color" : [ 0.54902, 0.584314, 0.705882, 1.0 ]
								}
,
								"umenu" : 								{
									"elementcolor" : [ 0.54902, 0.584314, 0.705882, 1.0 ],
									"textcolor_inverse" : [ 0.6, 0.6, 0.6, 1.0 ],
									"color" : [ 0.54902, 0.584314, 0.705882, 1.0 ],
									"bgfillcolor" : 									{
										"type" : "color",
										"color1" : [ 0.862745, 0.870588, 0.878431, 1.0 ],
										"color2" : [ 0.290196, 0.309804, 0.301961, 1.0 ],
										"color" : [ 0.862745, 0.870588, 0.878431, 1.0 ],
										"angle" : 270.0,
										"proportion" : 0.39,
										"autogradient" : 0
									}
,
									"fontface" : [ 1 ],
									"fontsize" : [ 10.0 ]
								}
,
								"textbutton" : 								{
									"bgcolor" : [ 0.54902, 0.584314, 0.705882, 1.0 ],
									"selectioncolor" : [ 0.54902, 0.584314, 0.705882, 1.0 ],
									"color" : [ 1.0, 1.0, 1.0, 1.0 ],
									"fontface" : [ 1 ],
									"fontsize" : [ 16.0 ],
									"centerjust" : [ 2 ]
								}
,
								"comment" : 								{
									"textcolor" : [ 0.6, 0.6, 0.6, 1.0 ],
									"fontface" : [ 1 ]
								}
,
								"panel" : 								{
									"bgfillcolor" : 									{
										"type" : "color",
										"color1" : [ 0.376471, 0.384314, 0.4, 1.0 ],
										"color2" : [ 0.290196, 0.309804, 0.301961, 1.0 ],
										"color" : [ 0.647059, 0.666667, 0.658824, 1.0 ],
										"angle" : 270.0,
										"proportion" : 0.39
									}

								}
,
								"parentstyle" : "",
								"multi" : 1
							}
, 							{
								"name" : "vb purple-1",
								"button" : 								{
									"elementcolor" : [ 0.862745, 0.870588, 0.878431, 1.0 ],
									"bgcolor" : [ 0.65098, 0.666667, 0.662745, 1.0 ],
									"color" : [ 0.54902, 0.584314, 0.705882, 1.0 ]
								}
,
								"umenu" : 								{
									"elementcolor" : [ 0.54902, 0.584314, 0.705882, 1.0 ],
									"textcolor_inverse" : [ 0.6, 0.6, 0.6, 1.0 ],
									"color" : [ 0.54902, 0.584314, 0.705882, 1.0 ],
									"bgfillcolor" : 									{
										"type" : "color",
										"color1" : [ 0.862745, 0.870588, 0.878431, 1.0 ],
										"color2" : [ 0.290196, 0.309804, 0.301961, 1.0 ],
										"color" : [ 0.862745, 0.870588, 0.878431, 1.0 ],
										"angle" : 270.0,
										"proportion" : 0.39,
										"autogradient" : 0
									}
,
									"fontface" : [ 1 ],
									"fontsize" : [ 10.0 ]
								}
,
								"textbutton" : 								{
									"bgcolor" : [ 0.54902, 0.584314, 0.705882, 1.0 ],
									"selectioncolor" : [ 0.54902, 0.584314, 0.705882, 1.0 ],
									"color" : [ 1.0, 1.0, 1.0, 1.0 ],
									"fontface" : [ 1 ],
									"fontsize" : [ 16.0 ],
									"centerjust" : [ 2 ]
								}
,
								"comment" : 								{
									"textcolor" : [ 0.6, 0.6, 0.6, 1.0 ],
									"fontface" : [ 1 ]
								}
,
								"panel" : 								{
									"bgfillcolor" : 									{
										"type" : "color",
										"color1" : [ 0.376471, 0.384314, 0.4, 1.0 ],
										"color2" : [ 0.290196, 0.309804, 0.301961, 1.0 ],
										"color" : [ 0.647059, 0.666667, 0.658824, 1.0 ],
										"angle" : 270.0,
										"proportion" : 0.39
									}

								}
,
								"parentstyle" : "",
								"multi" : 0
							}
, 							{
								"name" : "vbio",
								"parentstyle" : "",
								"multi" : 0
							}
 ]
					}
,
					"patching_rect" : [ 350.666687, 665.0, 71.0, 20.0 ],
					"style" : "",
					"text" : "jit.gl.pix vzbl"
				}

			}
, 			{
				"box" : 				{
					"id" : "obj-20",
					"maxclass" : "newobj",
					"numinlets" : 1,
					"numoutlets" : 0,
					"patching_rect" : [ 734.5, 497.5, 63.0, 22.0 ],
					"style" : "",
					"text" : "s #0-topix"
				}

			}
, 			{
				"box" : 				{
					"id" : "obj-19",
					"maxclass" : "newobj",
					"numinlets" : 1,
					"numoutlets" : 0,
					"patching_rect" : [ 1252.666748, 335.5, 63.0, 22.0 ],
					"style" : "",
					"text" : "s #0-topix"
				}

			}
, 			{
				"box" : 				{
					"id" : "obj-18",
					"maxclass" : "newobj",
					"numinlets" : 1,
					"numoutlets" : 0,
					"patching_rect" : [ 149.666687, 362.5, 63.0, 22.0 ],
					"style" : "",
					"text" : "s #0-topix"
				}

			}
, 			{
				"box" : 				{
					"id" : "obj-17",
					"maxclass" : "newobj",
					"numinlets" : 0,
					"numoutlets" : 1,
					"outlettype" : [ "" ],
					"patching_rect" : [ 248.666687, 599.0, 61.0, 22.0 ],
					"style" : "",
					"text" : "r #0-topix"
				}

			}
, 			{
				"box" : 				{
					"id" : "obj-16",
					"maxclass" : "newobj",
					"numinlets" : 1,
					"numoutlets" : 1,
					"outlettype" : [ "" ],
					"patching_rect" : [ 321.5, 299.5, 99.0, 22.0 ],
					"style" : "",
					"text" : "prepend pensize"
				}

			}
, 			{
				"box" : 				{
					"id" : "obj-14",
					"maxclass" : "newobj",
					"numinlets" : 1,
					"numoutlets" : 1,
					"outlettype" : [ "" ],
					"patching_rect" : [ 244.333359, 299.5, 64.0, 22.0 ],
					"style" : "",
					"text" : "prepend y"
				}

			}
, 			{
				"box" : 				{
					"id" : "obj-11",
					"maxclass" : "newobj",
					"numinlets" : 1,
					"numoutlets" : 1,
					"outlettype" : [ "" ],
					"patching_rect" : [ 149.666687, 299.5, 64.0, 22.0 ],
					"style" : "",
					"text" : "prepend x"
				}

			}
, 			{
				"box" : 				{
					"activedialcolor" : [ 0.862745, 0.870588, 0.878431, 1.0 ],
					"activeneedlecolor" : [ 0.956863, 0.666667, 0.92549, 1.0 ],
					"annotation" : "",
					"focusbordercolor" : [ 0.956863, 0.666667, 0.92549, 1.0 ],
					"id" : "obj-9",
					"maxclass" : "live.dial",
					"needlecolor" : [ 0.862745, 0.870588, 0.878431, 1.0 ],
					"numinlets" : 1,
					"numoutlets" : 2,
					"outlettype" : [ "", "float" ],
					"parameter_enable" : 1,
					"patching_rect" : [ 321.5, 147.5, 44.0, 47.0 ],
					"presentation" : 1,
					"presentation_rect" : [ 238.0, 28.0, 44.0, 47.0 ],
					"saved_attribute_attributes" : 					{
						"valueof" : 						{
							"parameter_linknames" : 1,
							"parameter_longname" : "pen size",
							"parameter_shortname" : "pen size",
							"parameter_type" : 0,
							"parameter_mmax" : 1.0,
							"parameter_modmode" : 3,
							"parameter_initial_enable" : 1,
							"parameter_initial" : [ 0.02 ],
							"parameter_unitstyle" : 1,
							"parameter_units" : "x",
							"parameter_speedlim" : 16.0,
							"parameter_defer" : 1,
							"parameter_annotation_name" : "pen size"
						}

					}
,
					"textcolor" : [ 0.987952, 1.0, 0.975904, 1.0 ],
					"varname" : "pen size"
				}

			}
, 			{
				"box" : 				{
					"activedialcolor" : [ 0.862745, 0.870588, 0.878431, 1.0 ],
					"activeneedlecolor" : [ 0.956863, 0.666667, 0.92549, 1.0 ],
					"annotation" : "",
					"focusbordercolor" : [ 0.956863, 0.666667, 0.92549, 1.0 ],
					"id" : "obj-4",
					"maxclass" : "live.dial",
					"needlecolor" : [ 0.862745, 0.870588, 0.878431, 1.0 ],
					"numinlets" : 1,
					"numoutlets" : 2,
					"outlettype" : [ "", "float" ],
					"parameter_enable" : 1,
					"patching_rect" : [ 244.333359, 147.5, 44.0, 47.0 ],
					"presentation" : 1,
					"presentation_rect" : [ 192.0, 28.0, 44.0, 47.0 ],
					"saved_attribute_attributes" : 					{
						"valueof" : 						{
							"parameter_linknames" : 1,
							"parameter_longname" : "y",
							"parameter_shortname" : "y",
							"parameter_type" : 0,
							"parameter_mmax" : 1.0,
							"parameter_modmode" : 3,
							"parameter_initial_enable" : 1,
							"parameter_initial" : [ 0.5 ],
							"parameter_unitstyle" : 1,
							"parameter_units" : "x",
							"parameter_speedlim" : 16.0,
							"parameter_defer" : 1,
							"parameter_annotation_name" : "y"
						}

					}
,
					"textcolor" : [ 0.987952, 1.0, 0.975904, 1.0 ],
					"varname" : "y"
				}

			}
, 			{
				"box" : 				{
					"activedialcolor" : [ 0.862745, 0.870588, 0.878431, 1.0 ],
					"activeneedlecolor" : [ 0.956863, 0.666667, 0.92549, 1.0 ],
					"annotation" : "",
					"focusbordercolor" : [ 0.956863, 0.666667, 0.92549, 1.0 ],
					"id" : "obj-122",
					"maxclass" : "live.dial",
					"needlecolor" : [ 0.862745, 0.870588, 0.878431, 1.0 ],
					"numinlets" : 1,
					"numoutlets" : 2,
					"outlettype" : [ "", "float" ],
					"parameter_enable" : 1,
					"patching_rect" : [ 149.666687, 147.5, 44.0, 47.0 ],
					"presentation" : 1,
					"presentation_rect" : [ 146.0, 28.0, 44.0, 47.0 ],
					"saved_attribute_attributes" : 					{
						"valueof" : 						{
							"parameter_linknames" : 1,
							"parameter_longname" : "x",
							"parameter_shortname" : "x",
							"parameter_type" : 0,
							"parameter_mmax" : 1.0,
							"parameter_modmode" : 3,
							"parameter_initial_enable" : 1,
							"parameter_initial" : [ 0.5 ],
							"parameter_unitstyle" : 1,
							"parameter_units" : "x",
							"parameter_speedlim" : 16.0,
							"parameter_defer" : 1,
							"parameter_annotation_name" : "x"
						}

					}
,
					"textcolor" : [ 0.987952, 1.0, 0.975904, 1.0 ],
					"varname" : "x"
				}

			}
, 			{
				"box" : 				{
					"id" : "obj-15",
					"maxclass" : "newobj",
					"numinlets" : 1,
					"numoutlets" : 0,
					"patching_rect" : [ 1096.0, 659.0, 87.0, 22.0 ],
					"style" : "",
					"text" : "s #0-loadbang"
				}

			}
, 			{
				"box" : 				{
					"comment" : "Messages in",
					"id" : "obj-118",
					"maxclass" : "inlet",
					"numinlets" : 0,
					"numoutlets" : 1,
					"outlettype" : [ "" ],
					"patching_rect" : [ 149.666687, 48.0, 30.0, 30.0 ],
					"style" : ""
				}

			}
, 			{
				"box" : 				{
					"id" : "obj-49",
					"maxclass" : "newobj",
					"numinlets" : 1,
					"numoutlets" : 0,
					"patching_rect" : [ 1042.0, 358.0, 53.0, 22.0 ],
					"style" : "",
					"text" : "s ---size"
				}

			}
, 			{
				"box" : 				{
					"id" : "obj-3",
					"maxclass" : "newobj",
					"numinlets" : 2,
					"numoutlets" : 1,
					"outlettype" : [ "bang" ],
					"patching_rect" : [ 1163.0, 248.5, 37.0, 22.0 ],
					"style" : "",
					"text" : "del 1"
				}

			}
, 			{
				"box" : 				{
					"id" : "obj-45",
					"maxclass" : "newobj",
					"numinlets" : 0,
					"numoutlets" : 1,
					"outlettype" : [ "" ],
					"patching_rect" : [ 1163.0, 199.0, 85.0, 22.0 ],
					"style" : "",
					"text" : "r #0-loadbang"
				}

			}
, 			{
				"box" : 				{
					"id" : "obj-75",
					"maxclass" : "newobj",
					"numinlets" : 2,
					"numoutlets" : 2,
					"outlettype" : [ "", "" ],
					"patching_rect" : [ 1042.0, 248.5, 105.0, 22.0 ],
					"style" : "",
					"text" : "routepass getsize"
				}

			}
, 			{
				"box" : 				{
					"id" : "obj-31",
					"maxclass" : "newobj",
					"numinlets" : 1,
					"numoutlets" : 1,
					"outlettype" : [ "" ],
					"patching_rect" : [ 1042.0, 323.0, 131.0, 22.0 ],
					"saved_object_attributes" : 					{
						"filename" : "vzbl.windowresize.js",
						"parameter_enable" : 0
					}
,
					"style" : "",
					"text" : "js vzbl.windowresize.js"
				}

			}
, 			{
				"box" : 				{
					"annotation" : "Set the opacity of channel 1.",
					"focusbordercolor" : [ 0.956863, 0.666667, 0.92549, 1.0 ],
					"id" : "obj-13",
					"maxclass" : "live.slider",
					"modulationcolor" : [ 1.0, 1.0, 1.0, 1.0 ],
					"numinlets" : 1,
					"numoutlets" : 2,
					"outlettype" : [ "", "float" ],
					"parameter_enable" : 1,
					"patching_rect" : [ 833.5, 198.5, 42.0, 171.0 ],
					"presentation" : 1,
					"presentation_rect" : [ 87.726105, 26.0, 48.0, 103.0 ],
					"saved_attribute_attributes" : 					{
						"valueof" : 						{
							"parameter_linknames" : 1,
							"parameter_longname" : "saturation",
							"parameter_shortname" : "saturation",
							"parameter_type" : 0,
							"parameter_mmax" : 1.0,
							"parameter_modmode" : 1,
							"parameter_initial_enable" : 1,
							"parameter_initial" : [ 1.0 ],
							"parameter_unitstyle" : 1,
							"parameter_speedlim" : 16.0,
							"parameter_defer" : 1,
							"parameter_annotation_name" : "Opacity"
						}

					}
,
					"slidercolor" : [ 0.862745, 0.870588, 0.878431, 1.0 ],
					"textcolor" : [ 1.0, 1.0, 1.0, 1.0 ],
					"tribordercolor" : [ 0.956863, 0.666667, 0.92549, 1.0 ],
					"tricolor" : [ 0.956863, 0.666667, 0.92549, 1.0 ],
					"trioncolor" : [ 0.956863, 0.666667, 0.92549, 1.0 ],
					"varname" : "saturation"
				}

			}
, 			{
				"box" : 				{
					"annotation" : "Set the opacity of channel 1.",
					"focusbordercolor" : [ 0.956863, 0.666667, 0.92549, 1.0 ],
					"id" : "obj-12",
					"maxclass" : "live.slider",
					"modulationcolor" : [ 1.0, 1.0, 1.0, 1.0 ],
					"numinlets" : 1,
					"numoutlets" : 2,
					"outlettype" : [ "", "float" ],
					"parameter_enable" : 1,
					"patching_rect" : [ 932.5, 198.5, 42.0, 171.0 ],
					"presentation" : 1,
					"presentation_rect" : [ 39.726105, 26.0, 48.0, 103.0 ],
					"saved_attribute_attributes" : 					{
						"valueof" : 						{
							"parameter_linknames" : 1,
							"parameter_longname" : "lightness",
							"parameter_shortname" : "lightness",
							"parameter_type" : 0,
							"parameter_mmax" : 1.0,
							"parameter_modmode" : 1,
							"parameter_initial_enable" : 1,
							"parameter_initial" : [ 0.5 ],
							"parameter_unitstyle" : 1,
							"parameter_speedlim" : 16.0,
							"parameter_defer" : 1,
							"parameter_annotation_name" : "Opacity"
						}

					}
,
					"slidercolor" : [ 0.862745, 0.870588, 0.878431, 1.0 ],
					"textcolor" : [ 1.0, 1.0, 1.0, 1.0 ],
					"tribordercolor" : [ 0.956863, 0.666667, 0.92549, 1.0 ],
					"tricolor" : [ 0.956863, 0.666667, 0.92549, 1.0 ],
					"trioncolor" : [ 0.956863, 0.666667, 0.92549, 1.0 ],
					"varname" : "lightness"
				}

			}
, 			{
				"box" : 				{
					"annotation" : "Set the opacity of channel 1.",
					"focusbordercolor" : [ 0.956863, 0.666667, 0.92549, 1.0 ],
					"id" : "obj-121",
					"maxclass" : "live.slider",
					"modulationcolor" : [ 1.0, 1.0, 1.0, 1.0 ],
					"numinlets" : 1,
					"numoutlets" : 2,
					"outlettype" : [ "", "float" ],
					"parameter_enable" : 1,
					"patching_rect" : [ 734.5, 198.5, 42.0, 171.0 ],
					"presentation" : 1,
					"presentation_rect" : [ 2.726105, 26.0, 33.0, 103.0 ],
					"saved_attribute_attributes" : 					{
						"valueof" : 						{
							"parameter_linknames" : 1,
							"parameter_longname" : "hue",
							"parameter_shortname" : "hue",
							"parameter_type" : 0,
							"parameter_mmax" : 1.0,
							"parameter_modmode" : 1,
							"parameter_initial_enable" : 1,
							"parameter_initial" : [ 1.0 ],
							"parameter_unitstyle" : 1,
							"parameter_speedlim" : 16.0,
							"parameter_defer" : 1,
							"parameter_annotation_name" : "Opacity"
						}

					}
,
					"slidercolor" : [ 0.862745, 0.870588, 0.878431, 1.0 ],
					"textcolor" : [ 1.0, 1.0, 1.0, 1.0 ],
					"tribordercolor" : [ 0.956863, 0.666667, 0.92549, 1.0 ],
					"tricolor" : [ 0.956863, 0.666667, 0.92549, 1.0 ],
					"trioncolor" : [ 0.956863, 0.666667, 0.92549, 1.0 ],
					"varname" : "hue"
				}

			}
, 			{
				"box" : 				{
					"id" : "obj-10",
					"maxclass" : "newobj",
					"numinlets" : 1,
					"numoutlets" : 1,
					"outlettype" : [ "" ],
					"patching_rect" : [ 871.0, 414.0, 61.0, 22.0 ],
					"style" : "",
					"text" : "prepend l"
				}

			}
, 			{
				"box" : 				{
					"id" : "obj-7",
					"maxclass" : "newobj",
					"numinlets" : 1,
					"numoutlets" : 1,
					"outlettype" : [ "" ],
					"patching_rect" : [ 803.5, 414.0, 64.0, 22.0 ],
					"style" : "",
					"text" : "prepend s"
				}

			}
, 			{
				"box" : 				{
					"id" : "obj-6",
					"maxclass" : "newobj",
					"numinlets" : 1,
					"numoutlets" : 1,
					"outlettype" : [ "" ],
					"patching_rect" : [ 734.5, 414.0, 65.0, 22.0 ],
					"style" : "",
					"text" : "prepend h"
				}

			}
, 			{
				"box" : 				{
					"bgcolor" : [ 0.956863, 0.666667, 0.92549, 1.0 ],
					"fontface" : 1,
					"fontsize" : 16.0,
					"id" : "obj-47",
					"maxclass" : "comment",
					"numinlets" : 1,
					"numoutlets" : 0,
					"patching_rect" : [ 1042.0, 690.0, 193.0, 24.0 ],
					"presentation" : 1,
					"presentation_rect" : [ 0.0, 0.0, 289.0, 24.0 ],
					"style" : "",
					"text" : "//SCRIBBER",
					"textcolor" : [ 1.0, 1.0, 1.0, 1.0 ],
					"textjustification" : 2
				}

			}
, 			{
				"box" : 				{
					"comment" : "Video texture out",
					"id" : "obj-22",
					"maxclass" : "outlet",
					"numinlets" : 1,
					"numoutlets" : 0,
					"patching_rect" : [ 248.666687, 743.0, 30.0, 30.0 ],
					"style" : ""
				}

			}
, 			{
				"box" : 				{
					"fontface" : 0,
					"fontname" : "Arial",
					"fontsize" : 12.0,
					"id" : "obj-43",
					"maxclass" : "newobj",
					"numinlets" : 1,
					"numoutlets" : 0,
					"patching_rect" : [ 1189.0, 659.0, 77.0, 22.0 ],
					"style" : "",
					"text" : "s getvzbldim"
				}

			}
, 			{
				"box" : 				{
					"fontface" : 0,
					"fontname" : "Arial Bold",
					"fontsize" : 10.0,
					"id" : "obj-46",
					"maxclass" : "newobj",
					"numinlets" : 0,
					"numoutlets" : 1,
					"outlettype" : [ "" ],
					"patching_rect" : [ 1293.666748, 209.5, 54.0, 20.0 ],
					"style" : "",
					"text" : "r vzbldim"
				}

			}
, 			{
				"box" : 				{
					"fontname" : "Arial Bold",
					"fontsize" : 10.0,
					"id" : "obj-48",
					"maxclass" : "newobj",
					"numinlets" : 1,
					"numoutlets" : 2,
					"outlettype" : [ "int", "int" ],
					"patching_rect" : [ 1293.666748, 243.5, 46.0, 20.0 ],
					"style" : "",
					"text" : "unpack"
				}

			}
, 			{
				"box" : 				{
					"fontname" : "Arial",
					"fontsize" : 11.595187,
					"id" : "obj-93",
					"maxclass" : "newobj",
					"numinlets" : 3,
					"numoutlets" : 1,
					"outlettype" : [ "" ],
					"patching_rect" : [ 1252.666748, 299.5, 101.0, 21.0 ],
					"style" : "",
					"text" : "pak dim 640 480"
				}

			}
, 			{
				"box" : 				{
					"fontname" : "Arial Bold",
					"fontsize" : 10.0,
					"id" : "obj-8",
					"maxclass" : "newobj",
					"numinlets" : 2,
					"numoutlets" : 2,
					"outlettype" : [ "jit_gl_texture", "" ],
					"patcher" : 					{
						"fileversion" : 1,
						"appversion" : 						{
							"major" : 7,
							"minor" : 0,
							"revision" : 5,
							"architecture" : "x86",
							"modernui" : 1
						}
,
						"rect" : [ 874.0, 79.0, 772.0, 933.0 ],
						"bgcolor" : [ 0.9, 0.9, 0.9, 1.0 ],
						"editing_bgcolor" : [ 0.9, 0.9, 0.9, 1.0 ],
						"bglocked" : 0,
						"openinpresentation" : 0,
						"default_fontsize" : 12.0,
						"default_fontface" : 0,
						"default_fontname" : "Arial",
						"gridonopen" : 1,
						"gridsize" : [ 15.0, 15.0 ],
						"gridsnaponopen" : 1,
						"objectsnaponopen" : 1,
						"statusbarvisible" : 2,
						"toolbarvisible" : 1,
						"lefttoolbarpinned" : 0,
						"toptoolbarpinned" : 0,
						"righttoolbarpinned" : 0,
						"bottomtoolbarpinned" : 0,
						"toolbars_unpinned_last_save" : 0,
						"tallnewobj" : 0,
						"boxanimatetime" : 200,
						"enablehscroll" : 1,
						"enablevscroll" : 1,
						"devicewidth" : 0.0,
						"description" : "",
						"digest" : "",
						"tags" : "",
						"style" : "",
						"subpatcher_template" : "",
						"boxes" : [ 							{
								"box" : 								{
									"id" : "obj-14",
									"maxclass" : "newobj",
									"numinlets" : 1,
									"numoutlets" : 1,
									"outlettype" : [ "" ],
									"patching_rect" : [ 265.0, 818.0, 55.0, 22.0 ],
									"style" : "",
									"text" : "swiz rgb"
								}

							}
, 							{
								"box" : 								{
									"id" : "obj-13",
									"maxclass" : "newobj",
									"numinlets" : 3,
									"numoutlets" : 1,
									"outlettype" : [ "" ],
									"patching_rect" : [ 279.0, 870.0, 46.0, 22.0 ],
									"style" : "",
									"text" : "concat"
								}

							}
, 							{
								"box" : 								{
									"id" : "obj-12",
									"maxclass" : "newobj",
									"numinlets" : 1,
									"numoutlets" : 1,
									"outlettype" : [ "" ],
									"patching_rect" : [ 333.0, 798.0, 43.0, 22.0 ],
									"style" : "",
									"text" : "vec 1."
								}

							}
, 							{
								"box" : 								{
									"id" : "obj-11",
									"maxclass" : "newobj",
									"numinlets" : 4,
									"numoutlets" : 1,
									"outlettype" : [ "" ],
									"patching_rect" : [ 309.0, 724.0, 83.0, 22.0 ],
									"style" : "",
									"text" : "vec 1. 1. 1. 1."
								}

							}
, 							{
								"box" : 								{
									"id" : "obj-47",
									"maxclass" : "newobj",
									"numinlets" : 2,
									"numoutlets" : 1,
									"outlettype" : [ "" ],
									"patching_rect" : [ 108.0, 432.0, 109.5, 22.0 ],
									"style" : "",
									"text" : "vec 0. 0."
								}

							}
, 							{
								"box" : 								{
									"id" : "obj-46",
									"maxclass" : "newobj",
									"numinlets" : 1,
									"numoutlets" : 1,
									"outlettype" : [ "" ],
									"patching_rect" : [ 198.5, 339.0, 43.0, 22.0 ],
									"style" : "",
									"text" : "swiz y"
								}

							}
, 							{
								"box" : 								{
									"id" : "obj-45",
									"maxclass" : "newobj",
									"numinlets" : 1,
									"numoutlets" : 1,
									"outlettype" : [ "" ],
									"patching_rect" : [ 137.5, 339.0, 43.0, 22.0 ],
									"style" : "",
									"text" : "swiz x"
								}

							}
, 							{
								"box" : 								{
									"id" : "obj-41",
									"maxclass" : "newobj",
									"numinlets" : 2,
									"numoutlets" : 1,
									"outlettype" : [ "" ],
									"patching_rect" : [ 108.0, 376.0, 48.5, 22.0 ],
									"style" : "",
									"text" : "*"
								}

							}
, 							{
								"box" : 								{
									"id" : "obj-40",
									"maxclass" : "newobj",
									"numinlets" : 2,
									"numoutlets" : 1,
									"outlettype" : [ "" ],
									"patching_rect" : [ 108.0, 236.0, 72.5, 22.0 ],
									"style" : "",
									"text" : "/"
								}

							}
, 							{
								"box" : 								{
									"id" : "obj-39",
									"maxclass" : "newobj",
									"numinlets" : 1,
									"numoutlets" : 1,
									"outlettype" : [ "" ],
									"patching_rect" : [ 161.5, 197.0, 43.0, 22.0 ],
									"style" : "",
									"text" : "swiz y"
								}

							}
, 							{
								"box" : 								{
									"id" : "obj-38",
									"maxclass" : "newobj",
									"numinlets" : 1,
									"numoutlets" : 1,
									"outlettype" : [ "" ],
									"patching_rect" : [ 108.0, 167.0, 43.0, 22.0 ],
									"style" : "",
									"text" : "swiz x"
								}

							}
, 							{
								"box" : 								{
									"id" : "obj-37",
									"maxclass" : "newobj",
									"numinlets" : 0,
									"numoutlets" : 1,
									"outlettype" : [ "" ],
									"patching_rect" : [ 108.0, 91.0, 30.0, 22.0 ],
									"style" : "",
									"text" : "dim"
								}

							}
, 							{
								"box" : 								{
									"id" : "obj-36",
									"maxclass" : "newobj",
									"numinlets" : 1,
									"numoutlets" : 1,
									"outlettype" : [ "" ],
									"patching_rect" : [ 108.0, 586.0, 62.0, 22.0 ],
									"style" : "",
									"text" : "< pensize"
								}

							}
, 							{
								"box" : 								{
									"id" : "obj-35",
									"maxclass" : "newobj",
									"numinlets" : 1,
									"numoutlets" : 1,
									"outlettype" : [ "" ],
									"patching_rect" : [ 108.0, 548.0, 43.0, 22.0 ],
									"style" : "",
									"text" : "length"
								}

							}
, 							{
								"box" : 								{
									"id" : "obj-34",
									"maxclass" : "newobj",
									"numinlets" : 0,
									"numoutlets" : 1,
									"outlettype" : [ "" ],
									"patching_rect" : [ 137.5, 279.0, 38.0, 22.0 ],
									"style" : "",
									"text" : "norm"
								}

							}
, 							{
								"box" : 								{
									"id" : "obj-33",
									"maxclass" : "newobj",
									"numinlets" : 2,
									"numoutlets" : 1,
									"outlettype" : [ "" ],
									"patching_rect" : [ 135.0, 475.0, 48.0, 22.0 ],
									"style" : "",
									"text" : "vec x y"
								}

							}
, 							{
								"box" : 								{
									"id" : "obj-32",
									"maxclass" : "newobj",
									"numinlets" : 2,
									"numoutlets" : 1,
									"outlettype" : [ "" ],
									"patching_rect" : [ 108.0, 509.0, 46.0, 22.0 ],
									"style" : "",
									"text" : "absdiff"
								}

							}
, 							{
								"box" : 								{
									"id" : "obj-10",
									"maxclass" : "newobj",
									"numinlets" : 0,
									"numoutlets" : 1,
									"outlettype" : [ "" ],
									"patching_rect" : [ 171.0, 849.0, 30.0, 22.0 ],
									"style" : "",
									"text" : "in 2"
								}

							}
, 							{
								"box" : 								{
									"id" : "obj-9",
									"maxclass" : "newobj",
									"numinlets" : 0,
									"numoutlets" : 1,
									"outlettype" : [ "" ],
									"patching_rect" : [ 406.0, 724.0, 30.0, 22.0 ],
									"style" : "",
									"text" : "in 1"
								}

							}
, 							{
								"box" : 								{
									"id" : "obj-20",
									"maxclass" : "newobj",
									"numinlets" : 3,
									"numoutlets" : 1,
									"outlettype" : [ "" ],
									"patching_rect" : [ 108.0, 889.0, 82.0, 22.0 ],
									"style" : "",
									"text" : "?"
								}

							}
, 							{
								"box" : 								{
									"id" : "obj-17",
									"maxclass" : "newobj",
									"numinlets" : 0,
									"numoutlets" : 1,
									"outlettype" : [ "" ],
									"patching_rect" : [ 452.0, 398.0, 109.0, 22.0 ],
									"style" : "",
									"text" : "param pensize 0.1"
								}

							}
, 							{
								"box" : 								{
									"id" : "obj-8",
									"maxclass" : "newobj",
									"numinlets" : 0,
									"numoutlets" : 1,
									"outlettype" : [ "" ],
									"patching_rect" : [ 452.0, 466.0, 74.0, 22.0 ],
									"style" : "",
									"text" : "param y 0.5"
								}

							}
, 							{
								"box" : 								{
									"id" : "obj-2",
									"maxclass" : "newobj",
									"numinlets" : 0,
									"numoutlets" : 1,
									"outlettype" : [ "" ],
									"patching_rect" : [ 452.0, 432.0, 74.0, 22.0 ],
									"style" : "",
									"text" : "param x 0.5"
								}

							}
, 							{
								"box" : 								{
									"id" : "obj-7",
									"maxclass" : "newobj",
									"numinlets" : 3,
									"numoutlets" : 1,
									"outlettype" : [ "" ],
									"patching_rect" : [ 139.5, 752.0, 69.0, 22.0 ],
									"style" : "",
									"text" : "vec 0. 0. 0."
								}

							}
, 							{
								"box" : 								{
									"id" : "obj-6",
									"maxclass" : "newobj",
									"numinlets" : 1,
									"numoutlets" : 1,
									"outlettype" : [ "" ],
									"patching_rect" : [ 139.5, 804.0, 50.0, 22.0 ],
									"style" : "",
									"text" : "hsl2rgb"
								}

							}
, 							{
								"box" : 								{
									"id" : "obj-5",
									"maxclass" : "newobj",
									"numinlets" : 0,
									"numoutlets" : 1,
									"outlettype" : [ "" ],
									"patching_rect" : [ 189.5, 717.0, 71.0, 22.0 ],
									"style" : "",
									"text" : "param l 0.5"
								}

							}
, 							{
								"box" : 								{
									"id" : "obj-3",
									"maxclass" : "newobj",
									"numinlets" : 0,
									"numoutlets" : 1,
									"outlettype" : [ "" ],
									"patching_rect" : [ 164.5, 681.0, 67.0, 22.0 ],
									"style" : "",
									"text" : "param s 1."
								}

							}
, 							{
								"box" : 								{
									"id" : "obj-1",
									"maxclass" : "newobj",
									"numinlets" : 0,
									"numoutlets" : 1,
									"outlettype" : [ "" ],
									"patching_rect" : [ 141.5, 637.0, 65.0, 22.0 ],
									"style" : "",
									"text" : "param h 0"
								}

							}
, 							{
								"box" : 								{
									"fontname" : "Arial",
									"fontsize" : 12.0,
									"id" : "obj-4",
									"maxclass" : "newobj",
									"numinlets" : 1,
									"numoutlets" : 0,
									"patching_rect" : [ 108.0, 935.0, 37.0, 22.0 ],
									"style" : "",
									"text" : "out 1"
								}

							}
 ],
						"lines" : [ 							{
								"patchline" : 								{
									"destination" : [ "obj-7", 0 ],
									"disabled" : 0,
									"hidden" : 0,
									"source" : [ "obj-1", 0 ]
								}

							}
, 							{
								"patchline" : 								{
									"destination" : [ "obj-20", 2 ],
									"disabled" : 0,
									"hidden" : 0,
									"source" : [ "obj-10", 0 ]
								}

							}
, 							{
								"patchline" : 								{
									"destination" : [ "obj-13", 1 ],
									"disabled" : 0,
									"hidden" : 0,
									"source" : [ "obj-12", 0 ]
								}

							}
, 							{
								"patchline" : 								{
									"destination" : [ "obj-4", 0 ],
									"disabled" : 0,
									"hidden" : 0,
									"source" : [ "obj-13", 0 ]
								}

							}
, 							{
								"patchline" : 								{
									"destination" : [ "obj-13", 0 ],
									"disabled" : 0,
									"hidden" : 0,
									"source" : [ "obj-14", 0 ]
								}

							}
, 							{
								"patchline" : 								{
									"destination" : [ "obj-14", 0 ],
									"disabled" : 0,
									"hidden" : 0,
									"source" : [ "obj-20", 0 ]
								}

							}
, 							{
								"patchline" : 								{
									"destination" : [ "obj-7", 1 ],
									"disabled" : 0,
									"hidden" : 0,
									"source" : [ "obj-3", 0 ]
								}

							}
, 							{
								"patchline" : 								{
									"destination" : [ "obj-35", 0 ],
									"disabled" : 0,
									"hidden" : 0,
									"source" : [ "obj-32", 0 ]
								}

							}
, 							{
								"patchline" : 								{
									"destination" : [ "obj-32", 1 ],
									"disabled" : 0,
									"hidden" : 0,
									"source" : [ "obj-33", 0 ]
								}

							}
, 							{
								"patchline" : 								{
									"destination" : [ "obj-45", 0 ],
									"disabled" : 0,
									"hidden" : 0,
									"source" : [ "obj-34", 0 ]
								}

							}
, 							{
								"patchline" : 								{
									"destination" : [ "obj-46", 0 ],
									"disabled" : 0,
									"hidden" : 0,
									"source" : [ "obj-34", 0 ]
								}

							}
, 							{
								"patchline" : 								{
									"destination" : [ "obj-36", 0 ],
									"disabled" : 0,
									"hidden" : 0,
									"source" : [ "obj-35", 0 ]
								}

							}
, 							{
								"patchline" : 								{
									"destination" : [ "obj-20", 0 ],
									"disabled" : 0,
									"hidden" : 0,
									"source" : [ "obj-36", 0 ]
								}

							}
, 							{
								"patchline" : 								{
									"destination" : [ "obj-38", 0 ],
									"disabled" : 0,
									"hidden" : 0,
									"source" : [ "obj-37", 0 ]
								}

							}
, 							{
								"patchline" : 								{
									"destination" : [ "obj-39", 0 ],
									"disabled" : 0,
									"hidden" : 0,
									"source" : [ "obj-37", 0 ]
								}

							}
, 							{
								"patchline" : 								{
									"destination" : [ "obj-40", 0 ],
									"disabled" : 0,
									"hidden" : 0,
									"source" : [ "obj-38", 0 ]
								}

							}
, 							{
								"patchline" : 								{
									"destination" : [ "obj-40", 1 ],
									"disabled" : 0,
									"hidden" : 0,
									"source" : [ "obj-39", 0 ]
								}

							}
, 							{
								"patchline" : 								{
									"destination" : [ "obj-41", 0 ],
									"disabled" : 0,
									"hidden" : 0,
									"source" : [ "obj-40", 0 ]
								}

							}
, 							{
								"patchline" : 								{
									"destination" : [ "obj-47", 0 ],
									"disabled" : 0,
									"hidden" : 0,
									"source" : [ "obj-41", 0 ]
								}

							}
, 							{
								"patchline" : 								{
									"destination" : [ "obj-41", 1 ],
									"disabled" : 0,
									"hidden" : 0,
									"source" : [ "obj-45", 0 ]
								}

							}
, 							{
								"patchline" : 								{
									"destination" : [ "obj-47", 1 ],
									"disabled" : 0,
									"hidden" : 0,
									"source" : [ "obj-46", 0 ]
								}

							}
, 							{
								"patchline" : 								{
									"destination" : [ "obj-32", 0 ],
									"disabled" : 0,
									"hidden" : 0,
									"source" : [ "obj-47", 0 ]
								}

							}
, 							{
								"patchline" : 								{
									"destination" : [ "obj-7", 2 ],
									"disabled" : 0,
									"hidden" : 0,
									"source" : [ "obj-5", 0 ]
								}

							}
, 							{
								"patchline" : 								{
									"destination" : [ "obj-20", 1 ],
									"disabled" : 0,
									"hidden" : 0,
									"source" : [ "obj-6", 0 ]
								}

							}
, 							{
								"patchline" : 								{
									"destination" : [ "obj-6", 0 ],
									"disabled" : 0,
									"hidden" : 0,
									"source" : [ "obj-7", 0 ]
								}

							}
 ],
						"styles" : [ 							{
								"name" : "comment001",
								"default" : 								{
									"fontname" : [ "Arial Bold" ],
									"textcolor" : [ 0.301961, 0.701961, 0.301961, 1.0 ],
									"textjustification" : [ 2 ],
									"fontsize" : [ 10.0 ]
								}
,
								"parentstyle" : "",
								"multi" : 0
							}
, 							{
								"name" : "style test",
								"default" : 								{
									"accentcolor" : [ 0.784314, 0.145098, 0.023529, 1.0 ],
									"elementcolor" : [ 0.784314, 0.145098, 0.023529, 1.0 ],
									"bgcolor" : [ 0.290196, 0.309804, 0.301961, 1.0 ],
									"color" : [ 0.960784, 0.827451, 0.156863, 1.0 ]
								}
,
								"parentstyle" : "",
								"multi" : 0
							}
, 							{
								"name" : "vb green",
								"button" : 								{
									"elementcolor" : [ 0.862745, 0.870588, 0.878431, 1.0 ],
									"bgcolor" : [ 0.65098, 0.666667, 0.662745, 1.0 ],
									"color" : [ 0.701961, 0.811765, 0.301961, 1.0 ]
								}
,
								"umenu" : 								{
									"elementcolor" : [ 0.701961, 0.811765, 0.301961, 1.0 ],
									"textcolor_inverse" : [ 0.6, 0.6, 0.6, 1.0 ],
									"color" : [ 0.701961, 0.811765, 0.301961, 1.0 ],
									"bgfillcolor" : 									{
										"type" : "color",
										"color1" : [ 0.862745, 0.870588, 0.878431, 1.0 ],
										"color2" : [ 0.290196, 0.309804, 0.301961, 1.0 ],
										"color" : [ 0.862745, 0.870588, 0.878431, 1.0 ],
										"angle" : 270.0,
										"proportion" : 0.39,
										"autogradient" : 0
									}
,
									"fontface" : [ 1 ],
									"fontsize" : [ 10.0 ]
								}
,
								"textbutton" : 								{
									"bgcolor" : [ 0.701961, 0.811765, 0.301961, 1.0 ],
									"selectioncolor" : [ 0.701961, 0.811765, 0.301961, 1.0 ],
									"color" : [ 1.0, 1.0, 1.0, 1.0 ],
									"fontface" : [ 1 ],
									"fontsize" : [ 16.0 ],
									"centerjust" : [ 2 ]
								}
,
								"comment" : 								{
									"textcolor" : [ 0.6, 0.6, 0.6, 1.0 ],
									"fontface" : [ 1 ]
								}
,
								"panel" : 								{
									"bgfillcolor" : 									{
										"type" : "color",
										"color1" : [ 0.376471, 0.384314, 0.4, 1.0 ],
										"color2" : [ 0.290196, 0.309804, 0.301961, 1.0 ],
										"color" : [ 0.647059, 0.666667, 0.658824, 1.0 ],
										"angle" : 270.0,
										"proportion" : 0.39
									}

								}
,
								"parentstyle" : "",
								"multi" : 1
							}
, 							{
								"name" : "vb pink",
								"textbutton" : 								{
									"bgcolor" : [ 0.956863, 0.666667, 0.92549, 1.0 ],
									"selectioncolor" : [ 0.956863, 0.666667, 0.92549, 1.0 ]
								}
,
								"button" : 								{
									"color" : [ 0.956863, 0.666667, 0.92549, 1.0 ]
								}
,
								"umenu" : 								{
									"color" : [ 0.956863, 0.666667, 0.92549, 1.0 ]
								}
,
								"parentstyle" : "vb purple",
								"multi" : 1
							}
, 							{
								"name" : "vb pink-1",
								"textbutton" : 								{
									"bgcolor" : [ 0.956863, 0.666667, 0.92549, 1.0 ],
									"selectioncolor" : [ 0.956863, 0.666667, 0.92549, 1.0 ]
								}
,
								"button" : 								{
									"color" : [ 0.956863, 0.666667, 0.92549, 1.0 ]
								}
,
								"umenu" : 								{
									"color" : [ 0.956863, 0.666667, 0.92549, 1.0 ]
								}
,
								"parentstyle" : "",
								"multi" : 0
							}
, 							{
								"name" : "vb purple",
								"button" : 								{
									"elementcolor" : [ 0.862745, 0.870588, 0.878431, 1.0 ],
									"bgcolor" : [ 0.65098, 0.666667, 0.662745, 1.0 ],
									"color" : [ 0.54902, 0.584314, 0.705882, 1.0 ]
								}
,
								"umenu" : 								{
									"elementcolor" : [ 0.54902, 0.584314, 0.705882, 1.0 ],
									"textcolor_inverse" : [ 0.6, 0.6, 0.6, 1.0 ],
									"color" : [ 0.54902, 0.584314, 0.705882, 1.0 ],
									"bgfillcolor" : 									{
										"type" : "color",
										"color1" : [ 0.862745, 0.870588, 0.878431, 1.0 ],
										"color2" : [ 0.290196, 0.309804, 0.301961, 1.0 ],
										"color" : [ 0.862745, 0.870588, 0.878431, 1.0 ],
										"angle" : 270.0,
										"proportion" : 0.39,
										"autogradient" : 0
									}
,
									"fontface" : [ 1 ],
									"fontsize" : [ 10.0 ]
								}
,
								"textbutton" : 								{
									"bgcolor" : [ 0.54902, 0.584314, 0.705882, 1.0 ],
									"selectioncolor" : [ 0.54902, 0.584314, 0.705882, 1.0 ],
									"color" : [ 1.0, 1.0, 1.0, 1.0 ],
									"fontface" : [ 1 ],
									"fontsize" : [ 16.0 ],
									"centerjust" : [ 2 ]
								}
,
								"comment" : 								{
									"textcolor" : [ 0.6, 0.6, 0.6, 1.0 ],
									"fontface" : [ 1 ]
								}
,
								"panel" : 								{
									"bgfillcolor" : 									{
										"type" : "color",
										"color1" : [ 0.376471, 0.384314, 0.4, 1.0 ],
										"color2" : [ 0.290196, 0.309804, 0.301961, 1.0 ],
										"color" : [ 0.647059, 0.666667, 0.658824, 1.0 ],
										"angle" : 270.0,
										"proportion" : 0.39
									}

								}
,
								"parentstyle" : "",
								"multi" : 1
							}
, 							{
								"name" : "vb purple-1",
								"button" : 								{
									"elementcolor" : [ 0.862745, 0.870588, 0.878431, 1.0 ],
									"bgcolor" : [ 0.65098, 0.666667, 0.662745, 1.0 ],
									"color" : [ 0.54902, 0.584314, 0.705882, 1.0 ]
								}
,
								"umenu" : 								{
									"elementcolor" : [ 0.54902, 0.584314, 0.705882, 1.0 ],
									"textcolor_inverse" : [ 0.6, 0.6, 0.6, 1.0 ],
									"color" : [ 0.54902, 0.584314, 0.705882, 1.0 ],
									"bgfillcolor" : 									{
										"type" : "color",
										"color1" : [ 0.862745, 0.870588, 0.878431, 1.0 ],
										"color2" : [ 0.290196, 0.309804, 0.301961, 1.0 ],
										"color" : [ 0.862745, 0.870588, 0.878431, 1.0 ],
										"angle" : 270.0,
										"proportion" : 0.39,
										"autogradient" : 0
									}
,
									"fontface" : [ 1 ],
									"fontsize" : [ 10.0 ]
								}
,
								"textbutton" : 								{
									"bgcolor" : [ 0.54902, 0.584314, 0.705882, 1.0 ],
									"selectioncolor" : [ 0.54902, 0.584314, 0.705882, 1.0 ],
									"color" : [ 1.0, 1.0, 1.0, 1.0 ],
									"fontface" : [ 1 ],
									"fontsize" : [ 16.0 ],
									"centerjust" : [ 2 ]
								}
,
								"comment" : 								{
									"textcolor" : [ 0.6, 0.6, 0.6, 1.0 ],
									"fontface" : [ 1 ]
								}
,
								"panel" : 								{
									"bgfillcolor" : 									{
										"type" : "color",
										"color1" : [ 0.376471, 0.384314, 0.4, 1.0 ],
										"color2" : [ 0.290196, 0.309804, 0.301961, 1.0 ],
										"color" : [ 0.647059, 0.666667, 0.658824, 1.0 ],
										"angle" : 270.0,
										"proportion" : 0.39
									}

								}
,
								"parentstyle" : "",
								"multi" : 0
							}
, 							{
								"name" : "vbio",
								"parentstyle" : "",
								"multi" : 0
							}
 ]
					}
,
					"patching_rect" : [ 248.666687, 665.0, 71.0, 20.0 ],
					"style" : "",
					"text" : "jit.gl.pix vzbl"
				}

			}
, 			{
				"box" : 				{
					"fontname" : "Arial Bold",
					"fontsize" : 10.0,
					"id" : "obj-41",
					"maxclass" : "newobj",
					"numinlets" : 1,
					"numoutlets" : 3,
					"outlettype" : [ "bang", "int", "int" ],
					"patching_rect" : [ 1096.0, 604.0, 79.0, 20.0 ],
					"style" : "",
					"text" : "live.thisdevice"
				}

			}
, 			{
				"box" : 				{
					"angle" : 0.0,
					"bgcolor" : [ 0.65098, 0.666667, 0.662745, 1.0 ],
					"horizontal_direction" : 1,
					"id" : "obj-1",
					"maxclass" : "panel",
					"mode" : 0,
					"numinlets" : 1,
					"numoutlets" : 0,
					"patching_rect" : [ 1042.0, 587.0, 305.0, 283.0 ],
					"presentation" : 1,
					"presentation_rect" : [ 0.0, 0.0, 289.0, 129.0 ],
					"proportion" : 0.39,
					"rounded" : 10,
					"style" : "",
					"varname" : "background"
				}

			}
 ],
		"lines" : [ 			{
				"patchline" : 				{
					"destination" : [ "obj-20", 0 ],
					"disabled" : 0,
					"hidden" : 0,
					"source" : [ "obj-10", 0 ]
				}

			}
, 			{
				"patchline" : 				{
					"destination" : [ "obj-18", 0 ],
					"disabled" : 0,
					"hidden" : 0,
					"source" : [ "obj-11", 0 ]
				}

			}
, 			{
				"patchline" : 				{
					"destination" : [ "obj-35", 0 ],
					"disabled" : 0,
					"hidden" : 0,
					"source" : [ "obj-118", 0 ]
				}

			}
, 			{
				"patchline" : 				{
					"destination" : [ "obj-10", 0 ],
					"disabled" : 0,
					"hidden" : 0,
					"source" : [ "obj-12", 0 ]
				}

			}
, 			{
				"patchline" : 				{
					"destination" : [ "obj-6", 0 ],
					"disabled" : 0,
					"hidden" : 0,
					"source" : [ "obj-121", 0 ]
				}

			}
, 			{
				"patchline" : 				{
					"destination" : [ "obj-11", 0 ],
					"disabled" : 0,
					"hidden" : 0,
					"source" : [ "obj-122", 0 ]
				}

			}
, 			{
				"patchline" : 				{
					"destination" : [ "obj-7", 0 ],
					"disabled" : 0,
					"hidden" : 0,
					"source" : [ "obj-13", 0 ]
				}

			}
, 			{
				"patchline" : 				{
					"destination" : [ "obj-18", 0 ],
					"disabled" : 0,
					"hidden" : 0,
					"source" : [ "obj-14", 0 ]
				}

			}
, 			{
				"patchline" : 				{
					"destination" : [ "obj-18", 0 ],
					"disabled" : 0,
					"hidden" : 0,
					"source" : [ "obj-16", 0 ]
				}

			}
, 			{
				"patchline" : 				{
					"destination" : [ "obj-8", 0 ],
					"disabled" : 0,
					"hidden" : 0,
					"source" : [ "obj-17", 0 ]
				}

			}
, 			{
				"patchline" : 				{
					"destination" : [ "obj-8", 0 ],
					"disabled" : 0,
					"hidden" : 0,
					"source" : [ "obj-2", 0 ]
				}

			}
, 			{
				"patchline" : 				{
					"destination" : [ "obj-16", 0 ],
					"disabled" : 0,
					"hidden" : 0,
					"source" : [ "obj-21", 0 ]
				}

			}
, 			{
				"patchline" : 				{
					"destination" : [ "obj-24", 0 ],
					"disabled" : 0,
					"hidden" : 0,
					"source" : [ "obj-23", 0 ]
				}

			}
, 			{
				"patchline" : 				{
					"destination" : [ "obj-29", 0 ],
					"disabled" : 0,
					"hidden" : 0,
					"source" : [ "obj-24", 0 ]
				}

			}
, 			{
				"patchline" : 				{
					"destination" : [ "obj-28", 0 ],
					"disabled" : 0,
					"hidden" : 0,
					"source" : [ "obj-25", 0 ]
				}

			}
, 			{
				"patchline" : 				{
					"destination" : [ "obj-27", 0 ],
					"disabled" : 0,
					"hidden" : 0,
					"source" : [ "obj-26", 0 ]
				}

			}
, 			{
				"patchline" : 				{
					"destination" : [ "obj-29", 0 ],
					"disabled" : 0,
					"hidden" : 0,
					"source" : [ "obj-27", 0 ]
				}

			}
, 			{
				"patchline" : 				{
					"destination" : [ "obj-29", 0 ],
					"disabled" : 0,
					"hidden" : 0,
					"source" : [ "obj-28", 0 ]
				}

			}
, 			{
				"patchline" : 				{
					"destination" : [ "obj-31", 0 ],
					"disabled" : 0,
					"hidden" : 0,
					"source" : [ "obj-3", 0 ]
				}

			}
, 			{
				"patchline" : 				{
					"destination" : [ "obj-5", 0 ],
					"disabled" : 0,
					"hidden" : 0,
					"source" : [ "obj-30", 0 ]
				}

			}
, 			{
				"patchline" : 				{
					"destination" : [ "obj-49", 0 ],
					"disabled" : 0,
					"hidden" : 0,
					"source" : [ "obj-31", 0 ]
				}

			}
, 			{
				"patchline" : 				{
					"destination" : [ "obj-1", 0 ],
					"disabled" : 0,
					"hidden" : 0,
					"source" : [ "obj-33", 1 ]
				}

			}
, 			{
				"patchline" : 				{
					"destination" : [ "obj-75", 0 ],
					"disabled" : 0,
					"hidden" : 0,
					"source" : [ "obj-34", 0 ]
				}

			}
, 			{
				"patchline" : 				{
					"destination" : [ "obj-33", 0 ],
					"disabled" : 0,
					"hidden" : 0,
					"source" : [ "obj-36", 0 ]
				}

			}
, 			{
				"patchline" : 				{
					"destination" : [ "obj-14", 0 ],
					"disabled" : 0,
					"hidden" : 0,
					"source" : [ "obj-4", 0 ]
				}

			}
, 			{
				"patchline" : 				{
					"destination" : [ "obj-15", 0 ],
					"disabled" : 0,
					"hidden" : 0,
					"source" : [ "obj-41", 0 ]
				}

			}
, 			{
				"patchline" : 				{
					"destination" : [ "obj-43", 0 ],
					"disabled" : 0,
					"hidden" : 0,
					"source" : [ "obj-41", 0 ]
				}

			}
, 			{
				"patchline" : 				{
					"destination" : [ "obj-3", 0 ],
					"disabled" : 0,
					"hidden" : 0,
					"source" : [ "obj-45", 0 ]
				}

			}
, 			{
				"patchline" : 				{
					"destination" : [ "obj-48", 0 ],
					"disabled" : 0,
					"hidden" : 0,
					"source" : [ "obj-46", 0 ]
				}

			}
, 			{
				"patchline" : 				{
					"destination" : [ "obj-93", 2 ],
					"disabled" : 0,
					"hidden" : 0,
					"source" : [ "obj-48", 1 ]
				}

			}
, 			{
				"patchline" : 				{
					"destination" : [ "obj-93", 1 ],
					"disabled" : 0,
					"hidden" : 0,
					"source" : [ "obj-48", 0 ]
				}

			}
, 			{
				"patchline" : 				{
					"destination" : [ "obj-8", 1 ],
					"disabled" : 0,
					"hidden" : 0,
					"midpoints" : [ 360.166687, 713.0, 440.0, 713.0, 440.0, 636.0, 310.166687, 636.0 ],
					"source" : [ "obj-5", 0 ]
				}

			}
, 			{
				"patchline" : 				{
					"destination" : [ "obj-20", 0 ],
					"disabled" : 0,
					"hidden" : 0,
					"source" : [ "obj-6", 0 ]
				}

			}
, 			{
				"patchline" : 				{
					"destination" : [ "obj-20", 0 ],
					"disabled" : 0,
					"hidden" : 0,
					"source" : [ "obj-7", 0 ]
				}

			}
, 			{
				"patchline" : 				{
					"destination" : [ "obj-31", 0 ],
					"disabled" : 0,
					"hidden" : 0,
					"source" : [ "obj-75", 0 ]
				}

			}
, 			{
				"patchline" : 				{
					"destination" : [ "obj-22", 0 ],
					"disabled" : 0,
					"hidden" : 0,
					"source" : [ "obj-8", 0 ]
				}

			}
, 			{
				"patchline" : 				{
					"destination" : [ "obj-5", 0 ],
					"disabled" : 0,
					"hidden" : 0,
					"midpoints" : [ 258.166687, 699.0, 330.0, 699.0, 330.0, 651.0, 360.166687, 651.0 ],
					"source" : [ "obj-8", 0 ]
				}

			}
, 			{
				"patchline" : 				{
					"destination" : [ "obj-21", 0 ],
					"disabled" : 0,
					"hidden" : 0,
					"source" : [ "obj-9", 0 ]
				}

			}
, 			{
				"patchline" : 				{
					"destination" : [ "obj-19", 0 ],
					"disabled" : 0,
					"hidden" : 0,
					"source" : [ "obj-93", 0 ]
				}

			}
 ],
		"parameters" : 		{
			"obj-13" : [ "saturation", "saturation", 0 ],
			"obj-9" : [ "pen size", "pen size", 0 ],
			"obj-4" : [ "y", "y", 0 ],
			"obj-26" : [ "xoffset", "xoffset", 0 ],
			"obj-12" : [ "lightness", "lightness", 0 ],
			"obj-25" : [ "yoffset", "yoffset", 0 ],
			"obj-121" : [ "hue", "hue", 0 ],
			"obj-23" : [ "erase", "erase", 0 ],
			"obj-122" : [ "x", "x", 0 ]
		}
,
		"dependency_cache" : [ 			{
				"name" : "vzbl.windowresize.js",
				"bootpath" : "~/ZEAL/Patches and Presets/Max/VIZZABLE/VIZZable-3/scripts",
				"type" : "TEXT",
				"implicit" : 1
			}
 ],
		"embedsnapshot" : 0,
		"styles" : [ 			{
				"name" : "comment001",
				"default" : 				{
					"fontname" : [ "Arial Bold" ],
					"textcolor" : [ 0.301961, 0.701961, 0.301961, 1.0 ],
					"textjustification" : [ 2 ],
					"fontsize" : [ 10.0 ]
				}
,
				"parentstyle" : "",
				"multi" : 0
			}
, 			{
				"name" : "style test",
				"default" : 				{
					"accentcolor" : [ 0.784314, 0.145098, 0.023529, 1.0 ],
					"elementcolor" : [ 0.784314, 0.145098, 0.023529, 1.0 ],
					"bgcolor" : [ 0.290196, 0.309804, 0.301961, 1.0 ],
					"color" : [ 0.960784, 0.827451, 0.156863, 1.0 ]
				}
,
				"parentstyle" : "",
				"multi" : 0
			}
, 			{
				"name" : "vb green",
				"button" : 				{
					"elementcolor" : [ 0.862745, 0.870588, 0.878431, 1.0 ],
					"bgcolor" : [ 0.65098, 0.666667, 0.662745, 1.0 ],
					"color" : [ 0.701961, 0.811765, 0.301961, 1.0 ]
				}
,
				"umenu" : 				{
					"elementcolor" : [ 0.701961, 0.811765, 0.301961, 1.0 ],
					"textcolor_inverse" : [ 0.6, 0.6, 0.6, 1.0 ],
					"color" : [ 0.701961, 0.811765, 0.301961, 1.0 ],
					"bgfillcolor" : 					{
						"type" : "color",
						"color1" : [ 0.862745, 0.870588, 0.878431, 1.0 ],
						"color2" : [ 0.290196, 0.309804, 0.301961, 1.0 ],
						"color" : [ 0.862745, 0.870588, 0.878431, 1.0 ],
						"angle" : 270.0,
						"proportion" : 0.39,
						"autogradient" : 0
					}
,
					"fontface" : [ 1 ],
					"fontsize" : [ 10.0 ]
				}
,
				"textbutton" : 				{
					"bgcolor" : [ 0.701961, 0.811765, 0.301961, 1.0 ],
					"selectioncolor" : [ 0.701961, 0.811765, 0.301961, 1.0 ],
					"color" : [ 1.0, 1.0, 1.0, 1.0 ],
					"fontface" : [ 1 ],
					"fontsize" : [ 16.0 ],
					"centerjust" : [ 2 ]
				}
,
				"comment" : 				{
					"textcolor" : [ 0.6, 0.6, 0.6, 1.0 ],
					"fontface" : [ 1 ]
				}
,
				"panel" : 				{
					"bgfillcolor" : 					{
						"type" : "color",
						"color1" : [ 0.376471, 0.384314, 0.4, 1.0 ],
						"color2" : [ 0.290196, 0.309804, 0.301961, 1.0 ],
						"color" : [ 0.647059, 0.666667, 0.658824, 1.0 ],
						"angle" : 270.0,
						"proportion" : 0.39
					}

				}
,
				"parentstyle" : "",
				"multi" : 1
			}
, 			{
				"name" : "vb pink",
				"textbutton" : 				{
					"bgcolor" : [ 0.956863, 0.666667, 0.92549, 1.0 ],
					"selectioncolor" : [ 0.956863, 0.666667, 0.92549, 1.0 ]
				}
,
				"button" : 				{
					"color" : [ 0.956863, 0.666667, 0.92549, 1.0 ]
				}
,
				"umenu" : 				{
					"color" : [ 0.956863, 0.666667, 0.92549, 1.0 ]
				}
,
				"parentstyle" : "vb purple",
				"multi" : 1
			}
, 			{
				"name" : "vb pink-1",
				"textbutton" : 				{
					"bgcolor" : [ 0.956863, 0.666667, 0.92549, 1.0 ],
					"selectioncolor" : [ 0.956863, 0.666667, 0.92549, 1.0 ]
				}
,
				"button" : 				{
					"color" : [ 0.956863, 0.666667, 0.92549, 1.0 ]
				}
,
				"umenu" : 				{
					"color" : [ 0.956863, 0.666667, 0.92549, 1.0 ]
				}
,
				"parentstyle" : "",
				"multi" : 0
			}
, 			{
				"name" : "vb purple",
				"button" : 				{
					"elementcolor" : [ 0.862745, 0.870588, 0.878431, 1.0 ],
					"bgcolor" : [ 0.65098, 0.666667, 0.662745, 1.0 ],
					"color" : [ 0.54902, 0.584314, 0.705882, 1.0 ]
				}
,
				"umenu" : 				{
					"elementcolor" : [ 0.54902, 0.584314, 0.705882, 1.0 ],
					"textcolor_inverse" : [ 0.6, 0.6, 0.6, 1.0 ],
					"color" : [ 0.54902, 0.584314, 0.705882, 1.0 ],
					"bgfillcolor" : 					{
						"type" : "color",
						"color1" : [ 0.862745, 0.870588, 0.878431, 1.0 ],
						"color2" : [ 0.290196, 0.309804, 0.301961, 1.0 ],
						"color" : [ 0.862745, 0.870588, 0.878431, 1.0 ],
						"angle" : 270.0,
						"proportion" : 0.39,
						"autogradient" : 0
					}
,
					"fontface" : [ 1 ],
					"fontsize" : [ 10.0 ]
				}
,
				"textbutton" : 				{
					"bgcolor" : [ 0.54902, 0.584314, 0.705882, 1.0 ],
					"selectioncolor" : [ 0.54902, 0.584314, 0.705882, 1.0 ],
					"color" : [ 1.0, 1.0, 1.0, 1.0 ],
					"fontface" : [ 1 ],
					"fontsize" : [ 16.0 ],
					"centerjust" : [ 2 ]
				}
,
				"comment" : 				{
					"textcolor" : [ 0.6, 0.6, 0.6, 1.0 ],
					"fontface" : [ 1 ]
				}
,
				"panel" : 				{
					"bgfillcolor" : 					{
						"type" : "color",
						"color1" : [ 0.376471, 0.384314, 0.4, 1.0 ],
						"color2" : [ 0.290196, 0.309804, 0.301961, 1.0 ],
						"color" : [ 0.647059, 0.666667, 0.658824, 1.0 ],
						"angle" : 270.0,
						"proportion" : 0.39
					}

				}
,
				"parentstyle" : "",
				"multi" : 1
			}
, 			{
				"name" : "vb purple-1",
				"button" : 				{
					"elementcolor" : [ 0.862745, 0.870588, 0.878431, 1.0 ],
					"bgcolor" : [ 0.65098, 0.666667, 0.662745, 1.0 ],
					"color" : [ 0.54902, 0.584314, 0.705882, 1.0 ]
				}
,
				"umenu" : 				{
					"elementcolor" : [ 0.54902, 0.584314, 0.705882, 1.0 ],
					"textcolor_inverse" : [ 0.6, 0.6, 0.6, 1.0 ],
					"color" : [ 0.54902, 0.584314, 0.705882, 1.0 ],
					"bgfillcolor" : 					{
						"type" : "color",
						"color1" : [ 0.862745, 0.870588, 0.878431, 1.0 ],
						"color2" : [ 0.290196, 0.309804, 0.301961, 1.0 ],
						"color" : [ 0.862745, 0.870588, 0.878431, 1.0 ],
						"angle" : 270.0,
						"proportion" : 0.39,
						"autogradient" : 0
					}
,
					"fontface" : [ 1 ],
					"fontsize" : [ 10.0 ]
				}
,
				"textbutton" : 				{
					"bgcolor" : [ 0.54902, 0.584314, 0.705882, 1.0 ],
					"selectioncolor" : [ 0.54902, 0.584314, 0.705882, 1.0 ],
					"color" : [ 1.0, 1.0, 1.0, 1.0 ],
					"fontface" : [ 1 ],
					"fontsize" : [ 16.0 ],
					"centerjust" : [ 2 ]
				}
,
				"comment" : 				{
					"textcolor" : [ 0.6, 0.6, 0.6, 1.0 ],
					"fontface" : [ 1 ]
				}
,
				"panel" : 				{
					"bgfillcolor" : 					{
						"type" : "color",
						"color1" : [ 0.376471, 0.384314, 0.4, 1.0 ],
						"color2" : [ 0.290196, 0.309804, 0.301961, 1.0 ],
						"color" : [ 0.647059, 0.666667, 0.658824, 1.0 ],
						"angle" : 270.0,
						"proportion" : 0.39
					}

				}
,
				"parentstyle" : "",
				"multi" : 0
			}
, 			{
				"name" : "vbio",
				"parentstyle" : "",
				"multi" : 0
			}
 ]
	}

}
