{
	"patcher" : 	{
		"fileversion" : 1,
		"appversion" : 		{
			"major" : 7,
			"minor" : 0,
			"revision" : 5,
			"architecture" : "x86",
			"modernui" : 1
		}
,
		"rect" : [ 34.0, 79.0, 1612.0, 933.0 ],
		"bglocked" : 0,
		"openinpresentation" : 1,
		"default_fontsize" : 12.0,
		"default_fontface" : 0,
		"default_fontname" : "Arial",
		"gridonopen" : 1,
		"gridsize" : [ 15.0, 15.0 ],
		"gridsnaponopen" : 1,
		"objectsnaponopen" : 1,
		"statusbarvisible" : 2,
		"toolbarvisible" : 1,
		"lefttoolbarpinned" : 0,
		"toptoolbarpinned" : 0,
		"righttoolbarpinned" : 0,
		"bottomtoolbarpinned" : 0,
		"toolbars_unpinned_last_save" : 0,
		"tallnewobj" : 0,
		"boxanimatetime" : 200,
		"enablehscroll" : 1,
		"enablevscroll" : 1,
		"devicewidth" : 0.0,
		"description" : "",
		"digest" : "",
		"tags" : "",
		"style" : "",
		"subpatcher_template" : "",
		"boxes" : [ 			{
				"box" : 				{
					"fontface" : 1,
					"fontsize" : 10.0,
					"id" : "obj-26",
					"maxclass" : "comment",
					"numinlets" : 1,
					"numoutlets" : 0,
					"patching_rect" : [ 158.5, 61.0, 36.0, 18.0 ],
					"presentation" : 1,
					"presentation_rect" : [ 68.860123, 28.944939, 51.720245, 18.0 ],
					"style" : "",
					"text" : "mode",
					"textcolor" : [ 1.0, 1.0, 1.0, 1.0 ]
				}

			}
, 			{
				"box" : 				{
					"fontface" : 1,
					"fontsize" : 10.0,
					"id" : "obj-25",
					"linecount" : 2,
					"maxclass" : "comment",
					"numinlets" : 1,
					"numoutlets" : 0,
					"patching_rect" : [ 618.0, 681.5, 36.0, 29.0 ],
					"presentation" : 1,
					"presentation_rect" : [ 5.0, 88.375, 56.0, 18.0 ],
					"style" : "",
					"text" : "address",
					"textcolor" : [ 1.0, 1.0, 1.0, 1.0 ]
				}

			}
, 			{
				"box" : 				{
					"id" : "obj-22",
					"maxclass" : "newobj",
					"numinlets" : 0,
					"numoutlets" : 1,
					"outlettype" : [ "" ],
					"patching_rect" : [ 339.299988, 227.5, 85.0, 22.0 ],
					"style" : "",
					"text" : "r #0-loadbang"
				}

			}
, 			{
				"box" : 				{
					"id" : "obj-23",
					"maxclass" : "newobj",
					"numinlets" : 0,
					"numoutlets" : 1,
					"outlettype" : [ "" ],
					"patching_rect" : [ 435.449158, 227.5, 103.0, 22.0 ],
					"style" : "",
					"text" : "r #0-messagesin"
				}

			}
, 			{
				"box" : 				{
					"id" : "obj-24",
					"maxclass" : "newobj",
					"numinlets" : 2,
					"numoutlets" : 2,
					"outlettype" : [ "", "" ],
					"patching_rect" : [ 435.449158, 272.0, 74.0, 22.0 ],
					"style" : "",
					"text" : "route speed"
				}

			}
, 			{
				"box" : 				{
					"id" : "obj-21",
					"maxclass" : "newobj",
					"numinlets" : 0,
					"numoutlets" : 1,
					"outlettype" : [ "" ],
					"patching_rect" : [ 752.0, 614.5, 85.0, 22.0 ],
					"style" : "",
					"text" : "r #0-loadbang"
				}

			}
, 			{
				"box" : 				{
					"id" : "obj-18",
					"maxclass" : "newobj",
					"numinlets" : 0,
					"numoutlets" : 1,
					"outlettype" : [ "" ],
					"patching_rect" : [ 435.0, 622.0, 85.0, 22.0 ],
					"style" : "",
					"text" : "r #0-loadbang"
				}

			}
, 			{
				"box" : 				{
					"id" : "obj-17",
					"maxclass" : "newobj",
					"numinlets" : 6,
					"numoutlets" : 1,
					"outlettype" : [ "" ],
					"patching_rect" : [ 400.0, 763.0, 92.0, 22.0 ],
					"style" : "",
					"text" : "scale 0. 1. 0. 1."
				}

			}
, 			{
				"box" : 				{
					"id" : "obj-8",
					"maxclass" : "newobj",
					"numinlets" : 2,
					"numoutlets" : 1,
					"outlettype" : [ "float" ],
					"patching_rect" : [ 328.799988, 366.0, 29.5, 22.0 ],
					"style" : "",
					"text" : "* 1."
				}

			}
, 			{
				"box" : 				{
					"fontface" : 1,
					"fontsize" : 10.0,
					"id" : "obj-3",
					"maxclass" : "comment",
					"numinlets" : 1,
					"numoutlets" : 0,
					"patching_rect" : [ 519.799988, 720.5, 36.0, 18.0 ],
					"presentation" : 1,
					"presentation_rect" : [ 130.580368, 88.375, 36.0, 18.0 ],
					"style" : "",
					"text" : "max",
					"textcolor" : [ 1.0, 1.0, 1.0, 1.0 ]
				}

			}
, 			{
				"box" : 				{
					"activebgcolor" : [ 0.862745, 0.870588, 0.878431, 1.0 ],
					"bordercolor" : [ 0.196078, 0.196078, 0.196078, 0.0 ],
					"focusbordercolor" : [ 0.956863, 0.666667, 0.92549, 1.0 ],
					"id" : "obj-4",
					"maxclass" : "live.numbox",
					"numinlets" : 1,
					"numoutlets" : 2,
					"outlettype" : [ "", "float" ],
					"parameter_enable" : 1,
					"patching_rect" : [ 481.799988, 720.5, 36.0, 15.0 ],
					"presentation" : 1,
					"presentation_rect" : [ 130.580368, 108.375, 36.0, 15.0 ],
					"saved_attribute_attributes" : 					{
						"valueof" : 						{
							"parameter_linknames" : 1,
							"parameter_longname" : "max",
							"parameter_shortname" : "max",
							"parameter_type" : 0,
							"parameter_mmin" : -999.0,
							"parameter_mmax" : 999.0,
							"parameter_initial_enable" : 1,
							"parameter_initial" : [ 1.0 ],
							"parameter_unitstyle" : 1,
							"parameter_speedlim" : 16.0,
							"parameter_defer" : 1
						}

					}
,
					"textcolor" : [ 0.6, 0.6, 0.6, 1.0 ],
					"varname" : "max"
				}

			}
, 			{
				"box" : 				{
					"fontface" : 1,
					"fontsize" : 10.0,
					"id" : "obj-2",
					"maxclass" : "comment",
					"numinlets" : 1,
					"numoutlets" : 0,
					"patching_rect" : [ 405.799988, 720.5, 36.0, 18.0 ],
					"presentation" : 1,
					"presentation_rect" : [ 92.580368, 88.375, 36.0, 18.0 ],
					"style" : "",
					"text" : "min",
					"textcolor" : [ 1.0, 1.0, 1.0, 1.0 ]
				}

			}
, 			{
				"box" : 				{
					"activebgcolor" : [ 0.862745, 0.870588, 0.878431, 1.0 ],
					"bordercolor" : [ 0.196078, 0.196078, 0.196078, 0.0 ],
					"focusbordercolor" : [ 0.956863, 0.666667, 0.92549, 1.0 ],
					"id" : "obj-150",
					"maxclass" : "live.numbox",
					"numinlets" : 1,
					"numoutlets" : 2,
					"outlettype" : [ "", "float" ],
					"parameter_enable" : 1,
					"patching_rect" : [ 443.799988, 720.5, 36.0, 15.0 ],
					"presentation" : 1,
					"presentation_rect" : [ 92.580368, 108.375, 36.0, 15.0 ],
					"saved_attribute_attributes" : 					{
						"valueof" : 						{
							"parameter_linknames" : 1,
							"parameter_longname" : "min",
							"parameter_shortname" : "min",
							"parameter_type" : 0,
							"parameter_mmin" : -999.0,
							"parameter_mmax" : 999.0,
							"parameter_initial_enable" : 1,
							"parameter_initial" : [ 0.0 ],
							"parameter_unitstyle" : 1,
							"parameter_speedlim" : 16.0,
							"parameter_defer" : 1
						}

					}
,
					"textcolor" : [ 0.6, 0.6, 0.6, 1.0 ],
					"varname" : "min"
				}

			}
, 			{
				"box" : 				{
					"activedialcolor" : [ 0.862745, 0.870588, 0.878431, 1.0 ],
					"activeneedlecolor" : [ 0.956863, 0.666667, 0.92549, 1.0 ],
					"annotation" : "Displace the feedback image on the X-axis.",
					"focusbordercolor" : [ 0.956863, 0.666667, 0.92549, 1.0 ],
					"id" : "obj-122",
					"maxclass" : "live.dial",
					"needlecolor" : [ 0.862745, 0.870588, 0.878431, 1.0 ],
					"numinlets" : 1,
					"numoutlets" : 2,
					"outlettype" : [ "", "float" ],
					"parameter_enable" : 1,
					"patching_rect" : [ 339.299988, 302.0, 44.0, 47.0 ],
					"presentation" : 1,
					"presentation_rect" : [ 122.580368, 28.944939, 44.0, 47.0 ],
					"saved_attribute_attributes" : 					{
						"valueof" : 						{
							"parameter_linknames" : 1,
							"parameter_longname" : "speed",
							"parameter_shortname" : "speed",
							"parameter_type" : 0,
							"parameter_mmax" : 1.0,
							"parameter_modmode" : 3,
							"parameter_initial_enable" : 1,
							"parameter_initial" : [ 0.5 ],
							"parameter_unitstyle" : 1,
							"parameter_units" : "x",
							"parameter_exponent" : 2.0,
							"parameter_speedlim" : 16.0,
							"parameter_defer" : 1,
							"parameter_annotation_name" : "X Offset"
						}

					}
,
					"textcolor" : [ 0.987952, 1.0, 0.975904, 1.0 ],
					"varname" : "speed"
				}

			}
, 			{
				"box" : 				{
					"id" : "obj-74",
					"maxclass" : "newobj",
					"numinlets" : 1,
					"numoutlets" : 1,
					"outlettype" : [ "" ],
					"patching_rect" : [ 654.0, 844.5, 55.0, 22.0 ],
					"style" : "",
					"text" : "prepend"
				}

			}
, 			{
				"box" : 				{
					"id" : "obj-73",
					"maxclass" : "newobj",
					"numinlets" : 1,
					"numoutlets" : 1,
					"outlettype" : [ "" ],
					"patching_rect" : [ 654.0, 802.5, 74.0, 22.0 ],
					"style" : "",
					"text" : "prepend set"
				}

			}
, 			{
				"box" : 				{
					"id" : "obj-72",
					"maxclass" : "newobj",
					"numinlets" : 2,
					"numoutlets" : 2,
					"outlettype" : [ "", "" ],
					"patching_rect" : [ 654.0, 748.0, 61.0, 22.0 ],
					"style" : "",
					"text" : "route text"
				}

			}
, 			{
				"box" : 				{
					"id" : "obj-70",
					"maxclass" : "newobj",
					"numinlets" : 1,
					"numoutlets" : 1,
					"outlettype" : [ "" ],
					"patching_rect" : [ 654.0, 614.5, 74.0, 22.0 ],
					"style" : "",
					"text" : "prepend set"
				}

			}
, 			{
				"box" : 				{
					"id" : "obj-62",
					"maxclass" : "newobj",
					"numinlets" : 0,
					"numoutlets" : 1,
					"outlettype" : [ "" ],
					"patching_rect" : [ 594.0, 534.0, 103.0, 22.0 ],
					"style" : "",
					"text" : "r #0-messagesin"
				}

			}
, 			{
				"box" : 				{
					"id" : "obj-71",
					"maxclass" : "newobj",
					"numinlets" : 4,
					"numoutlets" : 4,
					"outlettype" : [ "", "", "", "" ],
					"patching_rect" : [ 594.0, 578.5, 133.0, 22.0 ],
					"style" : "",
					"text" : "route min max address"
				}

			}
, 			{
				"box" : 				{
					"id" : "obj-50",
					"maxclass" : "newobj",
					"numinlets" : 2,
					"numoutlets" : 2,
					"outlettype" : [ "", "" ],
					"patching_rect" : [ 735.0, 748.0, 107.0, 22.0 ],
					"style" : "",
					"text" : "route textchanged"
				}

			}
, 			{
				"box" : 				{
					"autoscroll" : 0,
					"bgcolor" : [ 0.862745, 0.870588, 0.878431, 1.0 ],
					"bordercolor" : [ 0.376471, 0.384314, 0.4, 0.0 ],
					"fontsize" : 10.0,
					"id" : "obj-44",
					"keymode" : 1,
					"lines" : 1,
					"maxclass" : "textedit",
					"numinlets" : 1,
					"numoutlets" : 4,
					"outlettype" : [ "", "int", "", "" ],
					"outputmode" : 1,
					"parameter_enable" : 1,
					"patching_rect" : [ 654.0, 678.0, 87.0, 50.0 ],
					"presentation" : 1,
					"presentation_rect" : [ 5.0, 108.375, 78.0, 15.0 ],
					"rounded" : 0.0,
					"saved_attribute_attributes" : 					{
						"valueof" : 						{
							"parameter_longname" : "textedit",
							"parameter_shortname" : "textedit",
							"parameter_type" : 3,
							"parameter_initial_enable" : 1,
							"parameter_initial" : [ "address" ],
							"parameter_invisible" : 1
						}

					}
,
					"style" : "",
					"tabmode" : 0,
					"text" : "address",
					"textcolor" : [ 0.596078, 0.596078, 0.596078, 1.0 ],
					"varname" : "textedit"
				}

			}
, 			{
				"box" : 				{
					"id" : "obj-14",
					"maxclass" : "newobj",
					"numinlets" : 1,
					"numoutlets" : 0,
					"patching_rect" : [ 621.0, 111.0, 105.0, 22.0 ],
					"style" : "",
					"text" : "s #0-messagesin"
				}

			}
, 			{
				"box" : 				{
					"comment" : "Messages in",
					"id" : "obj-6",
					"maxclass" : "inlet",
					"numinlets" : 0,
					"numoutlets" : 1,
					"outlettype" : [ "" ],
					"patching_rect" : [ 621.0, 61.0, 30.0, 30.0 ],
					"style" : ""
				}

			}
, 			{
				"box" : 				{
					"comment" : "Messages out",
					"id" : "obj-69",
					"maxclass" : "outlet",
					"numinlets" : 1,
					"numoutlets" : 0,
					"patching_rect" : [ 654.0, 910.5, 30.0, 30.0 ],
					"style" : ""
				}

			}
, 			{
				"box" : 				{
					"activebgcolor" : [ 0.862745, 0.870588, 0.878431, 1.0 ],
					"annotation" : "Set how selected input images are blended together.",
					"bordercolor" : [ 0.196078, 0.196078, 0.196078, 0.0 ],
					"focusbordercolor" : [ 0.956863, 0.666667, 0.92549, 1.0 ],
					"hltcolor" : [ 0.956863, 0.666667, 0.92549, 1.0 ],
					"id" : "obj-120",
					"maxclass" : "live.menu",
					"numinlets" : 1,
					"numoutlets" : 3,
					"outlettype" : [ "", "", "float" ],
					"parameter_enable" : 1,
					"patching_rect" : [ 196.5, 63.0, 70.0, 15.0 ],
					"presentation" : 1,
					"presentation_rect" : [ 68.860123, 48.944939, 51.720245, 15.0 ],
					"saved_attribute_attributes" : 					{
						"valueof" : 						{
							"parameter_linknames" : 1,
							"parameter_longname" : "mode",
							"parameter_shortname" : "mode",
							"parameter_type" : 2,
							"parameter_enum" : [ "ramp", "sin", "tri" ],
							"parameter_annotation_name" : "Blend Mode"
						}

					}
,
					"textcolor" : [ 0.596078, 0.596078, 0.596078, 1.0 ],
					"tricolor" : [ 0.596078, 0.596078, 0.596078, 1.0 ],
					"varname" : "mode"
				}

			}
, 			{
				"box" : 				{
					"bgcolor" : [ 0.862745, 0.870588, 0.878431, 0.0 ],
					"degrees" : 360,
					"floatoutput" : 1,
					"id" : "obj-37",
					"maxclass" : "dial",
					"mode" : 2,
					"needlecolor" : [ 0.956863, 0.666667, 0.92549, 1.0 ],
					"numinlets" : 1,
					"numoutlets" : 1,
					"outlettype" : [ "float" ],
					"outlinecolor" : [ 0.862745, 0.870588, 0.878431, 1.0 ],
					"parameter_enable" : 0,
					"patching_rect" : [ 196.5, 494.0, 40.0, 40.0 ],
					"presentation" : 1,
					"presentation_rect" : [ 0.0, 21.944939, 61.0, 61.0 ],
					"size" : 1.0,
					"style" : "",
					"thickness" : 100.0
				}

			}
, 			{
				"box" : 				{
					"id" : "obj-27",
					"maxclass" : "newobj",
					"numinlets" : 1,
					"numoutlets" : 4,
					"outlettype" : [ "", "", "", "" ],
					"patching_rect" : [ 1035.5, 289.5, 58.0, 22.0 ],
					"restore" : 					{
						"max" : [ 1.0 ],
						"min" : [ 0.0 ],
						"mode" : [ 2.0 ],
						"speed" : [ 0.174816 ],
						"textedit" : [ "address" ]
					}
,
					"style" : "",
					"text" : "autopattr",
					"varname" : "u661001403"
				}

			}
, 			{
				"box" : 				{
					"bgcolor" : [ 0.956863, 0.666667, 0.92549, 1.0 ],
					"fontface" : 1,
					"fontsize" : 16.0,
					"id" : "obj-20",
					"maxclass" : "comment",
					"numinlets" : 1,
					"numoutlets" : 0,
					"patching_rect" : [ 1035.5, 335.5, 289.0, 24.0 ],
					"presentation" : 1,
					"presentation_rect" : [ 0.0, 0.0, 172.440491, 24.0 ],
					"style" : "",
					"text" : "//LFO",
					"textcolor" : [ 1.0, 1.0, 1.0, 1.0 ],
					"textjustification" : 2
				}

			}
, 			{
				"box" : 				{
					"id" : "obj-13",
					"maxclass" : "newobj",
					"numinlets" : 0,
					"numoutlets" : 1,
					"outlettype" : [ "" ],
					"patching_rect" : [ 1035.5, 129.5, 103.0, 22.0 ],
					"style" : "",
					"text" : "r #0-messagesin"
				}

			}
, 			{
				"box" : 				{
					"id" : "obj-66",
					"linecount" : 4,
					"maxclass" : "comment",
					"numinlets" : 1,
					"numoutlets" : 0,
					"patching_rect" : [ 1123.5, 474.0, 113.0, 60.0 ],
					"style" : "",
					"text" : "This panel's presentation_rect sets the size of the parent bpatcher",
					"textjustification" : 1
				}

			}
, 			{
				"box" : 				{
					"id" : "obj-10",
					"linecount" : 7,
					"maxclass" : "comment",
					"numinlets" : 1,
					"numoutlets" : 0,
					"patching_rect" : [ 1183.0, 207.0, 150.0, 100.0 ],
					"style" : "",
					"text" : "This JS script resizes the parent bpatcher to the size of the background panel's presentation_rect.\nIt reports size upon loading for use in M4L devices."
				}

			}
, 			{
				"box" : 				{
					"id" : "obj-49",
					"maxclass" : "newobj",
					"numinlets" : 1,
					"numoutlets" : 0,
					"patching_rect" : [ 1035.5, 260.0, 53.0, 22.0 ],
					"style" : "",
					"text" : "s ---size"
				}

			}
, 			{
				"box" : 				{
					"id" : "obj-47",
					"maxclass" : "newobj",
					"numinlets" : 2,
					"numoutlets" : 1,
					"outlettype" : [ "bang" ],
					"patching_rect" : [ 1153.5, 166.0, 37.0, 22.0 ],
					"style" : "",
					"text" : "del 1"
				}

			}
, 			{
				"box" : 				{
					"id" : "obj-67",
					"maxclass" : "newobj",
					"numinlets" : 0,
					"numoutlets" : 1,
					"outlettype" : [ "" ],
					"patching_rect" : [ 1153.5, 129.5, 88.0, 22.0 ],
					"style" : "",
					"text" : "r #0-loadbang"
				}

			}
, 			{
				"box" : 				{
					"id" : "obj-75",
					"maxclass" : "newobj",
					"numinlets" : 2,
					"numoutlets" : 2,
					"outlettype" : [ "", "" ],
					"patching_rect" : [ 1035.5, 166.0, 105.0, 22.0 ],
					"style" : "",
					"text" : "routepass getsize"
				}

			}
, 			{
				"box" : 				{
					"id" : "obj-9",
					"maxclass" : "newobj",
					"numinlets" : 1,
					"numoutlets" : 1,
					"outlettype" : [ "" ],
					"patching_rect" : [ 1035.5, 225.0, 131.0, 22.0 ],
					"saved_object_attributes" : 					{
						"filename" : "vzbl.windowresize.js",
						"parameter_enable" : 0
					}
,
					"style" : "",
					"text" : "js vzbl.windowresize.js"
				}

			}
, 			{
				"box" : 				{
					"fontface" : 0,
					"fontname" : "Arial Bold",
					"fontsize" : 10.0,
					"id" : "obj-32",
					"maxclass" : "newobj",
					"numinlets" : 1,
					"numoutlets" : 0,
					"patching_rect" : [ 1035.5, 90.5, 81.0, 20.0 ],
					"style" : "",
					"text" : "s #0-loadbang"
				}

			}
, 			{
				"box" : 				{
					"fontname" : "Arial Bold",
					"fontsize" : 10.0,
					"id" : "obj-16",
					"maxclass" : "newobj",
					"numinlets" : 1,
					"numoutlets" : 3,
					"outlettype" : [ "bang", "int", "int" ],
					"patching_rect" : [ 1035.5, 45.5, 79.0, 20.0 ],
					"style" : "",
					"text" : "live.thisdevice"
				}

			}
, 			{
				"box" : 				{
					"angle" : 0.0,
					"bgcolor" : [ 0.65098, 0.666667, 0.662745, 1.0 ],
					"horizontal_direction" : 1,
					"id" : "obj-19",
					"maxclass" : "panel",
					"mode" : 0,
					"numinlets" : 1,
					"numoutlets" : 0,
					"patching_rect" : [ 1035.5, 335.5, 289.0, 337.0 ],
					"presentation" : 1,
					"presentation_rect" : [ 0.0, 0.0, 172.440491, 131.0 ],
					"proportion" : 0.39,
					"rounded" : 10,
					"style" : "",
					"varname" : "background"
				}

			}
, 			{
				"box" : 				{
					"id" : "obj-65",
					"maxclass" : "newobj",
					"numinlets" : 2,
					"numoutlets" : 1,
					"outlettype" : [ "int" ],
					"patching_rect" : [ 196.5, 100.0, 29.5, 22.0 ],
					"style" : "",
					"text" : "+ 1"
				}

			}
, 			{
				"box" : 				{
					"id" : "obj-64",
					"maxclass" : "newobj",
					"numinlets" : 2,
					"numoutlets" : 3,
					"outlettype" : [ "", "", "" ],
					"patching_rect" : [ 196.5, 305.0, 44.0, 22.0 ],
					"style" : "",
					"text" : "gate 3"
				}

			}
, 			{
				"box" : 				{
					"id" : "obj-63",
					"maxclass" : "newobj",
					"numinlets" : 2,
					"numoutlets" : 1,
					"outlettype" : [ "float" ],
					"patching_rect" : [ 90.0, 366.0, 29.5, 22.0 ],
					"style" : "",
					"text" : "/ 2."
				}

			}
, 			{
				"box" : 				{
					"id" : "obj-53",
					"maxclass" : "newobj",
					"numinlets" : 1,
					"numoutlets" : 1,
					"outlettype" : [ "float" ],
					"patching_rect" : [ 221.5, 201.0, 57.0, 22.0 ],
					"style" : "",
					"text" : "cpuclock"
				}

			}
, 			{
				"box" : 				{
					"id" : "obj-48",
					"maxclass" : "newobj",
					"numinlets" : 1,
					"numoutlets" : 1,
					"outlettype" : [ "float" ],
					"patcher" : 					{
						"fileversion" : 1,
						"appversion" : 						{
							"major" : 7,
							"minor" : 0,
							"revision" : 5,
							"architecture" : "x86",
							"modernui" : 1
						}
,
						"rect" : [ 478.0, 217.0, 640.0, 480.0 ],
						"bglocked" : 0,
						"openinpresentation" : 0,
						"default_fontsize" : 12.0,
						"default_fontface" : 0,
						"default_fontname" : "Arial",
						"gridonopen" : 1,
						"gridsize" : [ 15.0, 15.0 ],
						"gridsnaponopen" : 1,
						"objectsnaponopen" : 1,
						"statusbarvisible" : 2,
						"toolbarvisible" : 1,
						"lefttoolbarpinned" : 0,
						"toptoolbarpinned" : 0,
						"righttoolbarpinned" : 0,
						"bottomtoolbarpinned" : 0,
						"toolbars_unpinned_last_save" : 0,
						"tallnewobj" : 0,
						"boxanimatetime" : 200,
						"enablehscroll" : 1,
						"enablevscroll" : 1,
						"devicewidth" : 0.0,
						"description" : "",
						"digest" : "",
						"tags" : "",
						"style" : "",
						"subpatcher_template" : "",
						"boxes" : [ 							{
								"box" : 								{
									"id" : "obj-1",
									"maxclass" : "newobj",
									"numinlets" : 2,
									"numoutlets" : 1,
									"outlettype" : [ "float" ],
									"patching_rect" : [ 102.0, 104.0, 29.5, 22.0 ],
									"style" : "",
									"text" : "* 2."
								}

							}
, 							{
								"box" : 								{
									"id" : "obj-17",
									"maxclass" : "newobj",
									"numinlets" : 2,
									"numoutlets" : 1,
									"outlettype" : [ "float" ],
									"patching_rect" : [ 102.0, 226.0, 38.0, 22.0 ],
									"style" : "",
									"text" : "+ 0.5"
								}

							}
, 							{
								"box" : 								{
									"id" : "obj-14",
									"maxclass" : "newobj",
									"numinlets" : 2,
									"numoutlets" : 1,
									"outlettype" : [ "float" ],
									"patching_rect" : [ 102.0, 185.0, 29.5, 22.0 ],
									"style" : "",
									"text" : "/ 2."
								}

							}
, 							{
								"box" : 								{
									"id" : "obj-8",
									"maxclass" : "newobj",
									"numinlets" : 1,
									"numoutlets" : 1,
									"outlettype" : [ "float" ],
									"patching_rect" : [ 102.0, 136.0, 26.0, 22.0 ],
									"style" : "",
									"text" : "sin"
								}

							}
, 							{
								"box" : 								{
									"comment" : "",
									"id" : "obj-46",
									"maxclass" : "inlet",
									"numinlets" : 0,
									"numoutlets" : 1,
									"outlettype" : [ "" ],
									"patching_rect" : [ 102.0, 58.0, 30.0, 30.0 ],
									"style" : ""
								}

							}
, 							{
								"box" : 								{
									"comment" : "",
									"id" : "obj-47",
									"maxclass" : "outlet",
									"numinlets" : 1,
									"numoutlets" : 0,
									"patching_rect" : [ 102.0, 279.0, 30.0, 30.0 ],
									"style" : ""
								}

							}
 ],
						"lines" : [ 							{
								"patchline" : 								{
									"destination" : [ "obj-8", 0 ],
									"disabled" : 0,
									"hidden" : 0,
									"source" : [ "obj-1", 0 ]
								}

							}
, 							{
								"patchline" : 								{
									"destination" : [ "obj-17", 0 ],
									"disabled" : 0,
									"hidden" : 0,
									"source" : [ "obj-14", 0 ]
								}

							}
, 							{
								"patchline" : 								{
									"destination" : [ "obj-47", 0 ],
									"disabled" : 0,
									"hidden" : 0,
									"source" : [ "obj-17", 0 ]
								}

							}
, 							{
								"patchline" : 								{
									"destination" : [ "obj-1", 0 ],
									"disabled" : 0,
									"hidden" : 0,
									"source" : [ "obj-46", 0 ]
								}

							}
, 							{
								"patchline" : 								{
									"destination" : [ "obj-14", 0 ],
									"disabled" : 0,
									"hidden" : 0,
									"source" : [ "obj-8", 0 ]
								}

							}
 ]
					}
,
					"patching_rect" : [ 156.5, 398.0, 38.0, 22.0 ],
					"saved_object_attributes" : 					{
						"description" : "",
						"digest" : "",
						"globalpatchername" : "",
						"style" : "",
						"tags" : ""
					}
,
					"style" : "",
					"text" : "p"
				}

			}
, 			{
				"box" : 				{
					"id" : "obj-45",
					"maxclass" : "newobj",
					"numinlets" : 1,
					"numoutlets" : 1,
					"outlettype" : [ "" ],
					"patcher" : 					{
						"fileversion" : 1,
						"appversion" : 						{
							"major" : 7,
							"minor" : 0,
							"revision" : 5,
							"architecture" : "x86",
							"modernui" : 1
						}
,
						"rect" : [ 496.0, 197.0, 640.0, 480.0 ],
						"bglocked" : 0,
						"openinpresentation" : 0,
						"default_fontsize" : 12.0,
						"default_fontface" : 0,
						"default_fontname" : "Arial",
						"gridonopen" : 1,
						"gridsize" : [ 15.0, 15.0 ],
						"gridsnaponopen" : 1,
						"objectsnaponopen" : 1,
						"statusbarvisible" : 2,
						"toolbarvisible" : 1,
						"lefttoolbarpinned" : 0,
						"toptoolbarpinned" : 0,
						"righttoolbarpinned" : 0,
						"bottomtoolbarpinned" : 0,
						"toolbars_unpinned_last_save" : 0,
						"tallnewobj" : 0,
						"boxanimatetime" : 200,
						"enablehscroll" : 1,
						"enablevscroll" : 1,
						"devicewidth" : 0.0,
						"description" : "",
						"digest" : "",
						"tags" : "",
						"style" : "",
						"subpatcher_template" : "",
						"boxes" : [ 							{
								"box" : 								{
									"id" : "obj-38",
									"maxclass" : "newobj",
									"numinlets" : 2,
									"numoutlets" : 1,
									"outlettype" : [ "int" ],
									"patching_rect" : [ 130.5, 202.0, 29.5, 22.0 ],
									"style" : "",
									"text" : "+ 1"
								}

							}
, 							{
								"box" : 								{
									"id" : "obj-36",
									"maxclass" : "newobj",
									"numinlets" : 2,
									"numoutlets" : 1,
									"outlettype" : [ "float" ],
									"patching_rect" : [ 85.0, 202.0, 31.0, 22.0 ],
									"style" : "",
									"text" : "+ 1."
								}

							}
, 							{
								"box" : 								{
									"id" : "obj-27",
									"maxclass" : "newobj",
									"numinlets" : 2,
									"numoutlets" : 1,
									"outlettype" : [ "float" ],
									"patching_rect" : [ 85.0, 164.0, 31.0, 22.0 ],
									"style" : "",
									"text" : "!- 1."
								}

							}
, 							{
								"box" : 								{
									"id" : "obj-24",
									"maxclass" : "newobj",
									"numinlets" : 3,
									"numoutlets" : 1,
									"outlettype" : [ "" ],
									"patching_rect" : [ 50.0, 262.0, 54.0, 22.0 ],
									"style" : "",
									"text" : "switch 2"
								}

							}
, 							{
								"box" : 								{
									"id" : "obj-23",
									"maxclass" : "newobj",
									"numinlets" : 2,
									"numoutlets" : 1,
									"outlettype" : [ "int" ],
									"patching_rect" : [ 130.5, 165.0, 31.0, 22.0 ],
									"style" : "",
									"text" : "> 1."
								}

							}
, 							{
								"box" : 								{
									"id" : "obj-21",
									"maxclass" : "newobj",
									"numinlets" : 2,
									"numoutlets" : 1,
									"outlettype" : [ "int" ],
									"patching_rect" : [ 67.5, 100.0, 35.0, 22.0 ],
									"style" : "",
									"text" : "% 2."
								}

							}
, 							{
								"box" : 								{
									"comment" : "",
									"id" : "obj-43",
									"maxclass" : "inlet",
									"numinlets" : 0,
									"numoutlets" : 1,
									"outlettype" : [ "" ],
									"patching_rect" : [ 67.5, 10.0, 30.0, 30.0 ],
									"style" : ""
								}

							}
, 							{
								"box" : 								{
									"comment" : "",
									"id" : "obj-44",
									"maxclass" : "outlet",
									"numinlets" : 1,
									"numoutlets" : 0,
									"patching_rect" : [ 50.0, 344.0, 30.0, 30.0 ],
									"style" : ""
								}

							}
 ],
						"lines" : [ 							{
								"patchline" : 								{
									"destination" : [ "obj-23", 0 ],
									"disabled" : 0,
									"hidden" : 0,
									"source" : [ "obj-21", 0 ]
								}

							}
, 							{
								"patchline" : 								{
									"destination" : [ "obj-24", 1 ],
									"disabled" : 0,
									"hidden" : 0,
									"source" : [ "obj-21", 0 ]
								}

							}
, 							{
								"patchline" : 								{
									"destination" : [ "obj-27", 0 ],
									"disabled" : 0,
									"hidden" : 0,
									"source" : [ "obj-21", 0 ]
								}

							}
, 							{
								"patchline" : 								{
									"destination" : [ "obj-38", 0 ],
									"disabled" : 0,
									"hidden" : 0,
									"source" : [ "obj-23", 0 ]
								}

							}
, 							{
								"patchline" : 								{
									"destination" : [ "obj-44", 0 ],
									"disabled" : 0,
									"hidden" : 0,
									"source" : [ "obj-24", 0 ]
								}

							}
, 							{
								"patchline" : 								{
									"destination" : [ "obj-36", 0 ],
									"disabled" : 0,
									"hidden" : 0,
									"source" : [ "obj-27", 0 ]
								}

							}
, 							{
								"patchline" : 								{
									"destination" : [ "obj-24", 2 ],
									"disabled" : 0,
									"hidden" : 0,
									"source" : [ "obj-36", 0 ]
								}

							}
, 							{
								"patchline" : 								{
									"destination" : [ "obj-24", 0 ],
									"disabled" : 0,
									"hidden" : 0,
									"source" : [ "obj-38", 0 ]
								}

							}
, 							{
								"patchline" : 								{
									"destination" : [ "obj-21", 0 ],
									"disabled" : 0,
									"hidden" : 0,
									"source" : [ "obj-43", 0 ]
								}

							}
 ]
					}
,
					"patching_rect" : [ 221.5, 398.0, 40.0, 22.0 ],
					"saved_object_attributes" : 					{
						"description" : "",
						"digest" : "",
						"globalpatchername" : "",
						"style" : "",
						"tags" : ""
					}
,
					"style" : "",
					"text" : "p"
				}

			}
, 			{
				"box" : 				{
					"id" : "obj-11",
					"maxclass" : "newobj",
					"numinlets" : 2,
					"numoutlets" : 1,
					"outlettype" : [ "int" ],
					"patching_rect" : [ 90.0, 398.0, 35.0, 22.0 ],
					"style" : "",
					"text" : "% 1."
				}

			}
, 			{
				"box" : 				{
					"id" : "obj-5",
					"maxclass" : "newobj",
					"numinlets" : 2,
					"numoutlets" : 1,
					"outlettype" : [ "float" ],
					"patching_rect" : [ 221.5, 244.0, 41.0, 22.0 ],
					"style" : "",
					"text" : "/ 100."
				}

			}
, 			{
				"box" : 				{
					"id" : "obj-1",
					"maxclass" : "newobj",
					"numinlets" : 0,
					"numoutlets" : 1,
					"outlettype" : [ "" ],
					"patching_rect" : [ 221.5, 134.0, 70.0, 22.0 ],
					"style" : "",
					"text" : "r vzblmetro"
				}

			}
 ],
		"lines" : [ 			{
				"patchline" : 				{
					"destination" : [ "obj-53", 0 ],
					"disabled" : 0,
					"hidden" : 0,
					"source" : [ "obj-1", 0 ]
				}

			}
, 			{
				"patchline" : 				{
					"destination" : [ "obj-37", 0 ],
					"disabled" : 0,
					"hidden" : 0,
					"source" : [ "obj-11", 0 ]
				}

			}
, 			{
				"patchline" : 				{
					"destination" : [ "obj-65", 0 ],
					"disabled" : 0,
					"hidden" : 0,
					"source" : [ "obj-120", 0 ]
				}

			}
, 			{
				"patchline" : 				{
					"destination" : [ "obj-8", 1 ],
					"disabled" : 0,
					"hidden" : 0,
					"source" : [ "obj-122", 0 ]
				}

			}
, 			{
				"patchline" : 				{
					"destination" : [ "obj-75", 0 ],
					"disabled" : 0,
					"hidden" : 0,
					"source" : [ "obj-13", 0 ]
				}

			}
, 			{
				"patchline" : 				{
					"destination" : [ "obj-17", 3 ],
					"disabled" : 0,
					"hidden" : 0,
					"source" : [ "obj-150", 0 ]
				}

			}
, 			{
				"patchline" : 				{
					"destination" : [ "obj-32", 0 ],
					"disabled" : 0,
					"hidden" : 0,
					"source" : [ "obj-16", 0 ]
				}

			}
, 			{
				"patchline" : 				{
					"destination" : [ "obj-74", 0 ],
					"disabled" : 0,
					"hidden" : 0,
					"source" : [ "obj-17", 0 ]
				}

			}
, 			{
				"patchline" : 				{
					"destination" : [ "obj-150", 0 ],
					"disabled" : 0,
					"hidden" : 0,
					"source" : [ "obj-18", 0 ]
				}

			}
, 			{
				"patchline" : 				{
					"destination" : [ "obj-4", 0 ],
					"disabled" : 0,
					"hidden" : 0,
					"source" : [ "obj-18", 0 ]
				}

			}
, 			{
				"patchline" : 				{
					"destination" : [ "obj-44", 0 ],
					"disabled" : 0,
					"hidden" : 0,
					"midpoints" : [ 761.5, 654.0, 663.5, 654.0 ],
					"source" : [ "obj-21", 0 ]
				}

			}
, 			{
				"patchline" : 				{
					"destination" : [ "obj-122", 0 ],
					"disabled" : 0,
					"hidden" : 0,
					"source" : [ "obj-22", 0 ]
				}

			}
, 			{
				"patchline" : 				{
					"destination" : [ "obj-24", 0 ],
					"disabled" : 0,
					"hidden" : 0,
					"source" : [ "obj-23", 0 ]
				}

			}
, 			{
				"patchline" : 				{
					"destination" : [ "obj-122", 0 ],
					"disabled" : 0,
					"hidden" : 0,
					"source" : [ "obj-24", 0 ]
				}

			}
, 			{
				"patchline" : 				{
					"destination" : [ "obj-19", 0 ],
					"disabled" : 0,
					"hidden" : 0,
					"source" : [ "obj-27", 1 ]
				}

			}
, 			{
				"patchline" : 				{
					"destination" : [ "obj-17", 0 ],
					"disabled" : 0,
					"hidden" : 0,
					"source" : [ "obj-37", 0 ]
				}

			}
, 			{
				"patchline" : 				{
					"destination" : [ "obj-17", 4 ],
					"disabled" : 0,
					"hidden" : 0,
					"source" : [ "obj-4", 0 ]
				}

			}
, 			{
				"patchline" : 				{
					"destination" : [ "obj-50", 0 ],
					"disabled" : 0,
					"hidden" : 0,
					"source" : [ "obj-44", 3 ]
				}

			}
, 			{
				"patchline" : 				{
					"destination" : [ "obj-72", 0 ],
					"disabled" : 0,
					"hidden" : 0,
					"source" : [ "obj-44", 0 ]
				}

			}
, 			{
				"patchline" : 				{
					"destination" : [ "obj-37", 0 ],
					"disabled" : 0,
					"hidden" : 0,
					"source" : [ "obj-45", 0 ]
				}

			}
, 			{
				"patchline" : 				{
					"destination" : [ "obj-9", 0 ],
					"disabled" : 0,
					"hidden" : 0,
					"source" : [ "obj-47", 0 ]
				}

			}
, 			{
				"patchline" : 				{
					"destination" : [ "obj-37", 0 ],
					"disabled" : 0,
					"hidden" : 0,
					"source" : [ "obj-48", 0 ]
				}

			}
, 			{
				"patchline" : 				{
					"destination" : [ "obj-8", 0 ],
					"disabled" : 0,
					"hidden" : 0,
					"source" : [ "obj-5", 0 ]
				}

			}
, 			{
				"patchline" : 				{
					"destination" : [ "obj-44", 0 ],
					"disabled" : 0,
					"hidden" : 0,
					"midpoints" : [ 744.5, 793.0, 859.916748, 793.0, 859.916748, 653.0, 663.5, 653.0 ],
					"source" : [ "obj-50", 0 ]
				}

			}
, 			{
				"patchline" : 				{
					"destination" : [ "obj-5", 0 ],
					"disabled" : 0,
					"hidden" : 0,
					"source" : [ "obj-53", 0 ]
				}

			}
, 			{
				"patchline" : 				{
					"destination" : [ "obj-14", 0 ],
					"disabled" : 0,
					"hidden" : 0,
					"source" : [ "obj-6", 0 ]
				}

			}
, 			{
				"patchline" : 				{
					"destination" : [ "obj-71", 0 ],
					"disabled" : 0,
					"hidden" : 0,
					"source" : [ "obj-62", 0 ]
				}

			}
, 			{
				"patchline" : 				{
					"destination" : [ "obj-11", 0 ],
					"disabled" : 0,
					"hidden" : 0,
					"source" : [ "obj-63", 0 ]
				}

			}
, 			{
				"patchline" : 				{
					"destination" : [ "obj-45", 0 ],
					"disabled" : 0,
					"hidden" : 0,
					"source" : [ "obj-64", 2 ]
				}

			}
, 			{
				"patchline" : 				{
					"destination" : [ "obj-48", 0 ],
					"disabled" : 0,
					"hidden" : 0,
					"source" : [ "obj-64", 1 ]
				}

			}
, 			{
				"patchline" : 				{
					"destination" : [ "obj-63", 0 ],
					"disabled" : 0,
					"hidden" : 0,
					"source" : [ "obj-64", 0 ]
				}

			}
, 			{
				"patchline" : 				{
					"destination" : [ "obj-64", 0 ],
					"disabled" : 0,
					"hidden" : 0,
					"source" : [ "obj-65", 0 ]
				}

			}
, 			{
				"patchline" : 				{
					"destination" : [ "obj-47", 0 ],
					"disabled" : 0,
					"hidden" : 0,
					"source" : [ "obj-67", 0 ]
				}

			}
, 			{
				"patchline" : 				{
					"destination" : [ "obj-44", 0 ],
					"disabled" : 0,
					"hidden" : 0,
					"source" : [ "obj-70", 0 ]
				}

			}
, 			{
				"patchline" : 				{
					"destination" : [ "obj-150", 0 ],
					"disabled" : 0,
					"hidden" : 0,
					"source" : [ "obj-71", 0 ]
				}

			}
, 			{
				"patchline" : 				{
					"destination" : [ "obj-4", 0 ],
					"disabled" : 0,
					"hidden" : 0,
					"source" : [ "obj-71", 1 ]
				}

			}
, 			{
				"patchline" : 				{
					"destination" : [ "obj-70", 0 ],
					"disabled" : 0,
					"hidden" : 0,
					"source" : [ "obj-71", 2 ]
				}

			}
, 			{
				"patchline" : 				{
					"destination" : [ "obj-73", 0 ],
					"disabled" : 0,
					"hidden" : 0,
					"source" : [ "obj-72", 0 ]
				}

			}
, 			{
				"patchline" : 				{
					"destination" : [ "obj-74", 0 ],
					"disabled" : 0,
					"hidden" : 0,
					"source" : [ "obj-73", 0 ]
				}

			}
, 			{
				"patchline" : 				{
					"destination" : [ "obj-69", 0 ],
					"disabled" : 0,
					"hidden" : 0,
					"source" : [ "obj-74", 0 ]
				}

			}
, 			{
				"patchline" : 				{
					"destination" : [ "obj-9", 0 ],
					"disabled" : 0,
					"hidden" : 0,
					"source" : [ "obj-75", 0 ]
				}

			}
, 			{
				"patchline" : 				{
					"destination" : [ "obj-64", 1 ],
					"disabled" : 0,
					"hidden" : 0,
					"source" : [ "obj-8", 0 ]
				}

			}
, 			{
				"patchline" : 				{
					"destination" : [ "obj-49", 0 ],
					"disabled" : 0,
					"hidden" : 0,
					"source" : [ "obj-9", 0 ]
				}

			}
 ],
		"parameters" : 		{
			"obj-122" : [ "speed", "speed", 0 ],
			"obj-44" : [ "textedit", "textedit", 0 ],
			"obj-4" : [ "max", "max", 0 ],
			"obj-150" : [ "min", "min", 0 ],
			"obj-120" : [ "mode", "mode", 0 ]
		}
,
		"dependency_cache" : [ 			{
				"name" : "vzbl.windowresize.js",
				"bootpath" : "~/ZEAL/Patches and Presets/Max/VIZZABLE/VIZZable-3/scripts",
				"type" : "TEXT",
				"implicit" : 1
			}
 ],
		"embedsnapshot" : 0,
		"styles" : [ 			{
				"name" : "comment001",
				"default" : 				{
					"textjustification" : [ 2 ],
					"fontname" : [ "Arial Bold" ],
					"fontsize" : [ 10.0 ],
					"textcolor" : [ 0.301961, 0.701961, 0.301961, 1.0 ]
				}
,
				"parentstyle" : "",
				"multi" : 0
			}
, 			{
				"name" : "style test",
				"default" : 				{
					"accentcolor" : [ 0.784314, 0.145098, 0.023529, 1.0 ],
					"bgcolor" : [ 0.290196, 0.309804, 0.301961, 1.0 ],
					"color" : [ 0.960784, 0.827451, 0.156863, 1.0 ],
					"elementcolor" : [ 0.784314, 0.145098, 0.023529, 1.0 ]
				}
,
				"parentstyle" : "",
				"multi" : 0
			}
, 			{
				"name" : "vb green",
				"textbutton" : 				{
					"selectioncolor" : [ 0.701961, 0.811765, 0.301961, 1.0 ],
					"bgcolor" : [ 0.701961, 0.811765, 0.301961, 1.0 ],
					"color" : [ 1.0, 1.0, 1.0, 1.0 ],
					"fontface" : [ 1 ],
					"centerjust" : [ 2 ],
					"fontsize" : [ 16.0 ]
				}
,
				"button" : 				{
					"bgcolor" : [ 0.65098, 0.666667, 0.662745, 1.0 ],
					"color" : [ 0.701961, 0.811765, 0.301961, 1.0 ],
					"elementcolor" : [ 0.862745, 0.870588, 0.878431, 1.0 ]
				}
,
				"umenu" : 				{
					"color" : [ 0.701961, 0.811765, 0.301961, 1.0 ],
					"textcolor_inverse" : [ 0.6, 0.6, 0.6, 1.0 ],
					"bgfillcolor" : 					{
						"type" : "color",
						"color1" : [ 0.862745, 0.870588, 0.878431, 1.0 ],
						"color2" : [ 0.290196, 0.309804, 0.301961, 1.0 ],
						"color" : [ 0.862745, 0.870588, 0.878431, 1.0 ],
						"angle" : 270.0,
						"proportion" : 0.39,
						"autogradient" : 0
					}
,
					"elementcolor" : [ 0.701961, 0.811765, 0.301961, 1.0 ],
					"fontface" : [ 1 ],
					"fontsize" : [ 10.0 ]
				}
,
				"panel" : 				{
					"bgfillcolor" : 					{
						"type" : "color",
						"color1" : [ 0.376471, 0.384314, 0.4, 1.0 ],
						"color2" : [ 0.290196, 0.309804, 0.301961, 1.0 ],
						"color" : [ 0.647059, 0.666667, 0.658824, 1.0 ],
						"angle" : 270.0,
						"proportion" : 0.39
					}

				}
,
				"comment" : 				{
					"fontface" : [ 1 ],
					"textcolor" : [ 0.6, 0.6, 0.6, 1.0 ]
				}
,
				"parentstyle" : "",
				"multi" : 1
			}
, 			{
				"name" : "vb pink",
				"textbutton" : 				{
					"selectioncolor" : [ 0.956863, 0.666667, 0.92549, 1.0 ],
					"bgcolor" : [ 0.956863, 0.666667, 0.92549, 1.0 ]
				}
,
				"umenu" : 				{
					"color" : [ 0.956863, 0.666667, 0.92549, 1.0 ]
				}
,
				"button" : 				{
					"color" : [ 0.956863, 0.666667, 0.92549, 1.0 ]
				}
,
				"parentstyle" : "vb purple",
				"multi" : 1
			}
, 			{
				"name" : "vb pink-1",
				"textbutton" : 				{
					"selectioncolor" : [ 0.956863, 0.666667, 0.92549, 1.0 ],
					"bgcolor" : [ 0.956863, 0.666667, 0.92549, 1.0 ]
				}
,
				"umenu" : 				{
					"color" : [ 0.956863, 0.666667, 0.92549, 1.0 ]
				}
,
				"button" : 				{
					"color" : [ 0.956863, 0.666667, 0.92549, 1.0 ]
				}
,
				"parentstyle" : "",
				"multi" : 0
			}
, 			{
				"name" : "vb purple",
				"textbutton" : 				{
					"selectioncolor" : [ 0.54902, 0.584314, 0.705882, 1.0 ],
					"bgcolor" : [ 0.54902, 0.584314, 0.705882, 1.0 ],
					"color" : [ 1.0, 1.0, 1.0, 1.0 ],
					"fontface" : [ 1 ],
					"centerjust" : [ 2 ],
					"fontsize" : [ 16.0 ]
				}
,
				"button" : 				{
					"bgcolor" : [ 0.65098, 0.666667, 0.662745, 1.0 ],
					"color" : [ 0.54902, 0.584314, 0.705882, 1.0 ],
					"elementcolor" : [ 0.862745, 0.870588, 0.878431, 1.0 ]
				}
,
				"umenu" : 				{
					"color" : [ 0.54902, 0.584314, 0.705882, 1.0 ],
					"textcolor_inverse" : [ 0.6, 0.6, 0.6, 1.0 ],
					"bgfillcolor" : 					{
						"type" : "color",
						"color1" : [ 0.862745, 0.870588, 0.878431, 1.0 ],
						"color2" : [ 0.290196, 0.309804, 0.301961, 1.0 ],
						"color" : [ 0.862745, 0.870588, 0.878431, 1.0 ],
						"angle" : 270.0,
						"proportion" : 0.39,
						"autogradient" : 0
					}
,
					"elementcolor" : [ 0.54902, 0.584314, 0.705882, 1.0 ],
					"fontface" : [ 1 ],
					"fontsize" : [ 10.0 ]
				}
,
				"panel" : 				{
					"bgfillcolor" : 					{
						"type" : "color",
						"color1" : [ 0.376471, 0.384314, 0.4, 1.0 ],
						"color2" : [ 0.290196, 0.309804, 0.301961, 1.0 ],
						"color" : [ 0.647059, 0.666667, 0.658824, 1.0 ],
						"angle" : 270.0,
						"proportion" : 0.39
					}

				}
,
				"comment" : 				{
					"fontface" : [ 1 ],
					"textcolor" : [ 0.6, 0.6, 0.6, 1.0 ]
				}
,
				"parentstyle" : "",
				"multi" : 1
			}
, 			{
				"name" : "vb purple-1",
				"textbutton" : 				{
					"selectioncolor" : [ 0.54902, 0.584314, 0.705882, 1.0 ],
					"bgcolor" : [ 0.54902, 0.584314, 0.705882, 1.0 ],
					"color" : [ 1.0, 1.0, 1.0, 1.0 ],
					"fontface" : [ 1 ],
					"centerjust" : [ 2 ],
					"fontsize" : [ 16.0 ]
				}
,
				"button" : 				{
					"bgcolor" : [ 0.65098, 0.666667, 0.662745, 1.0 ],
					"color" : [ 0.54902, 0.584314, 0.705882, 1.0 ],
					"elementcolor" : [ 0.862745, 0.870588, 0.878431, 1.0 ]
				}
,
				"umenu" : 				{
					"color" : [ 0.54902, 0.584314, 0.705882, 1.0 ],
					"textcolor_inverse" : [ 0.6, 0.6, 0.6, 1.0 ],
					"bgfillcolor" : 					{
						"type" : "color",
						"color1" : [ 0.862745, 0.870588, 0.878431, 1.0 ],
						"color2" : [ 0.290196, 0.309804, 0.301961, 1.0 ],
						"color" : [ 0.862745, 0.870588, 0.878431, 1.0 ],
						"angle" : 270.0,
						"proportion" : 0.39,
						"autogradient" : 0
					}
,
					"elementcolor" : [ 0.54902, 0.584314, 0.705882, 1.0 ],
					"fontface" : [ 1 ],
					"fontsize" : [ 10.0 ]
				}
,
				"panel" : 				{
					"bgfillcolor" : 					{
						"type" : "color",
						"color1" : [ 0.376471, 0.384314, 0.4, 1.0 ],
						"color2" : [ 0.290196, 0.309804, 0.301961, 1.0 ],
						"color" : [ 0.647059, 0.666667, 0.658824, 1.0 ],
						"angle" : 270.0,
						"proportion" : 0.39
					}

				}
,
				"comment" : 				{
					"fontface" : [ 1 ],
					"textcolor" : [ 0.6, 0.6, 0.6, 1.0 ]
				}
,
				"parentstyle" : "",
				"multi" : 0
			}
, 			{
				"name" : "vbio",
				"parentstyle" : "",
				"multi" : 0
			}
 ]
	}

}
